<svg xmlns="http://www.w3.org/2000/svg" fill="none" viewBox="0 0 200 200"><g id="baby--users-people-baby"><path id="teddy bear" fill="#000000" d="M192.874 146.608c-0.441 -0.645 0.572 -0.905 0.066 -1.578 -0.924 -1.229 -1.994 -0.718 -2.167 -1.51 -0.185 -0.843 -1.217 -1.019 -2.079 -0.974 -1.174 0.062 -1.783 0.573 -2.212 0.098 -0.274 -0.303 -0.623 -0.346 -0.995 -0.176 -4.883 2.232 -5.689 2.973 -6.923 2.604 -0.19 -0.057 -0.524 0.153 1.177 -1.741 1.606 -1.789 2.271 -4.542 2.379 -4.89 0.354 -1.143 1.006 0.125 2.712 -0.573 0.238 -0.097 1.323 -0.26 1.85 -0.831 0.496 -0.538 0.861 -0.212 1.687 -1.014 1.363 -1.323 0.696 -2.015 1.39 -2.212 1.39 -0.395 1.177 -1.683 1.017 -3.128 -0.051 -0.457 -0.028 -0.443 0.438 -0.729 2.458 -1.511 -2.514 -5.71 -2.552 -6.338 -0.026 -0.434 -0.159 -0.851 -0.523 -1.131 -0.87 -0.673 -1.799 -1.239 -2.885 -1.496 -0.576 -0.137 0.248 -0.852 -0.819 -1.285 -1.768 -0.717 -3.137 0.15 -4.079 0.234 -2.005 0.18 -3.525 1.664 -3.82 1.688 -0.209 0.017 -0.312 -0.233 -0.444 -0.403 -0.135 -0.175 -0.396 -0.248 -0.553 -0.412 -3.179 -3.334 -7.71 -3.92 -9.08 -4.178 -0.377 -0.071 -0.426 -0.133 -0.523 -0.713 -0.349 -2.088 -1.654 -2.395 -1.704 -2.83 -0.187 -1.609 -1.55 -1.313 -1.919 -2.39 -0.454 -1.325 -1.727 -1.89 -2.9 -1.725 -0.721 0.102 -0.659 -1.202 -2.148 -0.82 -2.338 0.6 -2.875 1.661 -3.503 1.401 -0.81 -0.335 -2.044 0.543 -2.597 1.218 -2.278 2.779 -1.562 3.344 -2.177 3.721 -0.518 0.317 -0.744 0.84 -0.772 1.415 -0.038 0.771 -0.09 1.546 0.074 2.316 0.105 0.495 -1.201 2.076 1.808 4.846 0.325 0.299 -0.113 0.315 -0.923 1.587 -0.458 0.719 -1.067 1.882 -0.531 2.545 0.385 0.477 -0.449 0.279 -0.297 3.009 0.035 0.628 0.185 0.468 -0.443 0.515 -0.605 0.046 -2.096 0.066 -3.118 0.639 -0.781 0.438 -2.372 1.208 -3.263 1.809 3.912 1.184 6.687 4.335 7.75 7.934 0.249 0.842 6.39 -3.757 11.338 -1.404 2.514 1.196 3.645 3.862 4.393 9.002 0.177 1.216 5.635 -3.09 10.003 1.991 0.83 0.965 1.277 2.075 1.403 3.328 0.159 1.571 0.273 0.146 3.903 1.693 0.887 0.378 1.641 0.957 2.156 1.701 0.239 -0.071 0.477 -0.141 0.701 -0.272 0.611 -0.358 1.756 -0.103 3.5 -0.682 1.5 -0.498 1.036 -0.927 2.19 -1.397 2.983 -1.212 2.861 -3.523 3.794 -4.605 0.843 -0.977 0.975 -2.752 0.22 -3.854v-0.003Zm-11.427 -21.726c0.998 -0.642 2.661 -0.411 3.009 0.671 0.071 0.221 0.055 0.441 -0.049 0.637 -0.106 0.202 -0.029 0.278 0.347 0.518 0.428 0.273 1.076 0.686 1.369 1.759 0.263 0.965 -0.123 1.772 -0.623 2.144 -0.331 0.247 -0.471 0.546 -0.501 1.066 -0.086 1.499 -1.661 2.616 -3.073 2.079 -0.271 -0.103 -0.821 -0.449 -0.696 -0.809 0.082 -0.236 0.41 -0.282 0.757 -0.332 0.99 -0.139 1.771 -0.677 1.507 -1.57 -0.138 -0.467 0.065 -0.621 0.401 -0.876 0.478 -0.36 0.914 -0.71 0.819 -1.399 -0.163 -1.196 -1.723 -0.751 -1.688 -2.441 0.007 -0.376 0.007 -0.542 -0.695 -0.554 -0.454 -0.015 -1.222 0.083 -1.239 -0.409 -0.005 -0.163 0.121 -0.335 0.354 -0.486l0.001 0.002Zm-18.763 -0.096c0.492 -0.027 0.833 0.287 0.883 0.858 0.063 0.724 -0.916 2.008 -1.808 1.329 -0.969 -0.738 -0.124 -2.115 0.925 -2.187Zm-0.882 4.841c2.372 0.419 3.154 1.286 3.677 1.855 0.862 0.938 -1.189 1.697 -2.351 1.655 -1.332 0.089 -1.834 -1.143 -2.277 -2.403 -0.235 -0.67 0.256 -1.225 0.951 -1.107Zm-7.345 -13.337c-0.746 0.373 -1.121 0.561 -0.543 2.444 0.109 0.356 -0.112 0.583 -0.39 0.583 -0.885 0 -1.722 -2.731 -0.257 -3.855 0.917 -0.702 0.681 -2.396 3.023 -2.593 0.86 -0.074 1.089 0.333 1.304 0.727 0.177 0.323 0.359 0.657 0.919 0.81 2.979 0.811 1.358 4.4 0.458 3.615 -0.312 -0.274 0.249 -0.833 0.083 -1.383 -0.513 -1.702 -1.654 -0.26 -2.288 -1.715 -0.274 -0.633 -0.796 -0.777 -1.378 -0.254 -0.667 0.595 -0.221 1.265 -0.933 1.622l0.002 -0.001Zm11.627 22.263c-1.924 0.535 -4.182 -1.12 -5.016 -2.728 -0.088 -0.17 -0.142 -0.133 -0.395 -0.125 -0.152 0.004 -0.296 0.008 -0.431 0.042 -2.072 0.52 -4.477 -1.128 -4.389 -3.853 -0.076 -0.749 0.218 -1.586 0.733 -2.085 0.949 -0.921 1.871 0.013 1.21 0.396 -1.771 1.023 -0.288 4.952 2.721 4.205 2.333 -0.577 1.188 1.858 4.23 2.791 1.145 0.351 1.931 -0.175 2.114 -0.986 0.42 -1.853 -0.057 -1.288 0.341 -1.938 0.668 -1.088 2.714 3.217 -1.119 4.282l0.001 -0.001Zm2.05 -8.935c-1.085 1.433 -2.618 -1.037 -1.17 -2.064 0.62 -0.44 1.321 -0.145 1.45 0.527 0.121 0.627 0.029 1.13 -0.28 1.538v-0.001Zm20.068 22.579c-2.314 1.606 -5.796 -0.309 -4.64 -2.584 0.115 -0.226 0.159 -0.403 0.064 -0.691 -0.41 -1.254 0.587 -2.616 1.921 -2.986 1.107 -0.306 2.441 0.843 0.811 1.185 -0.755 0.159 -1.726 1.06 -1.363 1.531 0.237 0.311 0.276 0.718 0.109 1.147 -0.278 0.717 0.036 1.334 0.904 1.543 0.354 0.083 0.792 -0.076 1.713 -0.229 0.861 -0.14 0.867 0.818 0.481 1.084Z" stroke-width="1"></path><g id="cloud"><path id="vector" fill="#000000" d="M183.619 165.15c-0.739 -1.672 -1.714 -1.604 -1.399 -2.146 2.055 -3.535 0.611 -6.214 -1.907 -7.288 -3.63 -1.547 -3.744 -0.122 -3.903 -1.693 -0.126 -1.253 -0.573 -2.363 -1.403 -3.328 -4.369 -5.081 -9.826 -0.775 -10.003 -1.991 -0.748 -5.141 -1.878 -7.807 -4.393 -9.002 -4.948 -2.354 -11.09 2.245 -11.338 1.404 -1.55 -5.245 -6.735 -9.541 -13.777 -8.177 -0.506 0.098 -0.964 0.199 -1.378 0.301 0.268 0.466 0.549 0.641 0.261 1.67 -0.002 0.007 -0.004 0.014 -0.005 0.022 12.721 -3.553 12.855 9.384 15.138 8.237 2.179 -1.095 7.4 -4.909 11.203 -1.491 2.381 2.14 2.528 4.426 2.763 7.732 0.169 2.367 1.369 0.95 4.156 0.454 2.432 -0.433 4.365 0.073 5.484 0.867 2.136 1.516 2.086 3.723 2.276 4.374 0.533 1.828 1.896 0.556 4.6 2.086 3.739 2.115 0.423 5.885 0.594 6.35 0.101 0.275 0.175 0.538 0.442 0.746 3.446 2.69 0.721 8.317 -2.979 9.164 -7.324 1.678 -8.78 -3.42 -9.522 -0.523 -0.007 0.028 -0.069 8.204 -6.839 10.81 -0.789 0.303 -2.113 0.823 -3.262 0.897 -3.859 0.25 -9.474 -1.631 -11.594 -4.865 -1.654 -2.523 -1.141 3.27 -6.124 6.403 -4.98 3.131 -9.404 0.686 -11.004 0.016 -1.846 -0.774 -2.888 -3.264 -3.843 -1.972 -1.437 1.945 -4.073 6.954 -10.318 8.299 -14.038 3.023 -14.578 -6.972 -16.989 -4.442 -2.211 2.32 -5.533 2.595 -8.229 0.311 -2.592 -2.197 -4.201 1.545 -10.654 1.543 -7.857 -0.002 -8.711 -6.632 -11.387 -5.741 -2.862 0.952 -10.459 5.066 -20.345 4.304 -3.849 -0.296 -7.012 -1.383 -9.266 -4.497 -3.114 -4.304 -0.78 -5.697 -5.075 -4.317 -3.091 0.993 -4.232 0.684 -6.708 0.363 -6.053 -0.784 -3.922 -6.462 -6.586 -6.121 -1.099 0.141 -2.419 0.679 -4.455 0.474 -9.09502 -0.915 -11.18202 -7.005 -7.85802 -11.379 4.11702 -5.418 11.26502 -4.919 11.98202 -5.758 0.48 -0.562 -0.894 -6.157 5.038 -11.508 1.76 -1.587 5.957 -2.625 9.859 -1.454 0.599 0.18 1.068 -0.171 1.087 -0.79 0.028 -0.866 -0.537 -1.027 0.734 -4.684 0.927 -2.669 4.549 -6.357 8.29 -7.197 0.432 -0.097 0.915 -0.154 1.442 -0.164 -0.156 -0.573 -0.262 -1.127 -0.318 -1.668 -1.627 0.118 -3.13 0.556 -4.277 1.185 -8.406 4.609 -6.776 11.906 -7.722 11.698 -9.021 -1.987 -14.967 4.56 -15.495 13.065 -0.045 0.733 -0.349 0.449 -1.16 0.605 -16.20102 3.131 -16.09202 17.718 -2.585 19.528 4.087 0.548 5.245 -0.842 5.582 0.051 1.418 3.758 2.39 5.553 7.804 5.883 5.514 0.336 6.885 -1.851 7.238 -0.653 3.129 10.621 16.902 10.27 26.765 6.875 6.63 -2.282 6.211 -2.939 6.624 -2.309 2.579 3.935 7.154 6.447 13.038 5.651 4.896 -0.662 6.096 -3.235 7.688 -1.766 1.508 1.391 4.141 2.414 6.554 1.556 4.281 -1.522 1.812 -3.043 4.955 0.26 3.576 3.758 13.047 3.955 18.092 1.298 6.586 -3.469 6.963 -7.863 7.627 -6.975 1.999 2.676 6.958 4.699 11.969 3.167 6.195 -1.894 7.173 -7.92 7.659 -7.372 0.304 0.342 1.039 1.394 2.208 2.05 4.582 2.572 8.329 3.65 13.212 1.855 7.475 -2.747 7.88 -11.319 8.453 -11.094 10.511 4.131 15.396 -4.406 13.282 -9.187l0.001 -0.002Z" stroke-width="1"></path><path id="vector_2" fill="#000000" d="M149.851 159.293c-1.076 -0.511 -1.479 -1.738 -2.892 -2.52 -3.672 -2.033 -4.98 1.797 -5.638 2.496 -1.755 1.865 -1.489 -2.915 -7.04 -4.075 -5.093 -1.064 -8.848 5.163 -9.008 5.27 -1.928 1.286 -0.122 -4.577 5.572 -6.403 3.754 -1.204 7.497 0.498 9.616 3.565 0.306 0.443 0.248 -0.235 1.59 -1.564 4.095 -4.056 10.403 3.204 7.799 3.232l0.001 -0.001Z" stroke-width="1"></path></g><g id="baby"><path id="vector_3" fill="#000000" d="M134.628 39.1191c0 5.582 -1.263 8.17 -1.225 8.644 0.941 -0.148 5.042 -3.14 8.721 0.419 3.012 2.913 3.447 6.923 2.091 10.433 -1.5 3.884 -5.629 5.805 -9.654 6.909 -2.493 0.684 -3.055 0.244 -3.175 0.76 -0.888 3.801 -2.868 8.229 -4.76 11.197 -3.411 5.35 -7.299 6.839 -6.444 7.033 11.735 2.661 21.327 19.1809 11.637 36.7309 -0.414 0.749 -2.287 5.202 -1.875 6.221 0.076 0.188 -0.399 0.626 0.287 1.04 1.753 1.058 2.982 2.558 3.75 4.447 0.288 0.708 0.736 0.738 0.397 1.947 -0.136 0.487 0.526 2.097 -1.118 6.435 -0.697 1.838 -2.292 3.609 -3.709 4.97 -7.204 6.919 -18.21 5.314 -26.15 8.439 -1.898 0.747 -0.646 6.369 -9.553 4.628 -3.08 -0.602 -4.676 -1.651 -5.98 -3.291 -0.943 -1.186 -1.809 -1.365 -4.229 -2.759 -3.455 -1.99 -4.926 -6.369 -2.087 -8.619 0.395 -0.313 -0.305 -0.135 -1.901 -1.8 -0.411 -0.429 -0.143 0.168 -2.689 0.324 -2.022 0.124 -2.148 0.058 -2.019 0.368 0.531 1.283 0.56 2.966 -0.53 4.308 -2.268 2.792 -4.795 2.337 -10.03 3.869 -3.241 0.949 -4.966 2.468 -10.145 2.053 -1.941 -0.155 -0.179 -0.141 -4.414 -0.389 -3.372 -0.197 -4.183 -1.895 -3.084 -3.185 0.242 -0.284 -0.404 -0.255 -1.119 -0.559 -1.536 -0.654 -1.675 -3.023 -0.192 -3.507 1.061 -0.346 -3.13 -0.965 -1.018 -3.711 1.071 -1.393 2.843 -0.674 4.418 -1.045 0.901 -0.212 -1.515 -0.428 -2.51 -0.655 -4.69 -1.072 -3.534 -6.227 -0.176 -6.335 1.369 -0.044 1.505 0.111 1.344 -0.225 -2.291 -4.774 -1.906 -8.206 1.791 -11.997 3.691 -3.785 11.205 -4.719 12.9 -4.546 3.261 0.333 3.587 0.013 9.449 2.104 2.182 0.778 0.065 0.974 1.361 -4.136 0.806 -3.18 1.795 -4.972 3.819 -7.715 2.809 -3.807 3.135 -3.022 2.791 -5.882 -8.694 8.151 -20.858 4.759 -19.169 -8.4449 0.573 -4.482 2.436 -12.349 5.516 -16.366 0.441 -0.576 -1.259 -1.777 -1.267 -8.257 0 -0.312 -0.005 -0.301 -0.362 -0.249 -2.373 0.344 -4.56 -0.127 -6.492 -1.569 -2.314 -1.727 -3.932 -3.203 -4.354 -5.737 -0.4 -2.401 0.481 -5.122 2.34 -7.012 1.877 -1.909 4.844 -2.199 6.213 -1.738 0.276 0.093 0.584 0.092 0.877 0.134 -0.705 -1.919 -3.026 -6.333 -3.424 -10.608 -0.687 -7.369 2.019 -16.017 7.852 -22.631 5.491 -6.226 10.053 -7.429 10.522 -8.091 3.688 -5.20902 9.927 -6.88102 15.117 -5.51402 2.045 0.539 2.079 1.513 2.783 1.29 0.098 -0.031 4.552 -0.231 6.937 0.181 0.842 0.145 2.929 0.001 8.256 1.702 5.921 1.89102 12.418 5.83302 16.827 11.13302 5.76 6.924 6.535 12.834 6.929 18.849l-0.069 0.003 -0.002 0.002ZM97.852 8.84808c-2.813 0.156 -2.817 0.073 -3.106 0.374 -4.158 4.34102 -5.835 6.90502 -2.101 11.13802 2.697 3.057 4.571 2.637 3.517 3.657 -0.163 0.158 -0.383 0.307 -0.598 0.349 -7.787 1.511 -11.988 -3.46 -12.526 -3.263 -0.734 0.268 2.548 4.1 3.76 5.179 2.472 2.202 3.076 2.083 2.954 2.771 -0.053 0.3 -0.129 0.552 -0.489 0.668 -2.653 0.859 -6.736 0.117 -9.366 -1.329 -3.449 -1.896 -5.066 -4.796 -5.112 -8.192 -0.04 -2.923 1.236 -5.495 1.363 -5.948 -1.125 0.268 -6.256 4.117 -9.235 8.144 -1.341 1.814 -2.152 2.801 -4.005 7.719 -1.526 4.049 -1.739 5.97 -2.101 9.669 -0.061 0.625 0.068 1.086 0.224 2.493 0.3 2.694 1.379 5.225 2.494 7.786 2.516 5.778 3.421 6.354 2.953 16.499 -0.157 3.406 -0.223 5.568 0.825 8.765 0.135 0.412 0.061 0.28 1.334 -0.807 3.88 -3.312 9.569 -5.983 14.414 -4.387 0.651 0.214 0.646 -0.445 2.805 -1.123 0.232 -0.073 0.234 -0.172 0.149 -0.373 -0.392 -0.934 0.068 -1.797 0.815 -2.184 0.793 -0.411 2.011 -0.893 3.226 -2.195 1.15 -1.233 1.735 -0.025 1.435 0.481 -1.006 1.696 -2.205 2.217 -3.368 2.997 1.796 1.262 3.838 3.818 7.394 5.057 1.093 0.381 1.059 1.33 0.385 1.626 -1.846 0.81 -5.104 -2.404 -5.657 -2.083 -3.435 1.996 -1.503 -0.018 -0.966 4.034 0.341 2.572 -0.17 5.013 -2.31 6.48 -1.323 0.907 -1.626 -0.184 -2.285 0.61 -0.686 0.827 -1.922 1.497 -3.085 0.992 -0.268 -0.117 -0.266 -0.055 -1.656 0.716 -0.192 0.106 -0.318 0.378 0.211 0.532 10.567 3.074 22.115 3.883 32.504 0.248 13.092 -4.58 16.972 -19.584 17.628 -20.81 0.907 -1.696 5.688 -0.625 9.765 -4.216 6.031 -5.313 1.643 -13.376 -2.43 -12.837 -1.425 0.189 -1.529 0.245 -4.223 1.282 -0.829 0.319 -2.28 -0.01 -1.972 -1.196 1.79 -6.892 1.647 -8.396 1.277 -12.532 -0.54 -6.037 -4.019 -13.148 -10.081 -18.237 -7.276 -6.109 -15.272 -8.08802 -24.761 -8.55202l0.001 -0.002ZM118.591 136.76c-0.006 1.532 -0.138 2.198 0.511 2.599 1.807 1.115 2.56 -8.524 2.881 -9.811 0.044 -0.174 0.418 -0.741 0.808 -0.42 0.883 0.728 -0.98 8.203 -0.605 8.098 0.058 -0.016 0.108 -0.066 0.16 -0.104 2.315 -1.725 3.379 -6.427 3.898 -7.612 0.184 -0.42 0.981 -0.427 1.007 0.22 0.026 0.636 0.035 0.628 -0.907 3.383 -0.173 0.506 0.085 0.496 0.267 1.32 0.415 1.876 0.084 2.287 0.447 3.222 0.185 0.476 0.896 0.141 1.222 -0.329 0.623 -0.897 0.54 -1.712 0.69 -2.769 0.427 -3.024 -0.686 -5.149 -0.441 -7.337 0.577 -5.164 2.53 -6.452 4.199 -11.766 2.427 -7.728 1.535 -17.1479 -3.966 -23.5099 -3.773 -4.363 -7.184 -5.127 -9.993 -6.305 -0.877 -0.368 -1.097 0.4 -4.84 1.831 -3.318 1.268 -9.611 2.38 -11.716 2.514 -5.778 0.369 -6.555 0.47 -14.467 -0.663 -6.703 -0.96 -7.823 -2.18 -7.802 -1.502 0.026 0.847 -0.33 3.39 -0.839 4.321 -0.121 0.221 -0.302 0.411 -0.472 0.6 -0.035 0.038 -0.207 0.025 -0.212 0.006 -0.36 -1.267 -0.235 -0.36 -0.067 -3.273 0.438 -7.558 -1.939 -2.844 -0.86 -7.518 -1.449 0.56 -2.746 1.143 -4.276 0.761 -0.913 -0.228 -1.834 -0.787 -1.145 -1.413 0.39 -0.354 1.649 0.491 3.656 -0.122 2.82 -0.862 2.329 -2.561 3.565 -2.193 0.721 0.215 -0.193 2.503 -0.475 3.509 -0.184 0.658 -0.378 1.105 0.297 1.142 1.052 0.059 2.025 -1.182 2.349 -2.185 0.28 -0.867 0.12 -1.729 0.128 -3.406 0.004 -0.752 0.898 -0.844 1.148 -0.29 0.959 2.132 -0.475 5.151 -0.52 5.45 1.476 0.088 2.43 -1.917 2.874 -3.328 0.325 -1.032 0.084 -1.92 -0.185 -2.839 -0.196 -0.67 0.088 -1.429 0.713 -1.116 0.976 0.489 0.965 3.143 0.766 3.769 -0.105 0.332 -0.514 1.758 -0.559 2.08 1.721 -0.394 3.565 -3.902 1.836 -6.78 -0.561 -0.934 -1.984 -1.34 -2.256 -1.517 -0.339 -0.22 -0.3 -1.008 0.278 -0.99 0.277 0.008 0.921 0.093 1.263 -0.079 2.068 -1.039 2.296 -1.138 2.114 -1.321 -1.303 -1.312 -1.324 -1.332 -1.528 -1.217 -0.598 0.338 -3.35 1.358 -3.909 1.333 -1.213 -0.055 -2.912 -0.318 -5.509 0.104 -3.771 0.613 -9.493 4.687 -11.356 7.379 -2.458 3.55 -4.185 10.912 -4.724 15.13 -0.251 1.967 -0.065 4.6 0.933 6.7879 0.812 1.78 1.251 1.84 1.825 2.352 2.152 1.921 4.083 1.632 6.214 1.619 1.15 -0.007 5.392 -1.722 6.568 -2.757 2.091 -1.8399 2.086 -1.779 2.067 -2.2699 -0.301 -7.786 2.944 -9.325 2.012 -5.566 -0.871 3.514 -0.685 4.593 -0.695 9.2169 -0.001 0.576 0.789 -0.876 1.317 -0.321 0.275 0.289 0.013 0.657 -0.253 0.955 -0.351 0.393 -8.35 8.131 -8.036 15.087 0.037 0.807 0.428 3.285 0.722 3.617 1.306 1.474 2.945 3.643 7.58 5.205 6.818 2.298 14.392 3.289 26.104 0.901 0.254 -0.052 0.335 -0.185 0.389 -0.43 0.324 -1.466 2.617 -2.619 7.016 -6.19 0.823 -0.668 0.755 -1.31 0.828 -3.102 0.501 -12.315 -1.589 -7.658 -5.064 -18.749 -0.601 -1.9169 0.456 -1.7709 0.759 -1.2459 0.086 0.149 -0.048 0.453 3.679 7.1399 2.063 3.701 2.929 7.461 1.938 14.091 -0.421 2.817 -2.104 3.807 -4.646 5.621 -2.515 1.795 -2.641 1.861 -2.938 2.162 -0.978 0.993 6.009 -1.454 7.335 0.234 0.727 0.925 0.65 1.171 0.771 3.363 0.181 3.268 0.141 1.504 0.127 5.223Zm-1.424 -7.233c-0.027 -0.324 -0.309 -0.641 -0.614 -0.632 -8.6 0.26 -10.788 2.999 -16.983 9.628 -0.14 0.15 -0.103 0.229 0.184 0.424 2.445 1.661 3.964 8.529 3.679 11.121l-0.411 3.613c0.414 -0.093 0.273 -0.039 0.963 -0.28 4.915 -1.715 10.441 -2.254 13.358 -2.921 6.61 -1.513 14.749 -5.839 15.383 -12.59 0.177 -1.879 0.698 -3.876 -0.944 -5.879 -0.197 -0.24 -1.297 -1.458 -1.597 -1.538 0.172 2.549 0.433 2.846 -0.18 5.845 -0.153 0.748 -0.621 1.352 -0.981 2.006 -0.454 0.823 -1.476 1.014 -2.18 0.901 -0.326 -0.052 -1.052 -0.782 -1.152 -1.734 -0.009 -0.082 -0.201 -1.901 -0.288 -2.089 -0.325 0.255 -1.633 3.163 -3.357 3.179 -0.801 0.008 -0.408 0.389 -0.85 0.98 -0.678 0.906 -0.978 1.395 -2.405 1.107 -2.499 -0.505 -1.077 -4.559 -1.625 -11.141Zm-69.842 -0.053c0.124 1.987 1.05 3.423 2.133 5.035 0.229 0.341 0.584 0.598 1.346 0.569 4.794 -0.179 5.479 -1.051 10.34 2.527 1.175 0.865 1.681 0.536 6.176 0.71 2.259 0.087 3.415 0.783 4.817 1.491 0.722 -3.25 -0.172 -6.794 -1.806 -9.186 -3.775 -5.527 -10.446 -5.622 -11.69 -6.194 -3.235 -1.487 14.379 -2.462 15.45 12.384 0.199 2.76 -0.72 3.587 -0.602 4.153 0.067 0.323 0.435 0.572 0.59 0.893 0.316 0.651 0.457 0.258 4.225 -0.165 0.428 -0.048 0.041 -0.331 -0.298 -0.876 -1.951 -3.137 -2.824 -6.714 -3.745 -10.378 -1.178 -4.687 -0.269 -7.593 -1.788 -8.47 -2.346 -1.354 -4.03 -1.524 -5.881 -2.09 -7.229 -2.211 -18.896 1.066 -19.267 9.597Zm9.297 22.859c1.472 -0.142 1.621 -0.067 3.981 -1.102 3.292 -1.443 8.989 -2.192 10.51 -2.701 1.573 -0.526 3.116 -2.513 2.277 -4.67 -1.973 -5.072 -5.204 -3.927 -10.552 -4.137 -3.418 -0.134 -3.982 -3.594 -9.003 -3.307 -2.337 0.134 -2.592 0.513 -4.774 -0.067 -1.895 -0.504 -3.939 -0.692 -4.165 1.255 -0.193 1.665 3.928 1.814 4.338 1.906 3.511 0.783 1.659 4.71 -2.28 3.763 -1.36 -0.327 -2.317 1.102 0.148 1.51 1.095 0.181 1.908 0.226 2.005 1.114 0.072 0.658 -0.82 0.91 -1.625 1.218 -1.185 0.452 -1.451 0.32 -1.449 0.896 0.002 0.574 0.6 0.59 1.925 0.766 0.523 0.07 1.498 -0.205 1.469 0.851 -0.028 1.009 -1.986 1.479 -1.274 1.825 1.481 0.719 2.262 0.445 8.471 0.878l-0.002 0.002Zm45.433 -2.564c-0.211 -3.144 -0.879 -9.366 -3.952 -10.062 -1.045 -0.237 -2.53 -0.243 -2.946 0.751 -1.867 4.463 2.366 3.261 2.606 4.54 0.123 0.653 -0.664 0.752 -1.147 0.833 -1.668 0.28 -1.68 0.098 -1.94 1.586 -0.286 1.631 4.025 0.613 2.641 2.264 -0.138 0.164 -0.861 0.184 -1.232 0.286 -1.525 0.421 -1.507 2.045 -0.545 2.691 0.644 0.432 1.395 0.751 1.751 1.175 0.119 0.142 0.175 0.539 -0.256 0.548 -1.117 0.022 -1.32 -0.157 -2.022 0.195 -1.357 0.681 1.991 1.959 1.405 2.763 -0.7 0.963 -4.896 -1.829 -2.298 -3.733 0.308 -0.226 -0.032 -0.259 -0.363 -0.79 -0.651 -1.046 -0.354 -2.527 0.348 -3.152 0.276 -0.246 0.27 -0.285 -0.078 -0.499 -1.323 -0.814 -1.201 -3.028 -0.105 -4.079 0.606 -0.581 -0.708 -0.477 -0.819 -2.509 -0.013 -0.233 -0.032 -0.465 -0.048 -0.698 -1.233 0.508 -0.678 0.183 -2.876 2.175 -1.862 1.688 -3.583 1.197 -5.849 1.13 -1.281 -0.038 -2.511 0.951 -2.696 2.449 -0.17 1.379 0.779 3.215 1.292 3.588 1.262 0.917 2.457 1.618 3.829 2.36 1.885 1.019 2.262 1.999 3.52 3.173 1.699 1.585 7.2 2.097 8.603 1.472 2.704 -1.205 2.941 -4.614 3.175 -8.455l0.002 -0.002ZM87.37 143.89c1.16 0.177 1.768 -0.843 2.754 -1.734 2.198 -1.987 3.048 -0.898 3.385 -1.83 0.558 -1.545 1.307 -1.38 1.068 -1.925 -3.914 -8.939 -1.411 -6.454 -6.058 -7.344 -4.755 -0.911 -4.562 -1.265 -4.782 -0.735 -1.796 4.321 -2.803 7.766 -3.536 10.905 0.936 1.231 0.542 0.96 2.871 2.513 0.337 0.225 0.316 -0.123 4.298 0.15ZM64.963 62.3331c-0.343 -4.977 -0.205 -4.758 -0.951 -6.968 -0.257 -0.763 -1.936 -1.157 -2.695 -1.123 -1.683 0.077 -3.365 -0.01 -4.944 2.249 -1.167 1.671 -1.832 4.631 0.079 6.834 3.347 3.859 5.248 3.535 8.07 3.477 0.374 -0.008 0.261 -0.064 0.441 -4.469Zm9.999 62.3829c-0.262 0.725 1.63 12.126 4.4 15.132 0.724 -3.734 2.754 -9.11 3.237 -9.919 0.416 -0.697 -0.535 -0.084 -4.5 -2.583 -0.978 -0.616 -2.46 -1.693 -3.138 -2.629l0.001 -0.001Zm19.086 6.789c0 -0.03 -0.62 -0.018 -0.646 -0.017 -0.279 0.005 -0.296 0.022 -0.143 0.287 1.117 1.93 1.589 4.087 2.174 6.203 0.07 0.252 0.01 0.299 1.501 0.085 0.377 -0.054 0.793 0.216 1.107 0.012 0.309 -0.201 0.503 -0.578 0.748 -0.877 0.869 -1.06 6.419 -6.434 6.433 -6.46 -0.502 -0.079 -4.043 0.971 -11.174 0.767Z" stroke-width="1"></path><path id="vector_4" fill="#000000" d="M92.877 58.0009c1.062 0 1.442 -0.102 1.65 0.377 0.264 0.61 -0.478 1.14 -1.128 1.281 -4.803 1.04 -9.027 -3.912 -3.398 -6.285 0.161 -0.068 1.267 -0.507 1.504 -0.537 1.207 -0.153 0.833 1.237 -0.129 1.722 -0.749 0.377 -1.443 0.611 -2.078 1.248 -0.396 0.398 -0.284 0.523 -0.074 0.897 0.692 1.232 3.653 1.5 3.653 1.297Z" stroke-width="1"></path><path id="vector_5" fill="#000000" d="M101.706 32.9381c1.765 -0.122 4.06 2.029 5.252 3.662 0.414 0.568 0.28 1.091 -0.082 1.376 -1.049 0.828 -1.448 -1.08 -3.982 -2.751 -1.906 -1.257 -3.279 0.525 -4.483 1.783 -0.37 0.387 -1.1481 0.288 -1.1871 -0.49 -0.084 -1.701 3.0481 -3.732 4.4811 -3.582l0.001 0.002Z" stroke-width="1"></path><path id="vector_6" fill="#000000" d="M80.977 38.4353c-1.429 0.198 -2.159 0.094 -3.114 1.458 -0.858 1.225 -0.835 2.216 -1.039 2.6 -0.478 0.901 -1.773 0.312 -1.391 -1.471 0.97 -4.528 5.45 -5.057 7.238 -4.131 1.169 0.606 0.456 1.873 -0.605 1.695 -1.071 -0.18 -1.076 -0.019 -1.089 -0.151Z" stroke-width="1"></path><path id="vector_7" fill="#000000" d="M140.272 56.183c-0.222 0.521 -0.878 0.592 -1.191 0.122 -0.186 -0.279 -0.19 -0.593 -0.814 -1.871 -0.474 -0.971 -1.873 -0.822 -3.125 1.149 -0.546 0.859 -1.005 1.84 -1.393 2.23 -1.113 1.121 -1.763 -1.924 1.715 -4.971 2.819 -2.47 5.649 1.371 4.808 3.341Z" stroke-width="1"></path><path id="vector_8" fill="#000000" d="M101.787 45.1501c1.419 1.652 0.029 4.359 -1.39 2.999 -1.688 -1.617 -0.017 -4.637 1.39 -2.999Z" stroke-width="1"></path><path id="vector_9" fill="#000000" d="M80.82 49.1021c-0.011 -1.573 1.211 -1.994 1.894 -1.314 0.316 0.315 1.104 1.674 0.277 2.803 -0.848 1.158 -2.27 -0.056 -2.171 -1.489Z" stroke-width="1"></path><path id="vector_10" fill="#000000" d="M103.876 104.281c1.797 0.338 2.492 0.153 2.244 0.524 -0.811 1.216 -4.329 0.291 -9.306 -0.64 -9.122 -1.705 -10.651 0.443 -10.992 -0.285 -0.061 -0.131 -0.069 -0.371 0.013 -0.467 2.429 -2.819 14.311 0.166 18.041 0.868Z" stroke-width="1"></path><path id="vector_11" fill="#000000" d="M88.251 119.73c0.692 0.264 1.202 1.061 1.127 1.783 -0.079 0.762 -0.889 1.233 -1.56 0.893 -0.802 -0.405 -0.33 -1.269 -0.772 -0.831 -0.306 0.304 -0.577 0.732 -1.135 0.456 -1.074 -0.53 0.529 -2.992 2.34 -2.301Z" stroke-width="1"></path><path id="vector_12" fill="#000000" d="M60.624 58.2691c2.837 0.36 4.085 2.547 2.706 2.927 -0.532 0.147 -1.011 -0.405 -1.441 -0.707 -2.661 -1.863 -2.461 1.115 -3.372 1.281 -1.596 0.292 -1.015 -3.514 2.107 -3.501Z" stroke-width="1"></path></g><g id="stars"><path id="vector_13" fill="#000000" d="M179.486 68.9538c1.179 -0.506 3.765 -1.721 3.561 -0.447 -0.009 0.057 -0.096 0.106 -0.153 0.151 -2.572 2.046 -3.121 1.795 -2.633 2.078 1.226 0.711 4.691 2.46 3.891 3.403 -0.163 0.192 -0.325 0.086 -0.453 0.031 -4.31 -1.873 -4.684 -2.497 -4.735 -2.01 -0.25 2.4 -0.084 4.837 -0.944 5.725 -0.346 -0.391 -0.473 -0.046 -0.599 -3.56 -0.076 -2.126 0.16 -2.301 -0.251 -2.076 -2.526 1.381 -5.079 3.015 -5.053 1.487 0.011 -0.625 0.472 -0.845 1.931 -1.74 2.176 -1.335 2.288 -1.248 1.931 -1.446 -1.143 -0.634 -3.509 -1.931 -3.884 -2.147 -0.923 -0.531 -0.679 -1.134 -0.207 -1.265 0.885 -0.245 2.604 0.695 3.362 1.065 2.224 1.084 2.165 1.259 2.172 0.77 0.086 -6.512 0.155 -7.133 0.909 -7.083 0.554 0.036 0.616 0.6 0.637 1.629 0.125 6.211 -0.244 5.764 0.518 5.437v-0.002Z" stroke-width="1"></path><path id="vector_14" fill="#000000" d="M37.811 96.5811c0.273 -0.515 0.981 -0.351 1.109 0.404 0.148 0.876 0.115 0.637 0.281 5.1429 0.017 0.448 -0.042 0.584 0.318 0.406 0.996 -0.493 3.92 -2.059 3.372 -1.091 -0.272 0.481 -0.19 0.358 -2.35 2.268 -0.291 0.258 -0.381 0.228 -0.058 0.483 1.197 0.946 1.992 1.471 2.817 2.624 0.261 0.365 0.257 0.886 -0.229 0.715 -1.744 -0.613 -3.796 -2.572 -3.855 -2.161 -0.047 0.33 0.063 4.846 -0.212 5.403 -0.115 0.234 -0.379 0.261 -0.491 0.031 -0.606 -1.248 -0.641 -4.977 -0.643 -5.003 -0.03 -0.354 -0.118 -0.132 -2.044 0.908 -1.532 0.827 -2.461 -0.227 -0.769 -1.369 2.013 -1.358 2.256 -1.369 1.922 -1.554 -3.259 -1.809 -3.081 -1.702 -3.26 -1.814 -0.653 -0.41 -0.522 -1.136 0.048 -1.154 1.266 -0.04 2.653 0.618 3.692 1.312 0.518 0.346 -0.149 -4.6059 0.352 -5.5509Z" stroke-width="1"></path><path id="vector_15" fill="#000000" d="M13.606 56.7627c-0.26 5.126 -0.725 2.632 3.624 2.173 0.199 -0.021 0.468 -0.108 0.575 0.151 0.249 0.605 -2.667 1.968 -2.879 2.077 -0.476 0.244 0.576 0.428 1.606 1.935 0.659 0.964 0.217 1.203 -0.386 0.802 -2.374 -1.58 -2.147 -1.476 -2.674 -1.895 -0.234 -0.186 -0.108 0.209 -0.302 1.786 -0.437 3.548 -1.151 1.88 -1.166 -0.374 -0.008 -1.234 0.031 -0.857 -1.987 -0.262 -0.58199 0.172 -1.12299 -0.409 -0.70499 -0.963 0.399 -0.529 0.525 -0.477 2.27199 -1.387 0.417 -0.217 -2.61399 -1.979 -3.04199 -2.636 -0.228 -0.35 -0.018 -0.746 0.396 -0.806 0.978 -0.142 1.68399 0.541 2.83099 1.348 0.264 0.186 0.248 -0.043 0.262 -0.358 0.131 -2.856 0.117 -3.179 0.26 -3.786 0.139 -0.59 1.018 -0.618 1.159 0.012 0.267 1.188 0.024 2.178 0.156 2.183Z" stroke-width="1"></path><path id="vector_16" fill="#000000" d="M42.53 25.567c-0.02 4.432 -6.544 4.398 -6.563 0.011 -0.018 -4.128 6.584 -4.583 6.563 -0.011Zm-3.241 1.953c2.311 0.16 2.84 -3.59 -0.121 -3.794 -0.984 -0.068 -1.808 1.02 -1.799 1.884 0.012 1.132 0.979 1.971 1.92 1.91Z" stroke-width="1"></path><path id="vector_17" fill="#000000" d="M192.216 23.2401c3.873 0.047 3.591 5.787 -0.131 5.78 -3.678 -0.006 -4.003 -5.831 0.131 -5.78Zm-0.242 1.434c-0.8 0.009 -1.374 0.792 -1.352 1.505 0.024 0.766 0.758 1.465 1.524 1.427 1.862 -0.094 1.764 -2.953 -0.172 -2.932Z" stroke-width="1"></path></g></g></svg>