<svg xmlns="http://www.w3.org/2000/svg" fill="none" viewBox="0 0 200 200"><g id="discussion-whiteboard--users-people-discussion-whiteboard"><g id="plan"><path id="vector" fill="#000000" d="M58.822 101.673c5.908 55.281 5.934 55.638 5.438 55.778 -2.141 0.622 -41.566 11.87 -43.571 12.064L8.571 27.812c1.048 -0.275 40.974 3.429 42.819 4.218 1.954 18.354 3.625 34.019 5.054 47.388 0.436 0.802 0.796 2.339 1.557 3.825l-5.315 -50.758c2.259 0.192 2.376 -4.727 0.136 -4.667 -0.376 0.014 -0.936 0.336 -1.229 0.355 -0.847 0.05 -13.642 -1.425 -14.635 -1.538 -2.495 -0.283 -2.462 0.033 -2.58 -1.16 -0.06 -0.613 -0.066 -0.628 -0.241 -1.89 -0.813 -5.863 -0.749 -5.376 -1.807 -5.681 -0.716 -0.205 -1.29 0.219 -1.278 0.94 0.018 1.153 0.4 4.567 0.532 5.704 0.153 1.299 0.223 1.555 -0.549 1.44 -2.09 -0.312 -3.135 -0.368 -3.655 -0.42 -0.1 -0.01 -0.173 -0.069 -0.302 -0.079 -0.086 -0.007 -0.108 -0.022 -0.112 -0.141 -0.075 -2.254 -0.301 -9.115 -0.529 -10.327 -0.236 -1.248 -2.196 -1.033 -2.21 0.101 -0.099 7.871 0.125 9.878 -0.031 10.028 -0.1 0.1 -14.41401 -0.756 -15.40001 -2.088C8.16 22.205 7.04 22.067 6.249 22.654c-1.71 1.27 -1.747 3.959 -0.377 5.181 0.074 1.521 8.901 141.479 10.059 141.879 3.815 1.314 3.931 1.523 4.599 1.337 1.673 -0.463 7.141 -2.041 7.153 -2.044 0.033 0.102 0.026 0.502 0.015 1.191 -0.092 5.761 0.093 7.717 0.103 13.154 0.003 1.449 -0.088 1.847 0.398 2.241 0.246 0.199 0.568 0.27 0.877 0.204 0.412 -0.087 1.152 -0.041 1.599 -0.058 0.821 -0.036 0.701 -0.619 0.642 -1.555 -0.137 -2.21 -0.296 -14.2 -0.355 -15.25 -0.048 -0.873 -0.055 -0.877 0.048 -0.894 17.283 -4.963 18.209 -5.292 18.309 -5.226 0.1 0.068 2.034 16.413 2.045 16.513 0.562 4.906 0.563 5.326 1.424 5.045 2.674 -0.875 2.788 -0.729 2.617 -1.856 -0.012 -0.08 -2.056 -14.322 -2.476 -17.061 -0.523 -3.404 -0.536 -3.539 -0.34 -3.595 13.253 -3.786 13.024 -3.3 13.233 -3.934l-5.644 -53.897c-0.466 -0.797 -0.917 -1.588 -1.356 -2.36v0.004Zm-6.741 -72.354c-0.005 -0.228 0.188 -0.442 0.356 -0.462 0.428 -0.051 0.731 0.025 0.839 0.492 0.057 0.243 -0.017 1.502 -0.132 1.94 -0.076 0.279 -0.924 0.081 -1.149 -0.17 -0.236 -0.263 0.114 -0.525 0.085 -1.801l0.001 0.001ZM6.284 25.233c0.539 -3.339 3.025 -0.274 1.316 1.598 -0.773 0.844 -1.489 -0.528 -1.316 -1.598Zm10.349 143.588c-0.518 -2.883 -9.546 -136.334 -9.756 -140.522 0.258 -0.004 0.525 0.009 0.791 -0.07 0.522 4.865 11.541 136.858 11.817 141.543 -1.144 -0.317 -1.548 -0.518 -2.852 -0.951Z" stroke-width="1"></path><path id="vector_2" fill="#000000" d="M56.35 137.068c-0.0693 -0.305 -2.3186 -0.097 -6.748 0.625l-24.533 3.919c-0.386 -1.698 -0.692 -8.254 -0.956 -13.028 -0.06 -1.12 -0.194 -1.239 0.018 -1.295 0.116 -0.031 0.221 -0.075 0.31 -0.068 1.216 0.107 1.525 0.508 2.143 1.307 1.402 1.813 3.568 2.406 4.984 2.055 0.908 -0.226 1.66 -0.704 3.54 -1.659 0.279 -0.143 0.281 -0.145 0.478 0.125 0.818 1.109 2.422 1.024 3.104 -0.069 0.103 -0.165 0.103 -0.164 0.218 -0.092 1.362 0.841 1.262 2.008 1.771 3.753 0.282 0.968 1.444 1.884 3.134 1.773 1.872 -0.126 2.946 -0.903 4.405 -0.812 1.83 0.123 2.539 1.229 2.913 2.05 0.241 0.531 1.144 0.099 0.857 -0.469 -0.722 -1.422 -2.295 -2.812 -4.546 -2.442 -1.711 0.281 -2.455 1.011 -4.315 0.881 -1.667 -0.12 -1.757 -1.497 -2.032 -2.952 -0.438 -2.316 -2.056 -2.321 -2.11 -2.879 -0.125 -1.309 -1.382 -2.053 -2.618 -1.567 -1.358 0.536 -0.919 1.676 -1.281 1.855 -3.251 1.601 -3.293 1.754 -4.135 1.775 -1.422 0.042 -2.811 -0.736 -3.909 -2.173 -0.722 -0.944 -1.675 -1.333 -3.096 -1.256 -0.104 -1.471 -0.332 -3.283 -0.46 -4.245 -0.067 -0.504 -0.36 -0.566 -0.53 -0.564 -0.346 0.012 -0.278 0.628 -0.278 0.951h0.025c-0.045 0.466 1.221 18.343 1.24 18.509 0.141 1.25 0.551 1.536 0.897 1.536 1.355 0 31.658 -4.905 31.512 -5.545l-0.002 0.001Z" stroke-width="1"></path><path id="vector_3" fill="#000000" d="M45.676 92.357c-0.267 -3.951 -0.229 -4.186 -0.776 -4.265 -2.559 -0.37 -2.21 -0.175 -3.534 -0.241 -8.949 -0.442 -9.484 0.264 -9.492 -0.038 -0.12 -4.7 -0.518 -5.404 -0.861 -5.403 -1.854 0.005 -1.575 -0.049 -2.862 0.256 -0.173 0.041 -0.291 0.226 -0.256 0.404 0.159 0.837 2.497 0.024 2.735 0.189 0.083 0.149 0.187 3.438 0.191 3.538 0.325 8.905 0.707 8.75 0.274 8.642 -0.39 -0.103 -3.086 -0.409 -4.565 -0.362 -0.453 0.014 -0.844 0.025 -1.886 -0.087 -0.834 -0.089 -0.994 0.156 -1.028 -0.204 -0.196 -2.142 -0.414 -6.513 -1.015 -6.589 -0.604 -0.071 -0.182 2.027 0.598 12.876 0.067 0.933 0.549 0.933 0.676 0.629 0.253 -0.605 0.099 -0.676 0.059 -2.25 -0.08 -3.122 -0.272 -3.35 -0.209 -3.535 0.034 -0.007 0.541 0.049 0.576 0.053 1.165 0.126 3.347 -0.111 6.324 0.273 0.663 0.085 1.189 0.214 1.246 -0.341 0.201 -1.98 0.105 -6.14 0.022 -6.855 -0.007 -0.06 -0.023 -0.2 -0.008 -0.225 0.021 -0.017 0.134 -0.021 0.234 -0.024 4.033 -0.147 11.175 -0.058 12.233 -0.202 0.396 -0.057 -0.159 2.207 0.832 10.281 0.036 0.291 0.109 0.678 0.334 0.675 0.159 -0.002 0.267 -0.214 0.276 -0.357 0.146 -2.192 -0.115 -6.796 -0.118 -6.838Z" stroke-width="1"></path><path id="vector_4" fill="#000000" d="M43.591 58.8821c-0.054 -0.425 -0.657 -0.448 -0.708 0.018 -0.301 2.76 0.102 5.208 -0.264 5.218 -6.34 0.176 -10.508 0.015 -11.511 0.167 -0.458 0.068 -0.542 0.093 -0.579 -0.562 -0.24 -4.178 -0.385 -7.332 -0.963 -11.403 -0.077 -0.546 -0.394 -0.407 -0.771 -0.498 -0.867 -0.21 -2.029 0.186 -2.2 0.303 -0.473 0.326 0.168 0.687 0.733 0.635 1.574 -0.149 1.515 -0.408 1.532 -0.171 0.117 1.811 0.56 2.228 0.914 14.752 0.089 3.156 0.167 5.441 0.224 7.11 0.108 3.195 0.141 4.159 0.014 4.292 -0.027 0.028 -0.948 0.015 -0.986 0.015 -0.686 -0.003 -0.812 -0.005 -0.979 0.173 -0.337 0.362 0.101 0.649 0.643 0.644 0.897 -0.009 1.464 -0.036 1.792 -0.146 0.38 -0.127 0.454 -0.387 0.447 -0.739l-0.299 -13.389c0.214 -0.226 1.494 0.144 12.367 -0.276 0.641 -0.025 0.644 -0.129 0.699 -2.791 0.041 -1.958 0.03 -2.302 -0.103 -3.351l-0.002 -0.001Z" stroke-width="1"></path><path id="vector_5" fill="#000000" d="M24.9639 43.2558c-0.195 -0.981 -0.166 -0.967 -3.093 -1.306 -7.018 -0.808 -7.284 -0.832 -7.262 0.434 0.131 7.646 0.25 8.394 0.944 14.001 0.125 1.016 0.135 1.099 0.493 1.262 0.812 0.371 6.468 0.609 8.702 0.609 0.769 0 1.033 0.031 1.064 -0.292 0.239 -2.497 -0.306 -11.982 -0.848 -14.708Zm-9.512 -1.015c0.053 -0.054 7.931 0.601 8.101 0.604 0.674 0.014 0.524 0.012 0.807 3.472 0.415 5.094 0.425 7.905 0.816 11.053 0.035 0.285 0.626 0.006 -6.947 -0.443 -1.2953 -0.0767 -1.9433 -0.2167 -1.944 -0.42 0 -0.182 -0.961 -14.13 -0.833 -14.266Z" stroke-width="1"></path><path id="vector_6" fill="#000000" d="M27.689 86.0671c0.021 -0.771 -0.299 -14.3 -1.303 -14.81 -0.781 -0.396 -8.268 -0.911 -9.313 -0.639 -0.454 0.117 -0.523 0.247 -0.558 0.701 -0.063 0.83 0.383 15.238 1.52 15.475 1.818 0.377 7.029 0.341 8.872 0.313 0.562 -0.01 0.812 -0.189 0.783 -1.04h-0.001Zm-7.139 -14.595c0.356 0.031 1.021 0.088 5.079 0.262 0.186 0.008 0.3233 0.554 0.412 1.638 0.703 8.647 0.383 7.156 0.842 12.09 0.042 0.452 0.069 0.742 0.056 0.835 -0.844 -0.135 -1.28 -0.028 -7.802 -0.399 -0.175 -0.01 -0.364 -0.014 -0.604 -0.009 -0.162 0 -0.312 0.004 -0.341 -0.025 -0.996 -15.842 -1.038 -14.568 -0.576 -14.488 0.169 0.029 2.165 0.03 2.934 0.096Z" stroke-width="1"></path><path id="vector_7" fill="#000000" d="M30.43 115.99c-0.017 -1.189 -0.3 -13.678 -1.437 -13.775 -0.867 -0.075 -0.708 -0.157 -3.649 -0.033 -4.562 0.195 -4.032 0.176 -5.288 0.491 -0.334 0.083 -0.4176 2.135 -0.251 6.154 0.093 2.238 0.1 2.889 0.585 6.898 0.322 2.657 0.254 2.755 0.695 2.857 0.971 0.223 5.031 -0.515 7.229 -0.878 2.095 -0.347 2.138 -0.111 2.116 -1.714Zm-9.96 -11.878c-0.021 -1.295 0.012 -0.646 8.014 -1.302 0.4 0.221 0.695 5.338 0.871 8.395 0.293 5.093 0.486 5.336 0.405 5.436 -0.011 0.009 -0.067 0.016 -0.123 0.022 -2.419 0.296 -4.128 0.52 -5.376 0.682 -2.022 0.264 -2.859 0.373 -2.941 0.288l-0.85 -13.521Z" stroke-width="1"></path><path id="vector_8" fill="#000000" d="M51.034 113.231h-0.012c0.067 -0.942 -0.243 -6.477 -0.611 -10.047 -0.265 -2.57 -0.275 -2.671 -1.214 -2.77 -0.046 -0.005 -5.963 -0.212 -8.42 0.339 -0.588 0.132 -0.43 0.076 -0.289 6.682 0.392 4.321 0.21 2.905 0.539 5.466 0.448 3.494 0.327 3.641 0.967 3.641 1.407 0 7.075 -1.331 8.444 -1.669 0.624 -0.154 0.602 -0.334 0.597 -1.641l-0.001 -0.001Zm-9.839 -11.092c0 -0.336 -0.032 -0.602 0.042 -0.679 0.122 -0.126 0.295 -0.054 7.022 -0.215 0.307 -0.008 0.56 -0.072 0.893 -0.077 0.302 -0.005 0.33 0.325 0.514 3.374 0.077 1.28 0.479 7.956 0.693 9.22 0.042 0.248 0.026 0.378 -0.048 0.391 -3.516 0.611 -8.094 1.451 -8.094 1.451 -0.232 0.053 -0.072 -1.014 -1.022 -13.465Z" stroke-width="1"></path><path id="vector_9" fill="#000000" d="M46.4589 42.5871c-0.858 -0.378 -7.414 -1.733 -8.474 -1.596 -0.707 0.086 -0.869 0.012 -0.867 0.884 0.011 6.202 0.412 10.274 1.055 14.835 0.088 0.629 2.326 0.718 5.477 0.778 3.721 0.071 3.741 0.106 3.813 -0.419 0.126 -0.909 -0.062 -14.069 -1.004 -14.482Zm-0.153 14.148c-2.51 -0.243 -7.509 -0.296 -7.53 -0.59 -0.734 -10.305 -0.938 -13.995 -0.788 -14.353 0.21 0.05 2.57 0.32 4.573 0.72 1.221 0.244 1.749 0.293 2.416 0.342 1.479 0.108 1.03 0.073 1.446 5.061 0.151 1.825 0.078 5.313 0.421 8.69 0.021 0.203 0.038 0.186 -0.538 0.13Z" stroke-width="1"></path><path id="vector_10" fill="#000000" d="M38.268 144.569c-2.318 0.161 -8.921 1.202 -11.613 1.619 -1.204 0.186 -1.753 0.271 -1.686 0.767 0.074 0.539 1.03 0.325 1.593 0.244 7.473 -1.084 10.473 -1.572 11.685 -1.834 1.429 -0.309 1.123 -0.873 0.021 -0.796Z" stroke-width="1"></path><path id="vector_11" fill="#000000" d="M35.029 148.528c-1.51 0.01 -9.807 0.781 -9.915 1.694 -0.029 0.245 0.355 0.372 0.693 0.455l0.024 0.003h0.015c4.04 -0.619 4.568 -0.298 9.479 -1.58 0.478 -0.124 0.42 -0.573 -0.296 -0.572Z" stroke-width="1"></path><g id="group"><path id="vector_12" fill="#000000" d="m43.4941 45.7159 -3.456 -0.287c-0.662 -0.055 -0.573 -1.058 0.083 -0.996l3.414 0.285c0.632 0.053 0.594 0.998 -0.041 0.998Z" stroke-width="1"></path><path id="vector_13" fill="#000000" d="m42.1601 47.511 -1.975 -0.144c-0.66 -0.048 -0.587 -1.047 0.073 -0.997l1.938 0.142c0.636 0.046 0.602 0.999 -0.036 0.999Z" stroke-width="1"></path><path id="vector_14" fill="#000000" d="m21.1441 45.7737 -3.456 -0.286c-0.663 -0.054 -0.572 -1.06 0.083 -0.996l3.414 0.284c0.632 0.052 0.594 0.998 -0.041 0.998Z" stroke-width="1"></path><path id="vector_15" fill="#000000" d="m22.5811 51.1799 -4.68 -0.388c-0.663 -0.054 -0.572 -1.06 0.083 -0.996l4.638 0.386c0.632 0.052 0.594 0.998 -0.041 0.998Z" stroke-width="1"></path><path id="vector_16" fill="#000000" d="m24.152 74.978 -4.679 -0.388c-0.66 -0.054 -0.576 -1.057 0.083 -0.996l4.637 0.386c0.632 0.052 0.594 0.998 -0.041 0.998Z" stroke-width="1"></path><path id="vector_17" fill="#000000" d="m24.293 80.3008 -4.68 -0.389c-0.659 -0.055 -0.576 -1.057 0.083 -0.996l4.638 0.387c0.632 0.053 0.594 0.998 -0.041 0.998Z" stroke-width="1"></path><path id="vector_18" fill="#000000" d="m22.995 82.5607 -3.348 -0.277c-0.66 -0.054 -0.576 -1.056 0.083 -0.996l3.306 0.275c0.632 0.052 0.594 0.998 -0.041 0.998Z" stroke-width="1"></path><path id="vector_19" fill="#000000" d="m21.631 77.1928 -2.143 -0.177c-0.275 -0.023 -0.479 -0.265 -0.457 -0.54 0.022 -0.275 0.26 -0.489 0.54 -0.457l2.101 0.175c0.632 0.053 0.594 0.999 -0.041 0.999Z" stroke-width="1"></path><path id="vector_20" fill="#000000" d="m20.932 53.1589 -3.106 -0.257c-0.663 -0.055 -0.572 -1.0611 0.083 -0.9961l3.064 0.2551c0.632 0.053 0.594 0.998 -0.041 0.998Z" stroke-width="1"></path><path id="vector_21" fill="#000000" d="m19.8101 47.5698 -1.975 -0.144c-0.664 -0.048 -0.582 -1.056 0.073 -0.997l1.938 0.142c0.636 0.046 0.602 0.999 -0.036 0.999Z" stroke-width="1"></path><path id="vector_22" fill="#000000" d="m43.813 50.748 -3.456 -0.287c-0.668 -0.056 -0.566 -1.067 0.083 -0.996l3.414 0.285c0.632 0.053 0.594 0.998 -0.041 0.998Z" stroke-width="1"></path><path id="vector_23" fill="#000000" d="m42.4801 52.5432 -1.975 -0.144c-0.669 -0.049 -0.577 -1.059 0.073 -0.997l1.938 0.142c0.636 0.046 0.602 0.999 -0.036 0.999Z" stroke-width="1"></path><path id="vector_24" fill="#000000" d="M22.6981 106.407c-0.621 0 -0.68 -0.915 -0.064 -0.996l3.511 -0.458c0.27 -0.039 0.524 0.157 0.56 0.431 0.036 0.273 -0.157 0.524 -0.431 0.56l-3.576 0.463Z" stroke-width="1"></path><path id="vector_25" fill="#000000" d="M23.003 111.384c-0.621 0 -0.68 -0.915 -0.064 -0.996l4.077 -0.532c0.272 -0.038 0.524 0.157 0.56 0.431 0.036 0.273 -0.157 0.524 -0.431 0.56l-4.142 0.537Z" stroke-width="1"></path><path id="vector_26" fill="#000000" d="M22.85 108.605c-0.621 0 -0.679 -0.916 -0.064 -0.996l1.903 -0.248c0.275 -0.038 0.524 0.157 0.56 0.431 0.036 0.273 -0.157 0.524 -0.431 0.56 -0.048 0.006 -1.919 0.252 -1.968 0.252v0.001Z" stroke-width="1"></path><path id="vector_27" fill="#000000" d="M22.9621 113.555c-0.621 0 -0.68 -0.915 -0.064 -0.996l2.837 -0.37c0.269 -0.038 0.524 0.157 0.56 0.431 0.036 0.273 -0.157 0.524 -0.431 0.56 -0.048 0.006 -2.854 0.375 -2.902 0.375Z" stroke-width="1"></path><path id="vector_28" fill="#000000" d="M43.4071 104.51c-0.628 0 -0.677 -0.931 -0.053 -0.997l3.669 -0.394c0.666 -0.064 0.759 0.925 0.106 0.994l-3.723 0.397h0.001Z" stroke-width="1"></path><path id="vector_29" fill="#000000" d="M43.4071 109.385c-0.628 0 -0.677 -0.931 -0.053 -0.997l4.651 -0.5c0.666 -0.063 0.759 0.925 0.106 0.994l-4.705 0.502 0.001 0.001Z" stroke-width="1"></path><path id="vector_30" fill="#000000" d="M43.4071 106.701c-0.628 0 -0.677 -0.931 -0.053 -0.997l2.229 -0.239c0.662 -0.07 0.762 0.924 0.106 0.994 -0.041 0.004 -2.241 0.242 -2.282 0.242Z" stroke-width="1"></path><path id="vector_31" fill="#000000" d="M43.4071 111.75c-0.628 0 -0.677 -0.931 -0.053 -0.997l3.274 -0.352c0.658 -0.072 0.765 0.924 0.106 0.994l-3.328 0.354 0.001 0.001Z" stroke-width="1"></path></g></g><g id="person 2"><path id="vector_32" fill="#000000" d="M186.184 144.914c3.433 -5.988 5.813 -10.395 7.611 -17.91 1.503 -6.279 1.994 -15.642 -0.118 -21.386 -0.478 -1.299 -1.131 -3.078 -2.152 -4.277 -0.059 -0.069 -0.036 -0.154 0.068 -0.255 1.272 -1.2361 2.557 -5.188 1.826 -8.967 -1.022 -5.276 -6.798 -6.839 -7.414 -10.995 -0.176 -1.184 -0.012 -1.6331 1.449 -6.1341 1.066 -3.282 1.388 -4.2719 1.57 -9.2719 0.287 -7.873 -8.29 -16.0931 -19.396 -14.1891 -1.962 0.338 -0.854 -0.206 -6.942 1.812 -0.299 0.1 -0.429 0.0471 -0.776 -0.0919 -4.826 -1.935 -9.24 0.7899 -10.112 4.6639 -0.637 2.829 0.136 4.2711 0.598 5.1331 0.625 1.168 0.017 0.1309 -0.235 4.0849 -0.069 1.052 -0.193 1.684 0.356 4.5641 0.439 2.304 -1.845 4.173 -0.121 5.096 0.141 0.076 0.375 0.217 0.595 0.262 0.473 0.098 0.267 0.4409 0.396 1.003 0.327 1.416 0.759 3.689 1.272 4.344 0.036 0.048 0.071 0.0659 -0.095 0.1899 -2.387 1.783 -2.915 3.7191 -3.465 3.8211 -2.684 0.497 -2.259 2.052 -3.846 3.962 -2.025 2.439 -3.294 8.95 -3.248 11.585 0.012 0.681 0.013 0.694 -0.766 1.025 -1.263 0.538 -1.053 1.835 -0.85 3.09 0.334 2.064 0.498 2.134 0.346 2.233 -1.081 0.706 -0.718 1.127 -0.85 1.673 -0.694 2.869 -0.383 11.076 -0.281 13.924 0.267 7.481 1.519 9.9 0.984 10.571 -0.125 0.158 -3.453 12.951 -4.103 22.29 -0.339 4.869 0.548 5.579 3.164 6.916 0.834 0.427 -0.395 3.046 0.91 16.475 0.284 2.923 0.331 3.178 0.42 3.52 0.117 0.446 0.629 0.589 0.86 0.027 0.442 -1.073 -1.943 -12.95 -0.16 -32.565 0.182 -0.027 5.554 0.952 6.79 1.001 0.055 0.002 0.123 0.005 0.136 0.013 0.035 0.052 -0.103 0.95 -0.186 1.69 -0.628 5.598 -0.864 7.276 -0.449 9.49 0.737 3.938 1.734 4.753 6.274 5.129 11.386 0.943 26.392 -0.474 27.662 -0.366 1.074 11.887 0.424 14.175 0.933 14.553 0.23 0.169 0.804 -0.034 0.804 -0.925 -0.003 -2.334 -0.011 -9.436 -0.68 -13.219 -0.201 -1.137 0.511 -0.275 3.375 -1.063 0.33 -0.091 0.522 -0.3 0.767 -0.444 1.871 -1.081 -3.832 -18.234 -4.391 -19.713 -0.157 -0.415 0.15 -0.065 1.471 -2.37l-0.001 0.001Zm-35.143 3.321c-0.156 0.081 -4.93 -0.555 -5.505 -0.63 -1.365 -0.178 -1.364 -0.188 -1.346 -0.355 0.1 -0.931 0.881 -6.397 1.144 -7.429 0.908 1.121 1.612 1.982 3.056 2.866 1.271 0.779 2.139 1.059 2.657 1.227 0.511 0.165 0.539 0.195 0.497 0.33 -0.417 3.29 -0.518 3.89 -0.501 3.991h-0.002Zm-5.555 0.398 0.17 0.027c1.34 0.216 1.952 0.314 2.108 1.185 0.035 0.192 -0.2 0.569 -0.392 0.631 -0.2 0.065 -0.413 0.092 -0.547 0.12 -3.701 -0.266 -2.933 -2.222 -1.339 -1.963Zm5.76 8.238c0.707 -6.442 1.169 -12.493 1.25 -12.593 0.1 0 3.803 1.005 8.643 -0.432 20.038 -5.942 31.783 -35.15 28.729 -32.937 -0.906 0.662 -6.798 19.231 -21.406 28.068 -4.567 2.763 -8.214 4.713 -13.546 4.458 -6.599 -0.3 -10.704 -4.727 -11.56 -12.464 -0.436 -3.853 -1.019 -7.878 -0.795 -15.224 0.072 -2.356 -0.014 -2.861 0.231 -6.129 0.031 -0.417 0.37 -0.566 2.329 -1.077 7.579 -1.976 7.972 -1.542 7.991 -1.483 0.743 2.188 2.353 8.511 3.828 11.216 0.465 0.854 1.244 2.285 4.554 10.974 0.201 0.538 0.564 0.172 0.382 -0.693 -0.571 -2.731 -1.508 -4.982 -2.193 -6.626 -0.485 -1.164 -0.868 -2.083 -0.72 -2.319 3.377 -5.396 4.596 -7.867 8.724 -12.131 3.621 -3.74 6.083 -6.102 10.868 -7.477 3.599 -1.0351 5.283 -0.8271 8.267 -0.1941 1.536 0.3301 2.749 0.5901 4.086 2.3131 1.314 1.692 2.899 6.06 3.04 12.798 0.106 5.041 -0.593 12.907 -4.522 21.76 -1.593 3.591 -2.836 5.477 -5.55 10.171 -0.156 0.27 0.146 1.276 0.905 3.73 1.036 3.35 2.771 8.955 3.713 15.125 0.148 0.973 -0.489 0.86 -1.952 0.988 -10.779 0.939 -16.568 0.876 -20.625 0.947 -8.689 0.157 -14.002 0.068 -14.485 -2.426 -0.704 -3.634 -0.737 -3.318 -0.187 -8.344l0.001 0.001Zm2.114 -86.1021c-0.446 -4.815 -0.23 -8.103 3.135 -11.575 1.674 -1.727 2.317 -2.121 2.424 -2.0909 0.199 0.169 -0.2 0.4229 -0.594 1.396 -1.586 3.927 0.301 5.1079 2.69 6.6029 1.906 1.192 2.545 1.623 3.715 4.262 0.646 1.457 1.255 2.8331 3.307 3.4541 0.012 0.003 0.025 0.0059 0.038 0.0039 1.315 -0.116 0.134 -1.0409 2.333 -2.224 0.765 -0.4099 1.69 -0.128 1.874 0.893 0.319 1.773 -0.832 2.9921 -1.882 4.5371 -2.289 3.3659 0.498 4.2119 -1.191 8.6269 -0.343 0.896 -2.729 5.5811 -3.322 6.374 -0.043 -0.5929 -0.228 -1.152 -0.406 -1.6949 -0.626 -1.898 -0.777 -3.448 -2.759 -3.797 -1.782 -0.313 -4.226 1.2059 -5.813 -0.9481 -0.384 -0.52 -0.606 -0.3809 -0.246 -1.086 0.177 -0.348 0 -0.651 -0.056 -0.917 -0.072 -0.35 -0.598 -0.5389 -0.953 -0.4499 -0.16 0.042 -0.188 0.0059 -0.231 -0.1461 -0.849 -3.03 -0.851 -3.047 -0.972 -3.93 -0.276 -2.043 -0.11 -1.555 -1.527 -2.168 -0.177 -0.076 -0.258 -0.11 0.409 -1.9479 0.256 -0.705 0.155 -1.7951 0.027 -3.1751Zm0.486 18.3261s-0.012 -0.0361 -0.004 -0.1461c0.11 -0.383 0.233 -0.917 0.31 -0.948 0.137 0 0.836 0.9031 0.896 1.6631 -0.155 -0.088 -0.433 -0.439 -1.202 -0.569Zm0.735 19.598c-0.282 -0.963 6.886 -8.368 7.558 -9.068 -0.23 1.427 -1.869 6.219 0.723 11.705 0.168 0.357 0.059 0.184 -1.826 3.164 -0.742 1.172 -2.521 4.048 -2.684 4.277 -1.011 -1.3 -3.103 -7.79 -3.771 -10.078Zm6.794 -9.588c-5.793 5.554 -6.932 7.876 -7.251 8.269 -0.227 -0.533 -0.333 -1.19 -1.009 -1.19 -0.196 0 -0.215 0.024 -0.214 -0.101 0.004 -0.528 -0.076 -0.545 0.124 -0.77 3.365 -3.776 9.343 -8.646 10.314 -9.428 -0.075 0.198 -0.267 0.476 -0.735 1.807 -0.125 0.354 -0.448 0.664 -1.229 1.413Zm-9.975 -3.57c2.189 -0.676 1.133 -0.953 3.396 -1.29 1.081 -0.161 2.541 -0.3811 3.511 -0.9761 1.035 -0.635 0.623 -2.092 -0.452 -2.154 -0.648 -0.044 -3.433 0.3011 -3.955 -0.2539 -0.124 -0.133 -0.023 -0.2071 -0.122 -0.3971 -0.053 -0.103 -0.042 -0.1579 -0.016 -0.4409 0.833 0.335 0.838 0.587 1.407 0.56 1.228 -0.048 0.804 -2.0031 -0.005 -2.9281 -0.295 -0.338 -0.641 -0.4019 -0.682 -0.4529 0 0 0 -0.0261 0.052 -0.1041 0.641 -0.948 1.379 -2.097 1.509 -2.232 1.237 2.164 2.736 2.215 5.141 1.86 2.483 -0.367 2.359 -0.2529 3.486 3.5311 0.362 1.216 0.385 1.2279 0.375 1.5509 -0.017 0.513 0.383 0.1711 -0.334 1.444 -0.17 0.3041 -0.404 0.719 -0.693 1.278 -0.362 0.702 -5.728 3.3311 -11.331 9.8681 -0.09 -0.606 -0.12 -1.132 -0.521 -2.43 -0.442 -1.428 -1.337 -0.856 -1.352 -1.088 -0.058 -1.0341 -0.395 -2.051 -0.536 -4.216 -0.035 -0.538 0.3 -0.875 1.12 -1.128l0.002 -0.001Zm2.659 -9.646c-1.084 1.458 -1.197 3.056 -1.136 4.799 0.045 1.306 1.269 1.3499 2.405 1.4949 0.508 0 1.549 -0.333 2.465 -0.153 0.724 0.1431 -0.724 1.0131 -3.965 1.3671 -0.399 0.044 -0.712 0.2079 -1.336 0.5369 -3.136 1.648 -3.593 1.1981 -2.823 5.5461 0.251 1.41 0.158 1.003 0.279 1.456 -0.083 0.06 -0.188 0.101 -0.281 0.11 -6.024 0.621 -4.864 3.341 -4.222 -2.747 0.147 -1.4 0.75 -3.34 0.916 -4.065 0.606 -2.6701 2.125 -3.373 2.954 -5.543 0.302 -0.788 1.253 -1.32 1.824 -1.401 0.873 -0.124 1.06 -0.992 2.169 -2.3031 0.822 -0.971 2.015 -1.8379 2.304 -1.8379 0.449 0 -1.284 2.3799 -1.552 2.7409l-0.001 -0.0009Zm-2.465 17.578c0.092 0.478 0.421 2.164 0.545 2.69 -0.101 0.024 -4.514 0.53 -8.029 1.667 -0.211 0.068 -0.378 0.125 -0.407 0.121 -0.009 -0.013 -0.02 -0.068 -0.025 -0.098 -0.431 -2.26 -0.341 -1.247 -0.518 -3.239 0 -0.43 0.178 -0.725 0.535 -0.884 1.768 -0.788 4.304 -1.531 6.959 -2.04 0.384 -0.074 0.697 0.521 0.939 1.784l0.001 -0.001Zm-9.576 59.11c0.002 0.101 0.12 0.228 -1.484 -0.867 -1.028 -0.702 -0.966 -1.859 -1.095 -3.162 0.764 -8.293 0.762 -8.091 1.568 -12.296 0.264 -1.379 1.801 -9.298 2.301 -10.404 0.834 2.448 1.365 2.473 1.252 2.954 -2.166 9.224 -2.396 18.132 -2.506 22.413 -0.013 0.493 -0.037 1.331 -0.036 1.363v-0.001Z" stroke-width="1"></path><path id="vector_33" fill="#000000" d="M151.558 171.97c-0.288 -2.063 -0.567 -3.081 -0.838 -3.053 -1.092 0.117 1.189 14.34 1.834 15.103 0.089 0.105 0.178 0.158 0.266 0.158 0.277 0 0.365 -0.473 0.412 -0.747 0.058 -0.333 -0.073 0.005 -1.674 -11.461Z" stroke-width="1"></path><path id="vector_34" fill="#000000" d="M155.416 65.9881c0.913 -0.069 0.875 -0.084 1.255 0.113 0.129 0.067 1.028 0.512 1.13 0.512 0.122 -0.007 0.259 -0.004 0.331 -0.021 0.228 -0.054 0.396 -0.399 0.24 -0.572 -2.045 -2.276 -3.69 -1.006 -3.481 -0.307 0.027 0.091 0.138 0.304 0.524 0.275h0.001Z" stroke-width="1"></path><path id="vector_35" fill="#000000" d="M156.016 78.8209c-0.287 0.447 0.065 0.771 0.331 0.771 0.395 0 0.645 -0.608 1.822 -0.795 0.06 -0.009 0.134 -0.014 0.216 -0.02 0.37 -0.025 0.99 -0.067 1.008 -0.66 0.005 -0.164 -0.083 -0.303 -0.249 -0.391 -0.849 -0.452 -2.669 0.381 -3.128 1.095Z" stroke-width="1"></path><path id="vector_36" fill="#000000" d="M155.819 68.4891c-0.247 -0.018 -0.476 0.146 -0.602 0.419 -0.24 0.52 0.044 1.635 0.624 1.556 0.786 -0.094 0.744 -1.928 -0.022 -1.975Z" stroke-width="1"></path><path id="vector_37" fill="#000000" d="M144.958 105.972c0.423 0.007 0.637 -0.321 0.626 -0.733 -0.01 -0.388 -0.153 -0.515 -0.586 -0.515 -0.944 0 -0.852 1.235 -0.04 1.248Z" stroke-width="1"></path></g><g id="person 1"><path id="vector_38" fill="#000000" d="M95.989 183.872c-1.244 -6.255 -2.661 -16.61 -3.062 -26.378 -0.083 -2.032 -0.108 -2.646 -0.415 -2.753 -0.183 -0.066 -0.356 0.096 -0.5 0.261 -0.818 0.938 1.178 20.235 2.755 28.508 0.32 1.674 1.309 1.235 1.222 0.363v-0.001Z" stroke-width="1"></path><path id="vector_39" fill="#000000" d="M100.949 59.0652c-0.9741 1.201 -3.092 0.177 -3.34 0.883 -0.123 0.35 0.1829 0.58 0.5489 0.677 1.264 0.336 1.8301 0.017 2.6151 -0.3 0.007 0.069 0.013 0.135 -0.002 0.186 -0.269 0.907 -0.612 1.202 -0.944 1.488 -0.279 0.24 -0.6771 0.566 -0.4751 0.853 0.296 0.425 0.8751 -0.026 1.3131 -0.322 2.089 -1.41 1.118 -4.498 0.283 -3.464l0.001 -0.001Z" stroke-width="1"></path><path id="vector_40" fill="#000000" d="M100.117 56.3371c-0.183 -0.667 -1.943 0.679 -2.426 -0.668 -0.174 -0.486 0.731 -2.061 1.138 -4.034 0.081 -0.395 -0.247 -0.679 -0.646 -0.311 -0.185 0.171 -1.418 3.617 -1.431 3.651 -0.376 1.052 0.275 2.356 1.705 2.328 0.677 -0.023 1.842 -0.314 1.661 -0.967l-0.001 0.001Z" stroke-width="1"></path><path id="vector_41" fill="#000000" d="M105.417 46.2488c-0.72 -1.3 -1.656 -1.442 -2.164 -1.405 -0.739 0.05 -1.432 0.541 -1.686 1.193 -0.185 0.479 0.291 0.853 0.685 0.577 1.375 -0.969 1.217 -0.612 2.397 0.337 0.549 0.44 1.129 -0.049 0.768 -0.702Z" stroke-width="1"></path><path id="vector_42" fill="#000000" d="M97.317 48.0282c-0.336 -0.469 -1.151 -0.616 -1.595 -0.565 -1.066 0.119 -1.227 1.372 -0.499 1.341 0.068 -0.003 0.259 -0.078 0.767 -0.234 0.722 0.101 0.827 0.118 0.983 0.121 0.366 -0.004 0.554 -0.37 0.344 -0.663Z" stroke-width="1"></path><path id="vector_43" fill="#000000" d="M102.749 51.4971c-0.965 -0.79 -1.586 1.72 -0.416 1.72 0.785 0 1.157 -1.115 0.416 -1.72Z" stroke-width="1"></path><path id="vector_44" fill="#000000" d="M96.457 51.5882c-0.104 -0.47 -0.613 -0.635 -0.981 -0.42 -0.488 0.285 -0.603 1.082 -0.218 1.493 0.639 0.681 1.388 -0.213 1.199 -1.073Z" stroke-width="1"></path><path id="vector_45" fill="#000000" d="M59.899 85.657c-1.098 -1.544 -1.534 -1.627 -2.687 -4.864 -0.635 -1.785 -0.472 -1.213 -1.715 -3.237 -0.583 -0.952 -1.088 -1.773 -1.662 -2.21 -1.021 -0.778 -2.218 -0.803 -3.765 -0.078 -0.531 0.25 -0.521 0.779 -0.515 1.129 0.001 0.101 0.004 0.253 0.007 0.273 0 0 -0.027 0.005 -0.094 -0.013 -2.104 -0.559 -8.663 -1.521 -10.401 -1.452 -0.709 0.027 -1.099 0.338 -1.261 1.008 -0.351 1.453 0.271 1.58 10.727 3.447 -0.315 0.908 0.005 1.49 0.609 2.04 0.108 0.099 0.116 0.065 0.073 0.142 -0.469 0.852 0.093 1.867 0.933 2.297l-0.005 0.015c-0.086 0.167 -0.247 0.478 0.078 1.006 0.744 1.207 2.538 1.714 3.108 1.467 0.127 0.109 0.268 0.184 0.404 0.256 0.529 0.283 0.156 0.077 1.788 1.841 0.874 0.945 0.69 0.942 1.253 0.285 0.068 -0.08 0.063 -0.198 -0.011 -0.272 -0.076 -0.075 -0.261 -0.312 -0.517 -0.641 -0.967 -1.241 -1.353 -1.845 -2.128 -2.167 -0.11 -0.0454 -0.167 -0.107 -0.171 -0.185 -0.011 -0.201 0.154 -0.52 0.094 -1.034 -0.153 -1.304 -0.61 -1.185 -1.247 -1.828 -0.03 -0.125 0.356 -0.615 0.528 -1.072 0.125 0.43 0.336 0.99 1.058 1.646 0.145 0.131 0.646 0.449 0.891 0.257 0.45 -0.346 -0.892 -1.391 -1.222 -2.812 -0.221 -0.956 -1.653 -1.186 -2.403 -1.48 -0.535 -0.21 -0.05 -0.988 1.519 -0.547 0.776 0.218 2.235 0.927 2.873 1.459 0.917 1.912 0.006 1.954 2.696 5.527 0.027 0.037 0.129 0.146 0.225 0.248 0.327 0.348 0.234 0.367 0.904 -0.18 0.082 -0.066 0.098 -0.185 0.037 -0.271h-0.001Zm-8.034 -8.779c-0.434 0.009 -1.199 -0.135 -1.26 -0.518 -0.044 -0.276 0.403 -0.39 0.554 -0.438 0.738 -0.235 1.321 -0.42 1.804 -0.044 0.676 0.524 1.391 1.425 2.129 2.681 -0.522 -0.229 -1.024 -0.383 -1.521 -0.653 -0.299 -0.422 -0.768 -1.048 -1.706 -1.028Zm-0.845 7.721c-0.134 -0.407 0.197 -1.023 -0.442 -1.338 -0.45 -0.221 -0.566 -0.427 -0.601 -0.63 0.018 -0.403 1.093 -0.723 -0.248 -1.678 -0.391 -0.277 -0.571 -1.015 -0.155 -1.065 0.91 -0.106 2.119 0.887 2.633 1.179 0.145 0.083 0.209 0.783 0.01 1.009 -0.497 0.566 -0.628 0.789 -0.585 0.993 0.046 0.217 0.26 0.268 0.442 0.366 0.779 0.424 0.986 0.373 1.194 1.455 0.273 1.42 -2.086 0.198 -2.248 -0.291Zm-3.037 -7.312c2.592 0.428 2.473 0.223 2.533 0.864 0.067 0.729 -0.032 0.903 -0.078 0.944 -0.052 0.046 -0.196 0.017 -0.336 -0.011 -11.863 -2.366 -11.519 -2.292 -11.376 -2.683 0.228 -0.623 0.702 -0.527 9.257 0.886Z" stroke-width="1"></path><path id="vector_46" fill="#000000" d="M137.428 96.885c-0.82 -12.514 -7.093 -20.911 -19.179 -25.672 -0.161 -0.064 -0.406 -0.153 -0.579 -0.168 -0.136 1.089 -0.266 2.13 -0.907 3.15 -0.804 1.276 -1.928 2.361 -3.341 3.225 -0.085 0.052 -0.167 0.102 -0.217 0.137 0.035 0.041 0.088 0.096 0.141 0.15 5.296 5.516 2.751 10.685 -12.954 26.358 -0.125 0.125 -0.276 0.2 -0.393 0.282 -0.1 0.068 -0.228 0.034 -0.285 -0.059 -0.222 -0.361 0.442 -1.155 3.635 -4.693 4.309 -4.775 11.52 -12.768 11.345 -16.377 -0.112 -2.31 -0.625 -2.909 -1.647 -4.101 -1.66 -1.935 -1.531 -1.708 -0.017 -2.732 2.364 -1.602 3.539 -4.036 3.498 -5.807 -0.73 -2.532 -3.606 -3.769 -6.068 -4.082 -0.116 -0.015 -0.011 -0.389 0.016 -0.937 0.129 -2.64 -0.185 -0.752 0.226 -5.566 0.008 -0.095 0.012 -0.121 1.303 -0.085 2.234 0.055 4.666 -2.955 3.08 -5.551 -0.373 -0.61 -0.909 -0.735 -1.587 -0.895 -0.161 -0.038 -0.128 -0.034 -0.238 -0.045 0.034 -0.202 0.474 -1.111 1.456 -3.285 0.339 -0.752 1.036 -2.708 0.195 -4.61 -0.278 -0.627 0.853 -1.388 0.396 -2.792 -0.288 -0.881 -0.459 -1.004 -0.348 -1.178 0.137 -0.214 0.454 -1.536 0.109 -2.371 -0.154 -0.374 -0.417 -0.604 -0.78 -0.686 -0.33 -0.072 -0.553 0.129 -0.761 0.212 -0.05 -0.115 -0.098 -0.771 -0.392 -1.252 -0.561 -0.912 -1.485 -0.182 -1.617 -0.182 -0.104 -0.106 -0.058 -1.497 -0.954 -1.896 -0.623 -0.276 -1.118 0.179 -1.578 0.618l-0.084 0.079c-0.184 -0.513 -0.426 -1.203 -1.014 -1.277 -0.512 -0.062 -1.055 0.421 -1.471 0.83 -0.041 -0.103 -0.082 -0.206 -0.116 -0.31 -0.239 -0.752 -0.921 -1.087 -1.667 -0.686 -0.368 0.198 -0.698 0.52 -0.964 0.722 -0.147 -0.375 -0.186 -0.764 -0.673 -0.911 -0.528 -0.157 -0.902 0.254 -1.292 0.644 -0.233 0.233 -0.227 0.216 -0.375 0.393 -0.018 0.021 -0.038 0.045 -0.057 0.066 -0.096 -0.345 -0.305 -0.603 -0.577 -0.711 -0.8 -0.313 -1.408 0.732 -1.867 1.402 -0.016 -0.029 -0.034 -0.067 -0.049 -0.098 -0.273 -0.564 -0.619 -0.766 -1.208 -0.44 -1.478 0.813 -2.101 3.406 -1.211 5.042 0.055 0.103 -0.005 0.195 -0.305 0.47 -2.999 2.756 -5.721 12.215 -4.395 18.113 0.554 2.465 1.879 4.285 3.858 5.74 -0.246 0.071 -6.453 0.692 -7.061 4.69 -0.4 2.62 3.401 3.846 3.18 4.726 -0.172 0.674 -1.066 0.151 -2.609 1.046 -2.893 1.68 -3.04 3.639 -2.024 9.069 2.231 11.942 3.245 13.321 3.464 14.863 0.184 1.282 -0.745 1.229 -1.085 0.257 -1.225 -3.504 -2.048 -7.502 -3.517 -14.85 -1.743 -8.727 1.147 -9.867 3.257 -10.7 0.17 -0.067 0.335 -0.132 0.491 -0.199 -2.357 -1.435 -2.857 -3.761 -1.852 -5.63 0.094 -0.175 0.193 -0.372 0.285 -0.568 -4.953 -0.19 -12.18 3.685 -15.635 9.443 -3.479 5.8 -3.933 14.531 -4.446 15.13 -5.149 -4.921 -5.132 -4.934 -5.466 -4.668 -0.238 0.19 -0.201 -0.042 -1.439 -1.28 -0.704 -0.704 -1.092 -1.092 -1.593 -0.709 -0.472 0.36 -4.277 4.387 -4.711 4.859 -0.451 0.49 -0.491 1.005 -0.119 1.532 1.05 1.48 1.536 1.427 1.391 1.575 -1.533 1.554 -1.586 0.531 2.591 7.875 3.585 6.306 8.04 14.142 14.626 14.634 -2.754 5 -4.711 9.391 -5.322 14.5 -0.372 3.111 3.579 3.699 3.418 4.386 -3.021 12.89 3.7 46.543 4.104 47.637 0.042 0.111 0.155 0.407 0.492 0.339 0.712 -0.139 0.01 -1.492 -1.665 -12.431 -3.304 -21.559 -2.226 -27.939 -2.201 -34.902 0 -0.183 0.001 -0.371 0.021 -0.401 0.165 -0.024 7.735 4.621 15.875 6.463 1.308 0.297 1.773 -0.742 2.304 -1.945 1.566 -3.549 3.015 -7.066 4.076 -10.798 0.518 1.823 3.573 11.156 5.238 12.457 2.225 1.74 18.477 -3.929 18.608 -3.855 0.038 0.021 0.09 0.362 0.096 0.405 0.092 0.633 0.299 0.588 0.178 0.956 -0.199 0.588 -0.466 2.379 0.107 2.924 0.111 0.107 0.143 0.232 0.093 0.371 -0.301 0.826 -0.591 1.561 -1.101 2.192 -2.788 3.452 -1.76 5.172 -0.721 4.784 0.425 -0.159 0.56 -0.356 0.855 -0.789 0.297 -0.435 0.877 -1.236 1.241 -1.581 -0.016 0.788 -0.929 4.391 -0.588 5.802 0.214 0.889 0.901 0.93 1.334 0.292 0.922 -1.36 0.898 -1.784 1.032 -2.166 0.164 0.421 0.14 1.26 0.42 1.696 0.404 0.631 0.856 0.633 1.285 0.007 0.667 -0.972 0.448 -2.031 0.604 -2.194 0.309 -0.327 0.524 -0.758 0.688 -1.04 0 9.124 -1.898 23.545 -3.24 32.57 -0.205 1.416 0.596 1.78 0.898 0.403 0.762 -3.374 3.935 -28.285 3.252 -33.18 0.242 -0.04 0.463 -0.013 0.759 -0.476 0.669 -1.053 0.082 -2.539 -0.35 -3.629 -0.143 -0.365 -0.152 -0.927 -0.025 -1.686 0.089 -0.534 0.03 -0.536 0.456 -0.559 1.553 -0.084 1.636 -0.526 1.814 -1.915 0.004 -0.033 0.08 -0.657 0.1 -0.683 0.02 -0.013 0.117 -0.01 0.219 -0.01 0.137 0.002 0.325 0.002 0.6 -0.013 0.685 -0.038 0.659 -0.028 1.366 -2.414 3.559 -12.041 8.722 -27.6 7.857 -40.793l0.004 0.003Zm-80.706 -3.806c-0.137 0.123 -0.01 0.197 -1.409 -1.564 -0.222 -0.278 -0.078 -0.125 1.476 -1.868 0.181 -0.202 2.635 -2.808 3.059 -3.25 0.514 0.509 1.558 1.612 1.872 1.999 -0.878 1.064 -4.61 4.334 -4.998 4.683Zm15.45 4.811c-1.255 -1.204 -3.184 -3.072 -3.34 -3.289 -0.254 -0.351 0.261 -0.857 0.576 -0.705 1.794 0.887 6.448 6.198 6.326 6.816 -0.012 0.061 -0.079 0.149 -0.135 0.177 -0.177 0.087 -0.453 -0.148 -3.427 -2.999Zm6.715 5.592c0.416 4.687 0.785 4.644 0.272 5.402 -2.058 3.043 -0.921 1.771 -4.289 6.031 -0.114 0.145 -0.253 0.156 -0.351 0.089 -0.148 -0.102 -0.396 -0.271 1.444 -3.393 0.691 -1.171 1.307 -1.964 1.756 -2.543 0.328 -0.423 0.638 -0.823 0.605 -0.943 -1.013 -3.689 -1.063 -13.646 -0.776 -19.537 0.127 -2.494 1.012 -8.417 1.975 -11.488 0.216 -0.689 0.406 -0.952 0.657 -0.894 1.425 0.312 -2.994 8.169 -1.294 27.275l0.001 0.001Zm26.61 -19.139c-1.015 2.973 -4.493 12.419 -5.573 13.863 -0.314 -1.447 0.928 -2.342 0.227 -18.131 -0.044 -0.996 -0.199 -1.541 -0.3 -1.902 -0.156 -0.549 -0.162 -0.378 0.504 -1.416 0.428 -0.666 0.661 -1.029 0.753 -1.114 1.045 1.364 3.015 3.809 3.949 2.394 0 0 3.709 -5.598 3.892 -5.875 -0.331 1.832 -2.404 9.116 -3.452 12.181Zm-1.243 -6.713c-1.181 -0.961 -3.037 -3.416 -3.096 -3.665 0.028 -0.041 7.794 -3.695 7.843 -3.714 -0.064 0.1 -4.643 7.254 -4.747 7.379ZM97.447 37.2c0.209 -0.378 0.4 -0.52 0.465 -0.52 0.222 0.055 0.288 0.562 0.333 0.933 0.068 0.558 0.686 0.543 0.843 0.102 0.232 -0.646 0.697 -1.74 1.241 -2.076 0.117 0.173 0.023 1.369 0.637 1.468 0.183 0.031 0.37 -0.054 0.498 -0.222 0.604 -0.785 1.037 -1.397 1.175 -1.474 0.05 0.102 0.125 0.82 0.121 0.963 -0.005 0.21 -0.015 0.562 0.335 0.656 0.589 0.159 0.585 -0.779 1.71 -1.5 1.078 -0.694 0.303 1.522 1.19 1.747 0.513 0.133 0.673 -0.512 1.274 -1.175 0.238 -0.265 0.354 -0.28 0.402 -0.266 0.2 0.058 0.324 0.778 0.424 1.357 0.102 0.585 0.657 0.72 0.991 0.263 0.072 -0.1 0.775 -1.218 1.024 -1.131 0.439 0.148 0.371 2.307 0.911 2.415 0.316 0.064 0.574 -0.21 0.803 -0.451 0.139 -0.147 0.298 -0.312 0.38 -0.288 0.048 0.014 0.171 0.12 0.286 0.78 0.071 0.404 0.041 1.136 0.4 1.321 0.275 0.143 0.591 -0.106 0.814 -0.29 0.108 -0.089 0.363 -0.296 0.421 -0.269 0 0 0.032 0.038 0.037 0.157 0.064 1.704 -0.292 2.009 0.076 2.863 0.313 0.737 0.116 1.276 -0.219 2.015 -0.241 0.531 -0.106 0.912 0.049 1.352 0.816 2.3 -0.349 3.966 -1.52 6.996 -0.267 0.69 -0.215 0.594 -0.583 0.707 -0.087 0.026 -0.176 0.054 -0.217 0.058 -0.008 -0.045 -0.003 -0.152 0.002 -0.266 0.19 -4.187 -2.097 -6.615 -0.487 -8.733 0.333 -0.438 0.424 -0.65 -0.075 -0.929 -4.386 -2.447 -10.532 0.097 -13.341 -2.586 -1.345 -1.286 -0.851 -3.162 -0.402 -3.974l0.002 -0.003Zm-3.912 90.095c-0.609 -0.704 -3.396 -10.444 -3.332 -12.396 0.02 -0.611 -0.263 -1.05 0.525 -2.122 0.077 -0.105 2.424 -3.757 3.542 -5.466 -0.285 -3.181 -0.728 -7.618 -0.794 -10.404 -0.022 -0.917 0.862 -0.759 0.971 -0.355 0.024 0.09 1.289 10.503 0.948 11.044 -4.379 6.931 -4.65 5.789 -3.946 8.808 0.701 3.012 0.98 4.512 2.333 8.752 0.316 0.993 0.491 1.54 0.495 1.841 0.002 0.447 -0.528 0.545 -0.742 0.298Zm2.478 -11.51c-0.145 0.71 -0.785 1.139 -1.339 1.139 -0.948 0 -1.756 -1.191 -1.096 -2.314 0.776 -1.312 2.749 -0.357 2.435 1.175Zm2.693 -37.95c-1.356 3.896 -3.13 12.111 -4.014 16.137 -0.045 -1.907 0.233 -16.588 0.871 -17.146 1.833 -1.549 1.654 -1.52 1.752 -1.363 1.462 2.353 1.457 2.181 1.391 2.372Zm-3.181 -2.367c0.186 -1.441 0.366 -3.569 0.51 -4.209 1.057 1.495 1.428 1.805 1.884 2.27 -0.254 0.261 -0.552 0.33 -2.288 1.976 -0.021 0.021 -0.049 0.039 -0.08 0.056l-0.025 -0.092 -0.001 -0.001ZM99.3 73.62c-0.556 0.111 -0.71 -0.12 -2.63 -3.175 -0.447 -0.713 -0.643 -0.348 -0.405 -1.787 0.436 -2.636 1.009 -3.452 0.277 -3.956 -3.426 -2.346 -4.873 -7.006 -3.87 -12.468 0.667 -3.632 1.358 -7.388 3.98 -10.355 0.108 -0.122 0.189 -0.184 0.249 -0.186 0.309 -0.008 0.681 1.083 3.202 1.564 1.705 0.326 5.182 0.219 6.325 0.184 1.616 -0.056 2.566 0.361 4.186 0.857 -1.556 2.306 -0.103 4.417 0.18 7.76 0.186 2.211 0.252 2.55 1.097 2.502 0.122 -0.008 0.253 -0.042 0.379 -0.096 0.583 -0.243 1.705 -0.099 1.986 0.537 0.678 1.531 -0.217 3.166 -1.632 3.689 -0.528 0.195 -0.447 0.02 -2.229 0.185 -0.617 0.058 -0.499 0.529 -0.871 3.081 -0.188 1.288 -0.172 6.598 -0.173 7.088 -0.002 0.421 -0.081 0.082 -4.812 2.214 -0.035 0.016 -3.513 1.596 -4.079 2.112 -0.452 0.411 -0.747 0.167 -1.161 0.249l0.001 0.001Zm19.256 62.763c-0.07 0.02 -0.139 0.002 -0.188 -0.041 -0.1 -0.087 -0.208 -0.117 -0.25 -0.27 -0.291 -1.072 -0.143 -2.351 -0.155 -2.653 -0.051 -0.102 0.073 -0.005 -0.482 -7.485 -0.767 -10.312 -2.05 -27.57 -0.362 -35.056 0.079 -0.338 0.481 -0.864 0.786 -0.633 1.039 0.781 -2.205 2.233 0.949 39.025 0.292 3.406 0.218 4.006 0.096 5 -0.171 1.381 -0.139 2.04 -0.394 2.114v-0.001Zm6.17 11.248c-0.016 -0.038 -0.375 -0.844 -0.398 -0.878 -0.367 -0.584 -0.998 -0.3 -1.047 0.26 -0.036 0.415 -0.127 1.035 -0.253 1.371 -0.047 -0.333 -0.053 -1.247 -0.502 -1.163 -0.793 0.139 -0.292 3.295 -0.74 4.409 -0.118 -0.558 -0.301 -1.841 -0.305 -2.689 -0.002 -0.862 -0.619 -1.144 -0.792 -0.768 -0.871 1.913 -1.065 3.239 -1.49 3.903 -0.207 -1.908 1.564 -5.674 0.166 -6.258 -0.97 -0.41 -1.971 1.878 -2.663 2.422 0.023 -1.027 0.957 -2.365 1.471 -3.102 0.784 -1.12 0.631 -1.148 1.207 -2.449 0.097 -0.218 0.249 -0.303 0.456 -0.254 1.251 0.292 2.262 0.152 4.335 0.376 -0.007 0.04 -0.03 0.111 -0.052 0.176 -0.431 1.318 -0.202 1.915 0.239 3.021 0.255 0.641 0.519 1.302 0.368 1.624v-0.001Zm1.591 -7.278c-0.168 1.253 -0.101 1.301 -0.661 1.315 -0.4 0.009 -1.1 -0.005 -1.177 0.016 -5.597 -0.228 -5.361 -0.174 -5.276 -1.493 0.072 -1.122 0.084 -1.048 0.185 -1.021 0.897 0.22 4.366 0.633 5.937 0.773 1.118 0.1 1.037 0.086 0.994 0.411l-0.002 -0.001Z" stroke-width="1"></path></g></g></svg>