<svg xmlns="http://www.w3.org/2000/svg" fill="none" viewBox="0 0 200 200"><g id="empty-state-no-user-found-2--empty-state-no-user-found-interface"><g id="profile"><path id="vector" fill="#000000" d="M15.238 59.8118c-4.953 -7.634 -7.486 -16.936 -5.709 -26.364 0.8436 -4.4967 2.5667 -8.7826 5.0703 -12.6119 2.5037 -3.8293 5.7387 -7.1266 9.5195 -9.7029 3.7808 -2.57633 8.033 -4.38089 12.5127 -5.31022 4.4798 -0.92933 9.0989 -0.96513 13.5925 -0.10536 4.4936 0.85978 8.7733 2.59822 12.5936 5.11558 3.8202 2.5174 7.106 5.7642 9.6687 9.5543 2.5627 3.79 4.352 8.0487 5.2652 12.5317 0.9132 4.4831 0.9324 9.1023 0.0565 13.5928 -2.261 12.063 -8.819 20.256 -21.619 26.052 -6.189 2.804 -29.464 4.951 -40.951 -12.752Zm10.65 -24.842c0.827 2.7007 2.3272 5.1468 4.3596 7.1083 2.0323 1.9615 4.5301 3.374 7.2585 4.1046 2.7283 0.7307 5.5977 0.7556 8.3383 0.0723 2.7407 -0.6833 5.2626 -2.0522 7.3286 -3.9782 11.821 -11.026 2.3 -30.777 -13.839 -28.525 -2.3558 0.3542 -4.6079 1.2107 -6.6037 2.5114s-3.6887 3.0153 -4.9638 5.0276c-1.2752 2.0122 -2.1029 4.2751 -2.427 6.6352 -0.3241 2.3601 -0.137 4.7623 0.5485 7.0438Zm5.472 35.686c-0.083 0.283 0.171 0.343 0.434 0.43 16.807 5.57 32.153 -0.64 40.131 -13.271 0.207 -0.326 0.223 -0.407 -0.076 -0.648 -10.559 -10.303 -36.842 -3.211 -40.489 13.489Z" stroke-width="1"></path><path id="vector_2" fill="#000000" d="M46.879 23.3488c-0.02 4.056 -5.033 5.8 -5.24 9.247 -0.093 1.538 1.759 2.562 0.607 3.5 -0.927 0.752 -2.054 -1.2 -2.369 -2.963 -0.0187 -0.5788 0.0286 -1.1579 0.141 -1.726 0.711 -3.469 5.283 -5.09 4.889 -8.36 -0.394 -3.27 -4.038 -2.689 -6.64 -0.126 -0.96 0.945 -0.746 1.641 -1.03 2.18 -0.375 0.708 -1.333 0.227 -1.415 -0.564 -0.366 -3.522 6.74 -8.493 10.287 -3.642 0.5198 0.711 0.7905 1.5736 0.77 2.454Z" stroke-width="1"></path><path id="vector_3" fill="#000000" d="M43.049 41.0549c-0.1825 -0.1031 -0.3386 -0.2472 -0.4558 -0.421 -0.1172 -0.1738 -0.1924 -0.3725 -0.2197 -0.5803 -0.0272 -0.2079 -0.0058 -0.4192 0.0627 -0.6173 0.0684 -0.1982 0.182 -0.3777 0.3318 -0.5244 0.1293 -0.1298 0.286 -0.229 0.4587 -0.2904 0.1727 -0.0613 0.3569 -0.0832 0.5391 -0.064 0.1823 0.0192 0.3579 0.079 0.514 0.1749 0.1561 0.0959 0.2888 0.2256 0.3882 0.3795 0.573 0.988 -0.443 2.541 -1.619 1.943Z" stroke-width="1"></path></g><path id="line" fill="#000000" d="M20.542 179.146c14.184 -3.884 48.863 -8.163 63.467 -9.889 35.07 -4.145 71.586 -7.615 106.6 -9.236 0.106 -0.001 0.209 0.039 0.287 0.112 0.078 0.072 0.124 0.172 0.13 0.278 0.006 0.107 -0.03 0.211 -0.099 0.292 -0.069 0.081 -0.167 0.132 -0.273 0.142 -43.607 2.9 -144.246 13.541 -169.721 19.986 -0.526 0.132 -0.91 -1.543 -0.391 -1.685Z" stroke-width="1"></path><g id="telescope"><path id="vector_4" fill="#000000" d="M142.5 114.85c-0.221 -0.5 0.778 0.064 1.148 -0.975 0.881 -2.478 0.892 -3.255 -0.254 -4.113 -1.364 -0.88 -2.833 -1.586 -4.373 -2.1 -0.385 -0.118 0.447 -0.5 1.393 -1.652 0.24 -0.291 0.165 -0.179 2.451 0.962 2.789 1.393 2.963 1.239 3.3 2.135 0.438 1.035 1.245 1.87 2.265 2.342 2.069 1.055 4.081 2.059 5.732 0.305 0.206 -0.219 0.192 -0.194 1.346 0.415 5.283 2.787 5.138 2.243 5.263 2.827 0.145 0.619 0.434 1.195 0.843 1.681 0.409 0.487 0.926 0.87 1.511 1.119 1.695 0.909 2.55 1.548 4.264 0.962 5 -1.71 7.969 -8.774 5.689 -11.022 -1.953 -1.924 -3.013 -3.252 -5.712 -2.659 -0.418 0.092 -0.083 0.095 -5.352 -3.593 -0.547 -0.383 -0.555 -0.479 -0.47 -0.791 0.086 -0.323 0.094 -0.662 0.023 -0.989 -0.071 -0.3268 -0.219 -0.6319 -0.432 -0.8899 -2.941 -3.885 -5.6 -3.745 -6.55 -3.686 -0.091 0.0105 -0.184 -0.0001 -0.271 -0.0312 -0.087 -0.031 -0.165 -0.0816 -0.229 -0.1478 -4.3 -4.953 -34.622 -26.01 -41.988 -30.974 -0.732 -0.494 -0.274 -0.661 -0.468 -1.343 -0.7 -2.467 -4.444 -5.814 -6.7 -6.683 -8.924 -3.437 -19.796 8.051 -18.858 17.507 0.516 5.2 3.16 7.164 7.923 9.052 0.8435 0.3275 1.7555 0.4388 2.653 0.324 0.9378 -0.261 1.8382 -0.6414 2.679 -1.132 0.883 -0.585 0.416 0.905 28.3 17.028 0.446 0.258 0.262 0.236 0.246 0.742 -0.084 1.9739 0.352 3.9339 1.265 5.6859 0.211 0.4 -0.1 0.2 -1.41 0.161 -3.457 -0.11 -3.76 0.868 -3.772 4.272 0 0.711 0.41 1.031 1.121 1.429 1.042 0.585 1.082 0.613 1.022 0.818 -0.112 0.382 -28.428 80.078 -28.472 81.325 -0.033 0.948 0.971 1.67 1.9 1.837 0.215 0.039 1.076 -2.089 2.62 -5.971 3.645 -9.163 12.985 -31.537 14.652 -35.785 14.046 -35.8 12.017 -30.944 14.024 -35.879 0.289 -0.71 0.281 -0.111 0.448 2.689 0.079 1.319 4.644 66.324 4.908 69.423 0.238 2.777 0.353 2.771 0.733 2.8 0.424 0.107 0.868 0.109 1.293 0.007 0.426 -0.102 0.82 -0.306 1.15 -0.593 0.52 -0.63 0.35 -0.853 0.118 -7.4 -0.132 -3.717 -2.327 -64.939 -2.309 -64.941 0 -2.6 23.176 55.122 30.962 72.452 0.316 0.7 0.742 0.368 1.836 -0.169 0.397 -0.276 0.683 -0.684 0.806 -1.152 0.123 -0.468 0.076 -0.964 -0.133 -1.4 -3.211 -8.634 -28.134 -74.229 -28.134 -74.229Zm30.156 -6.5c0.977 1.051 0.678 3.841 -1.2 6.463 -1.32 1.842 -3.752 4.034 -5.821 3.217 -1.2 -0.473 -1.684 -1.8 -0.894 -4.3 1.135 -3.601 5.92 -7.53 7.914 -5.381l0.001 0.001Zm-3.749 -2.6c0.691 0.097 1.33 0.425 1.811 0.931 0.087 0.078 0.371 0.368 -0.159 0.37 -2.99 0.349 -6.795 4.833 -7 8.37 -0.079 1.33 0.2 1.525 -0.205 1.382 -2.811 -0.985 -2.022 -5.033 0.227 -7.96 0.764 -0.975 1.685 -1.816 2.726 -2.488 0.779 -0.475 1.69 -0.687 2.599 -0.605h0.001Zm-2.8 -0.487c0.565 0.367 -0.531 0.021 -2.647 2.4 -4.03 4.527 -1.925 6.663 -3.4 6.017 -0.609 -0.267 -1.772 -0.929 -4.318 -2.251 -4.1 -2.129 -4.059 -2.107 -4 -2.566 0.341 -1.841 1.098 -3.58 2.213 -5.084 0.955 -1.385 2.164 -2.577 3.562 -3.512 0.386 -0.2689 0.618 -0.4609 1.115 -0.116 0.745 0.521 2.547 1.913 7.468 5.112h0.007Zm-8.452 -8.6909c1.551 1.03 2.92 2.5 2.323 2.222 -1.575 -0.734 -3.458 0.919 -4.875 2.2399 -2.016 1.876 -3.465 4.28 -4.183 6.938 -0.176 0.538 -0.243 1.106 -0.198 1.67 0.045 0.564 0.201 1.114 0.46 1.617 0.11 0.171 0.362 0.6 -0.2 0.429 -1.182 -0.35 -2.285 -0.924 -3.25 -1.691 -0.973 -0.809 -1.184 -2.537 -1.169 -3.758 0.071 -6.08 7.2 -12.2489 11.087 -9.6669h0.005Zm-62.017 -14.939c-0.113 0.165 -0.312 0.135 -0.5 0.064 -3.291 -1.242 -7.286 -2.779 -7.9 -7.582 -0.9 -7.064 4.165 -14.812 11.3 -17.1 1.922 -0.7421 4.043 -0.7954 6 -0.151 1.988 0.9918 3.74 2.3988 5.137 4.126 -0.837 -0.3197 -1.742 -0.4229 -2.63 -0.3 -7.708 0.932 -16.325 16.108 -11.761 20.531 0.16 0.155 0.397 0.348 0.354 0.412Zm-0.114 -3.952c-0.1116 -0.0473 -0.2022 -0.1335 -0.255 -0.2426 -0.0528 -0.109 -0.0642 -0.2336 -0.032 -0.3504 1.607 -9.414 9.469 -15.306 11.516 -15.232 0.371 -0.025 0.342 -0.056 3.466 2.131 12.659 8.859 30.773 20.975 43.163 31.269 0.473 0.393 -2.784 0.438 -5.878 5.0199 -2.844 4.212 -1.42 7.425 -2.063 7.086 -24.462 -12.8739 -47.488 -28.4309 -49.917 -29.6809Zm29.95 28.6999c0.6 -0.648 3.636 -0.1 4 -0.06 0.165 0.008 0.326 0.054 0.47 0.133 0.145 0.08 0.269 0.192 0.364 0.327 0.858 1.035 2.039 1.752 3.353 2.035 1.314 0.283 2.685 0.116 3.893 -0.474 0.201 -0.139 0.447 -0.199 0.689 -0.167 1.422 0.437 2.789 1.034 4.076 1.78 4.006 2.514 -6.731 1.649 -14.107 -1.392 -0.77 -0.321 -3.307 -1.574 -2.738 -2.185v0.003Zm15.067 7.474c-8.548 0.027 -15.814 -3.291 -15.767 -4.224 0.067 -1.326 0.038 -2.237 0.44 -1.863 2.953 2.744 14.355 5.044 17.844 4.291 0.184 -0.04 0.22 0.018 0.2 0.151 -0.077 0.437 -0.185 0.868 -0.322 1.29 -0.253 0.474 -0.768 0.347 -2.395 0.352v0.003Z" stroke-width="1"></path><path id="vector_5" fill="#000000" d="M166.048 116.173c0.624 1.5 3.258 -0.006 4.693 -2.381 0.653 -1.08 1.295 -2.25 1.086 -3.328 -0.25 -1.3 -1.742 -1.154 -2.717 -0.421 -1.799 1.351 -3.675 4.218 -3.062 6.13Z" stroke-width="1"></path></g><g id="stars"><path id="vector_6" fill="#000000" d="M46.187 112.617c1.068 0 1.021 0.06 1 -0.3 0 0 -0.167 -1.672 -0.318 -3.723 -0.047 -0.638 1.324 -1.259 1.458 2.513 0.06 1.7 0.152 1.6 0.448 1.607 3.782 0.08 3.831 -0.108 3.966 0.216 0.123 0.3 -1.514 0.759 -1.829 0.818 -2.291 0.426 -2.3 0 -2.3 0.636 0.028 4.243 0.016 3.39 0.123 4.262 0.021 0.167 -0.162 0.163 -0.227 0.113 -0.669 -0.513 -1 -2.936 -1.026 -3.518 -0.066 -1.324 -0.165 -1.244 -0.427 -1.264 -1.877 -0.144 -2.333 -0.105 -2.363 -0.533 -0.063 -0.88 0.608 -0.827 1.495 -0.827Z" stroke-width="1"></path><path id="vector_7" fill="#000000" d="M119.709 23.3682c0 2.1 -0.091 2.06 0.271 2.061 1.439 0 1.8 0.047 2.337 0.078 0.537 0.031 0.488 0.411 0.229 0.57 -0.716 0.432 -1.538 0.657 -2.374 0.65 -0.63 0.061 -0.335 -0.152 -0.653 2.777 -0.181 1.675 -0.336 2.342 -0.66 2.109 -0.595 -0.428 -0.488 -3.27 -0.583 -4.592 -0.022 -0.318 0.046 -0.348 -1.552 -0.345 -0.31 0 -0.729 0.037 -0.82 -0.341 -0.139 -0.578 -0.041 -0.861 1.1 -0.9 1.317 -0.048 1.364 0.045 1.377 -0.248 0.026 -1.2646 0.121 -2.5269 0.285 -3.781 0 -0.1374 0.055 -0.2692 0.152 -0.3663 0.097 -0.0971 0.229 -0.1517 0.366 -0.1517 0.137 0 0.269 0.0546 0.366 0.1517 0.097 0.0971 0.152 0.2289 0.152 0.3663 0.036 0.6534 0.038 1.3083 0.007 1.962Z" stroke-width="1"></path><path id="vector_8" fill="#000000" d="M172.224 58.0302c0.264 0.082 -0.262 0.5621 -0.7 0.7541 -0.49 0.1523 -0.996 0.2493 -1.508 0.289 -0.117 0.018 -0.34 0 -0.377 0.181 -0.137 0.682 -0.195 1.662 -0.463 3.3 -0.2 1.224 -0.411 1.311 -0.6 1.34 -0.147 0.022 -0.4 -0.169 -0.382 -1.284 0.024 -1.266 0.093 -2.98 0.128 -3.182 0.045 -0.254 -0.448 -0.194 -1.736 -0.056 -0.129 0.0147 -0.258 -0.0169 -0.366 -0.0891 -0.107 -0.0722 -0.186 -0.1804 -0.221 -0.305 -0.035 -0.1247 -0.024 -0.2578 0.03 -0.3754 0.054 -0.1176 0.148 -0.2121 0.266 -0.2666 0.579 -0.2891 1.207 -0.4684 1.852 -0.529 0.115 -0.027 0.248 0.052 0.313 -0.132 0.231 -0.648 0.17 -2.2729 0.382 -3.0999 0.226 -0.883 0.867 -0.6231 0.884 0.0519 0.111 4.734 -0.578 2.447 2.498 3.403Z" stroke-width="1"></path></g></g></svg>