<svg xmlns="http://www.w3.org/2000/svg" viewBox="0 0 200 200"><g fill="#000000"><path d="M72.5 73.89a5 5 0 0 0 1.25 -0.35 0.14 0.14 0 0 0 0.06 -0.15A3.24 3.24 0 0 1 74 71a0.09 0.09 0 0 0 -0.15 -0.09 2.8 2.8 0 0 0 -0.34 2.25c0 0.31 -0.73 0.41 -1 0.48 -0.15 0.07 -0.13 0.27 -0.01 0.25zm-2.23 1.19a0.1 0.1 0 0 0 0 -0.2c-0.8 0 -1.16 -0.69 -1.24 -1.4a0.13 0.13 0 0 0 -0.13 -0.13c-0.42 0 -0.02 1.73 1.37 1.73zm1.46 -4.86c0.13 -0.35 0.25 -0.7 0.38 -1s-0.22 -0.25 -0.29 -0.08c-0.14 0.32 -0.27 0.65 -0.42 1a0.18 0.18 0 0 0 0.33 0.08zm3.44 0.88a3.46 3.46 0 0 0 0.15 -0.9 0.15 0.15 0 0 0 -0.29 0c0 0.3 -0.14 0.6 -0.16 0.91s0.24 0.14 0.3 -0.01zm43.37 4.3a7 7 0 0 0 -1 -0.08 5.52 5.52 0 0 0 -0.42 -2.54c0 -0.12 -0.24 0 -0.18 0.11a6.13 6.13 0 0 1 0.27 2.59 0.17 0.17 0 0 0 0.17 0.16 9.5 9.5 0 0 0 1.19 -0.07 0.09 0.09 0 0 0 -0.03 -0.17zm3.16 0.99a0.14 0.14 0 0 0 -0.27 -0.07 1.65 1.65 0 0 1 -1.86 1.21c-0.14 0 -0.2 0.18 -0.06 0.21a1.76 1.76 0 0 0 2.19 -1.35zm-6.56 -4.24a0.18 0.18 0 0 0 -0.34 0 3.59 3.59 0 0 0 0.14 0.86 0.16 0.16 0 0 0 0.3 0 3.23 3.23 0 0 0 -0.1 -0.86zm3.86 -0.77c0 -0.21 -0.36 -0.12 -0.32 0.09a3.94 3.94 0 0 0 0.19 0.84 0.15 0.15 0 0 0 0.27 0 4.56 4.56 0 0 0 -0.14 -0.93zm-23.35 52.84c-0.74 -0.13 -0.45 -0.24 -0.27 -0.6a3.41 3.41 0 0 0 0.29 -0.83 0.09 0.09 0 0 0 -0.06 -0.12c-0.18 0 -0.08 0.21 -0.42 0.78 -0.09 0.16 -0.31 0.35 -0.34 0.53s0.57 0.42 0.78 0.4 0.13 -0.15 0.02 -0.16zm-1.14 -2.52c-0.5 -0.11 -0.77 0.33 -0.92 0.73 0 0.09 0.13 0.16 0.17 0.07a0.77 0.77 0 0 1 0.71 -0.53 0.14 0.14 0 0 0 0.04 -0.27zm2.82 0.3a1.59 1.59 0 0 1 0.94 0.91c0 0.1 0.22 0 0.18 -0.07a1.64 1.64 0 0 0 -1 -1.13 0.15 0.15 0 0 0 -0.12 0.29zm80.23 -26.5a2.27 2.27 0 0 0 -1.91 -2.35c-1.7 -0.18 -2.81 1.77 -1.08 2.87 -1.28 -0.13 -2.82 0 -2.9 1.47a1.41 1.41 0 0 0 1 1.46 3 3 0 0 0 2.18 -0.45 1.94 1.94 0 0 0 0.5 2.71 2.23 2.23 0 0 0 3.44 -1.62c0.67 0.93 2.5 1.39 3.21 0.48s-0.38 -2.53 -1.54 -2.8c1 -0.58 1.86 -1.66 1.42 -2.79s-3.06 -1.55 -4.32 1.02zm2.07 1.8c-0.18 0.07 -0.11 0.36 0.08 0.29 1.54 -0.59 2.78 2.34 1.12 2.57 -0.67 0.1 -2 -0.49 -2 -1.2 0 -0.19 -0.31 -0.2 -0.3 0a2.12 2.12 0 0 1 -2.08 2.34 1.74 1.74 0 0 1 -0.94 -3.13 0.14 0.14 0 0 0 -0.14 -0.25 8.86 8.86 0 0 1 -1.59 0.75c-1.45 0.24 -2.89 -1.3 -0.93 -2.26a4.66 4.66 0 0 1 2.74 0 0.14 0.14 0 1 0 0.07 -0.27c-0.38 -0.11 -2.7 -1.15 -0.93 -2.6a1.4 1.4 0 0 1 1.6 0.09 2.32 2.32 0 0 1 1 2.41 0.12 0.12 0 0 0 0.23 0 3.68 3.68 0 0 1 1.44 -1.76c3.21 -1.68 3.37 2.21 0.63 3.02z" stroke-width="1"></path><path d="M178.34 97.08c-0.3 -1.21 -2.78 -0.57 -2.14 0.4 0.43 0.66 2.36 0.52 2.14 -0.4zm-1.69 0.36c-0.35 -0.23 -0.23 -0.52 0.15 -0.64s1.3 -0.12 1.33 0.36c0.05 0.66 -1.01 0.59 -1.48 0.28zm-165.87 6.15c0.65 1.61 2.52 1.62 3.82 0.89 -0.11 1.49 0.67 3.32 2.49 3a1.85 1.85 0 0 0 1.28 -2.69c1.16 0.42 2.82 0.25 3 -1.15s-1.22 -2.06 -2.34 -2.32c0.66 -0.44 1.41 -1 1.49 -1.83a1.56 1.56 0 0 0 -1.17 -1.56 2.64 2.64 0 0 0 -2.3 0.69 3.52 3.52 0 0 0 -0.95 1c-1 -1.27 -2.42 -2.57 -4 -1.65a1.73 1.73 0 0 0 -0.83 2.12 2.06 2.06 0 0 0 1.19 1c-1.25 0.23 -2.26 1.06 -1.68 2.5zm0.88 -1.89a2.87 2.87 0 0 1 1.52 -0.33 0.18 0.18 0 0 0 0.05 -0.36 3.82 3.82 0 0 1 -1.12 -0.52 1.58 1.58 0 0 1 0.08 -2.39c1.68 -0.81 3 0.66 3.88 1.91 0 0 0.22 0.16 0.25 0 0.17 -1 1.55 -1.57 1.84 -1.67 2 -0.65 2.24 1.39 1.57 2 -0.93 0.93 -1.42 0.86 -1.25 1.14a0.17 0.17 0 0 0 0.13 0.07c1 0.11 2.2 0.65 2.37 1.68 0.28 1.76 -2.07 1.58 -3 1 -0.18 -0.12 -0.35 0.14 -0.22 0.28a1.47 1.47 0 0 1 -1.6 2.42 2.14 2.14 0 0 1 -1.13 -2.7c0 -0.14 -0.13 -0.3 -0.27 -0.21 -1 0.69 -2.31 1.1 -3.25 0.17a1.47 1.47 0 0 1 0.15 -2.49z" stroke-width="1"></path><path d="M15.29 102.81c1.31 0.75 2.48 -0.42 1.74 -1.26 -0.41 -0.46 -1.71 -0.69 -2.15 -0.1a0.91 0.91 0 0 0 0.41 1.36zm-0.14 -1.26a1.42 1.42 0 0 1 1.59 0.08 0.6 0.6 0 0 1 -0.12 1c-0.94 0.49 -2.07 -0.5 -1.47 -1.08zm52.69 77.19c1 -1.82 -1.46 -3.7 -3.41 -2.07a3 3 0 0 0 -0.16 2.85c-0.7 -0.12 -3.93 -0.52 -4.92 0.41 -0.74 0.68 0.1 2.17 2.53 2 -1.25 0.68 -2.63 1.78 -1.8 2.85 0.47 0.6 1.49 0.49 2.12 0.32a14.41 14.41 0 0 0 2.8 -1.48 3.76 3.76 0 0 0 2 1.57c1.54 0.46 3.33 -0.64 2.87 -2.12a1.79 1.79 0 0 0 -0.89 -1c1.55 -0.07 3.41 -0.58 3.31 -2 -0.11 -2.07 -2.83 -1.85 -4.45 -1.33zm-0.36 2.83c-0.25 -0.06 -0.37 0.34 -0.11 0.4 3.07 0.41 2.21 2.69 0.7 2.9a2.71 2.71 0 0 1 -2.81 -1.74 0.19 0.19 0 0 0 -0.3 0c-0.64 0.65 -3.25 2.15 -4.11 1.67a0.84 0.84 0 0 1 -0.2 -1.41 9.09 9.09 0 0 1 2.62 -1.65c0.21 -0.08 0.13 -0.42 -0.1 -0.36 -0.92 0.28 -3 0.56 -3.6 -0.48 -0.5 -0.86 1.51 -1.74 5.19 -0.9 0.17 0 0.29 -0.21 0.12 -0.29 -0.79 -0.39 -0.67 -2.11 -0.17 -2.7a1.73 1.73 0 0 1 2.23 -0.4 1.58 1.58 0 0 1 0.07 2.54c-0.18 0.15 0 0.43 0.25 0.32 1 -0.53 4.24 -1.4 4.61 0.46s-3.44 1.85 -4.39 1.64z" stroke-width="1"></path><path d="M64.75 180.64c-0.31 0.5 0.25 1 0.64 1.18a1.06 1.06 0 0 0 1.7 -0.91c-0.09 -0.45 -2.09 -0.71 -2.34 -0.27zm0.82 1c-0.25 -0.12 -0.6 -0.32 -0.65 -0.62 -0.09 -0.54 1.86 -0.34 1.87 0.06 -0.01 0.52 -0.63 0.82 -1.22 0.51zm-16.13 -12.35c-1 -0.11 -3.92 -0.28 -4.16 -0.3 -0.63 -0.15 1.06 -1.74 1.51 -2a0.18 0.18 0 0 0 -0.08 -0.33 10.16 10.16 0 0 0 -5.7 2.09 4.82 4.82 0 0 1 0.88 -3.19 0.18 0.18 0 0 0 -0.23 -0.25c-1.93 1 -2.79 3 -3 2.84a18.63 18.63 0 0 0 -6.66 -2.46 0.19 0.19 0 0 0 -0.1 0.37 10.17 10.17 0 0 1 4.33 3.1 25.32 25.32 0 0 0 -6.27 -0.39c-0.13 0 -0.14 0.23 0 0.22a20.85 20.85 0 0 1 6.68 0.63c0.15 0 0.32 -0.14 0.22 -0.27a10.64 10.64 0 0 0 -3.41 -3 17 17 0 0 1 5.29 2.26 0.2 0.2 0 0 0 0.25 -0.07 8.08 8.08 0 0 1 2.15 -2.5 5.05 5.05 0 0 0 -0.49 3 0.17 0.17 0 0 0 0.19 0.16 10.43 10.43 0 0 1 5.23 -2.2c-0.73 0.55 -1.78 1.5 -1.3 2.08 0.25 0.29 3.5 0.39 4.66 0.44 0.19 0.05 0.18 -0.22 0.01 -0.23zm131.4 -86.08a5.27 5.27 0 0 0 -2.78 0.6 10 10 0 0 1 1.43 -1.06 0.14 0.14 0 0 0 -0.07 -0.25 3.8 3.8 0 0 0 -2.46 0.73 3.94 3.94 0 0 1 1.33 -1.81c0.15 -0.12 0 -0.31 -0.19 -0.25 -0.79 0.34 -2.54 1.75 -3.25 1.36 -0.33 -0.18 -1.9 -1.47 -2.43 -1.76 -0.14 -0.08 -0.33 0.08 -0.23 0.23l0.84 1.19c-2.87 -0.72 -4.59 -2.33 -13.17 -4.79 0.06 -2.61 0.07 -5.22 0 -7.83 4.21 -0.1 8.49 -1.74 10.78 -5.42 1.8 -2.89 3.52 -9.26 3.92 -14.07 0.44 -5.22 0.26 -10.64 -1.61 -15.59 -2.21 -5.75 -5.41 -5.39 -6.08 -5.68s-0.7 -2.13 -0.91 -2.9c-2.27 -8.42 -10 -9.59 -13.19 -5.44 -1.68 2.15 -1.93 5 -2.08 7.59 -4.14 -1.16 -6 5.25 -5.49 8.27 0.11 0.73 1.12 2.82 0.66 3.34 -1.53 1.77 -3.4 2.86 -3.32 10 0.06 5.33 1.23 11.23 5.1 15.17a17.56 17.56 0 0 0 11.68 4.76c0 2.58 0.06 5.15 0.14 7.73A115.64 115.64 0 0 0 128.72 73a0.1 0.1 0 0 0 0 0.19A113.89 113.89 0 0 1 168 80.57a31.9 31.9 0 0 0 5.38 2.06c0.13 0 0.28 -0.12 0.19 -0.25l-0.64 -0.9a8.67 8.67 0 0 1 2 1.63c0.18 0.19 0.22 0.18 0.48 0a11.15 11.15 0 0 1 2 -1.23 4.46 4.46 0 0 0 -0.87 1.74 0.15 0.15 0 0 0 0.25 0.15 3.58 3.58 0 0 1 2.11 -1 5.49 5.49 0 0 0 -1.35 1.23 0.12 0.12 0 0 0 0.14 0.19c0.2 -0.11 2.58 -1.22 2.75 -0.82 0 0 -1.16 0.92 -1.24 1s0 0.18 0.11 0.12a17.57 17.57 0 0 1 1.58 -1.14 0.1 0.1 0 0 0 -0.05 -0.14zm-21.39 -44.78a0.07 0.07 0 0 0 -0.07 0.07v6.4a20.27 20.27 0 0 0 -1.9 -2.52c-0.12 -0.14 -0.35 0 -0.25 0.19a22.67 22.67 0 0 0 2.15 2.83v14.3c-2.86 -3 -5.76 -5.49 -8.21 -12.19 -0.06 -0.15 -0.3 -0.09 -0.25 0.07 1.75 5.64 5.65 10.53 8.47 12.45v9a16.77 16.77 0 0 1 -5.21 -0.85c-7.43 -2.45 -10.53 -8.84 -11 -16.68 -0.27 -4.16 -0.2 -9.29 3.62 -11.9a0.23 0.23 0 0 0 0.08 -0.31 8.4 8.4 0 0 1 -0.69 -7.29c0.74 -2 2.35 -4.29 4.75 -3.45a0.23 0.23 0 0 0 0.28 -0.22c0.09 -2.52 0.31 -5.22 1.81 -7.35a5.69 5.69 0 0 1 6.11 -2.22c4.7 1.08 6.56 5.94 7.06 10.24a0.22 0.22 0 0 0 0.21 0.22c6.28 -0.06 8 10 8.08 16.3 0 6.11 -1.55 14.41 -4.09 18.4 -2.27 3.57 -6.41 5 -10.44 5.12v-4.37a29.15 29.15 0 0 0 3.94 -5.5c0.06 -0.16 -0.17 -0.31 -0.25 -0.14a39.79 39.79 0 0 1 -3.7 5.3c-0.05 -4.77 -0.09 -8.66 -0.12 -11.84a31.49 31.49 0 0 0 5.17 -7.65 38.79 38.79 0 0 0 3.3 -8.23 0.11 0.11 0 0 0 -0.22 -0.06c-2.88 8.74 -5.75 11.62 -8.33 15.62 -0.17 -14.82 -0.15 -13.77 -0.3 -13.74zM96 126.27a1.27 1.27 0 0 0 0.64 0.25c0.19 0.38 0.53 0.65 1 0.38a1.07 1.07 0 0 0 0.28 -1.28 0.53 0.53 0 0 0 0 -0.28 0.13 0.13 0 0 0 -0.23 0c-0.17 0.24 -0.2 0.52 -0.46 0.72a1 1 0 0 1 -1.1 0.07 0.09 0.09 0 0 0 -0.13 0.14zm1.74 -0.3c0.06 0.72 -0.62 1 -0.81 0.53a1.21 1.21 0 0 0 0.82 -0.5z" stroke-width="1"></path><path d="M193.7 122.55c-0.58 0.18 -1.16 0.94 -1.6 1.32s-0.82 0.73 -1.24 1.09l-0.06 -0.13c0.21 -0.38 0.69 -1.33 0.16 -1.66s-0.71 0.35 -0.76 0.77a0.89 0.89 0 0 0 -1 -0.11 0.73 0.73 0 0 0 0.35 1.29 4.38 4.38 0 0 0 1 0.16l-1 0.94a27.2 27.2 0 0 1 -5 -0.77v-1.91a83.75 83.75 0 0 1 -13.4 -4c-6.43 -1.5 -20.69 -5.64 -26.24 -7 -0.12 0 -0.07 -0.21 0.05 -0.19 3.08 0.67 6.14 1.44 9.19 2.24 1.35 -1.21 2.93 -2.19 4.39 -3.27 0.1 -0.07 0.22 0.09 0.13 0.17l-1.69 1.4 2.67 3.14c3.64 0.93 7.33 1.8 11 2.82 -1.21 -4.44 -5 -21.13 -11.32 -22.53 -5.47 -1.21 -12.89 5 -16.85 8.34a29 29 0 0 0 -1.48 -9.72 7.19 7.19 0 0 0 1.35 -1v-0.05c-2.66 -7.17 -11.5 -12.89 -16.53 -12.35 0 -1.66 0.11 -3.33 0.06 -5 0 0 0.6 -2.47 0.82 -3.52 0.64 -3.13 0.7 -3.91 0.41 -4.79a5.05 5.05 0 0 0 -1.87 -2.45 3.44 3.44 0 0 0 -1.66 -2.43 4.32 4.32 0 0 0 -3.8 0.42c0 -0.2 -0.47 -1.93 -3.39 -1.92 -2 0 -2.84 2.32 -3.1 2.84A1.53 1.53 0 0 0 112 64c-1.17 0.08 -2.33 2.45 -1.85 4.39s3 2.94 3.52 3.14a20.2 20.2 0 0 0 0.91 5 5.79 5.79 0 0 0 3.43 3.4c-0.34 0.65 -0.73 1.26 -1.09 1.89 -8.44 1.12 -13.57 9.14 -16.12 16.66a46.81 46.81 0 0 0 -8.12 -2.42c-0.91 -0.12 -0.68 -0.15 -10.3 3.49a18.74 18.74 0 0 1 -0.08 -3.09c0.19 -0.06 0.37 -0.13 0.56 -0.21a0.14 0.14 0 0 0 0.07 -0.12c0.2 -5.32 -0.62 -11 -4.87 -14.52a40.34 40.34 0 0 0 -0.44 -5.12 79.45 79.45 0 0 1 21.08 4.26 0.18 0.18 0 0 0 0.21 -0.11 3.65 3.65 0 0 0 -0.22 -2c2.74 1.94 2.92 2.86 3.22 2.58a4.06 4.06 0 0 1 1.53 -0.79 5.72 5.72 0 0 0 -0.64 1.25 0.16 0.16 0 0 0 0.23 0.18c0.85 -0.31 1 -0.24 0.49 0.21a0.16 0.16 0 0 0 0.16 0.27 11.59 11.59 0 0 1 3.22 -0.34 3.43 3.43 0 0 0 -1.11 1.49 0.17 0.17 0 0 0 0.12 0.2c0.42 0.08 0.83 0.15 1.24 0.2 0.16 0 0.19 -0.23 0 -0.27 -0.39 -0.1 -0.75 0 -0.8 -0.43s0.69 -1 1 -1.2a0.16 0.16 0 0 0 -0.08 -0.29 11.89 11.89 0 0 0 -3.26 0.22l0.27 -0.3a0.16 0.16 0 0 0 -0.11 -0.27 2.12 2.12 0 0 0 -1 0.1 2.44 2.44 0 0 1 0.82 -1.06c0.1 -0.08 0 -0.25 -0.11 -0.25a3.59 3.59 0 0 0 -1.21 0.22c-0.75 0.29 -0.7 0.58 -1.38 0 -1 -0.82 -1.92 -1.68 -3 -2.41a0.17 0.17 0 0 0 -0.23 0.23c0.19 0.31 0.94 1.81 0.53 2.13a76.78 76.78 0 0 0 -21 -4.1c-0.57 -2.72 0.85 -4.36 1.2 -7.87a3.41 3.41 0 0 0 2.07 -1.67c0.49 -1.2 -1.07 -3.55 -2.81 -4.81a8.83 8.83 0 0 0 -6.92 -1.18l-0.26 -0.13a3.11 3.11 0 0 1 1.22 -1.11 0.09 0.09 0 0 0 -0.07 -0.17 3.52 3.52 0 0 0 -1.45 1 2.26 2.26 0 0 0 -1.34 -1.21c-0.13 0 -0.18 0.16 0 0.21a1.85 1.85 0 0 1 1 1 4.14 4.14 0 0 0 -2 -0.09c-1.82 0.39 -2.77 2 -3.38 3.08a8.74 8.74 0 0 0 -1.15 3.92c-2.54 4.21 -4.51 6.64 -5.24 8.13a63.92 63.92 0 0 0 -8.32 0.46c-0.33 0.06 0.19 -2.19 1.13 -3.12 0.11 -0.12 0 -0.26 -0.16 -0.21a9.58 9.58 0 0 0 -3.17 2.17l0.06 -0.41a0.16 0.16 0 0 0 -0.25 -0.15 2.19 2.19 0 0 0 -0.75 1.21 5.78 5.78 0 0 0 -1.61 -1.47 0.13 0.13 0 0 0 -0.16 0c-0.32 -3.26 -0.67 -6.52 -1 -9.77 7.69 -1 10.8 -4.17 11.56 -6.31s0.71 -5 0.82 -7.43c0.36 -7.66 -0.4 -5.57 1.47 -9.21a8.09 8.09 0 0 0 0.7 -5.94c-0.78 -2.58 -3.48 -4.61 -6.07 -3.92 -0.76 0.17 0.65 -12.45 -6.83 -15.62 -6.1 -2.59 -13.88 0.64 -13.11 6.55 0.13 0.87 1.16 2.31 1.07 2.47s-5.23 1 -6.7 4c-2.46 5 0.79 11.15 0.94 11.77a8 8 0 0 1 -0.15 2.57 33.27 33.27 0 0 0 0.07 8.42c0.78 4.9 3.45 9.87 8.26 11.81a17.51 17.51 0 0 0 7.41 0.9c0.38 4 0.79 7.89 1.36 11.88a37.59 37.59 0 0 0 -5.88 0.27 0.89 0.89 0 0 0 -0.28 -1.17 1.33 1.33 0 0 0 -1.42 0.12c0.24 -0.84 0.47 -2.17 -0.47 -2.14a1 1 0 0 0 -0.81 0.71 4.11 4.11 0 0 0 0 2.09 3.69 3.69 0 0 0 -1.67 -0.79 0.75 0.75 0 0 0 -0.81 0.59c0 0.37 0.29 0.64 0.57 0.83 -8.13 0.13 -16.16 2.24 -24 4.26 -0.13 0 -0.07 0.24 0.06 0.2 8 -1.94 18.32 -4 24.33 -4.19a2.9 2.9 0 0 0 0.64 0.24 4.23 4.23 0 0 0 -1.12 1.19c-0.8 1.45 0.85 1.91 1.82 0.46a1.27 1.27 0 0 0 0.82 1 21 21 0 0 1 -1 5.5 1.68 1.68 0 0 0 -0.86 0.3 6.86 6.86 0 0 0 -0.16 -1.86 1.3 1.3 0 1 0 -0.9 -2.43c0.18 -0.44 0.14 -1 -0.4 -1.16a1.29 1.29 0 0 0 -1.16 0.4c0.08 -0.9 -0.38 -1.89 -1.15 -1.77 -1.22 0.16 -1 1.9 -0.66 2.68 -1.07 -0.07 -2.36 0.34 -2.26 1.52s2.05 1.22 3.18 0c-1 3.26 2.6 3.43 2.29 0.94a2 2 0 0 0 0.83 -0.09 10 10 0 0 1 0.13 2 1.65 1.65 0 0 0 -0.21 0.42 0.66 0.66 0 0 0 -0.42 1.15c-0.12 0.78 0 1.3 0.67 1.4 -0.61 2.16 -1 4.33 -2.59 6.06 -0.08 0.09 0 0.22 0.13 0.13A11.51 11.51 0 0 0 35 88.78a4.86 4.86 0 0 0 0.62 0.07c-0.38 2.31 -0.75 4.63 -1.27 6.91 0 0.14 0.18 0.2 0.21 0.06 0.55 -2.31 1.06 -4.61 1.39 -7H36a58.18 58.18 0 0 0 -0.08 7.18 0.11 0.11 0 0 0 0.22 0c0 -2.26 0.08 -4.51 0.16 -6.77a3.08 3.08 0 0 0 1.46 1.13 30 30 0 0 0 11 9.81c1.27 0.67 2.92 1.75 4.4 1.65a4 4 0 0 0 0.93 3 55.38 55.38 0 0 0 -6.47 7.2c-5.79 2.39 -11.76 4.64 -17.48 7.29l-2.75 -0.1 -0.4 0.61a35.79 35.79 0 0 1 -4.37 -0.82c0 -0.09 -1.06 -1.51 -1.46 -1.55 -3.16 -0.36 -8.08 2.55 -6.16 3.45 1.11 0.52 4.27 0.27 6 0.18l1.35 0.88a172.84 172.84 0 0 0 -17.29 5.94 0.14 0.14 0 0 0 0 0.2c0.16 0.23 9.88 6.43 14.88 9.12C25.15 140 30.6 142.4 36 144.79a0.15 0.15 0 0 0 0.21 -0.17 10.74 10.74 0 0 0 -1.6 -3.1 9.62 9.62 0 0 1 3.8 4.53 0.15 0.15 0 0 0 0.28 0c0.05 -0.2 0.46 -1.35 0.59 -1.13a4.06 4.06 0 0 1 -0.08 1 0.15 0.15 0 0 0 0.25 0.1c0.19 -0.25 0.65 -0.61 0.86 -0.84s0.21 0 0 0.53c-0.06 0.14 0.12 0.25 0.25 0.15a12 12 0 0 1 4 -2.34 6.76 6.76 0 0 0 -1.88 3 0.15 0.15 0 0 0 0.11 0.18 8.48 8.48 0 0 1 2.13 -1 3.93 3.93 0 0 0 -0.59 1.72 1.32 1.32 0 0 0 0.6 1.22c4.56 3.3 51.51 22.76 51.61 22.71 7.32 -3 35.85 -14.89 37.71 -15.62a14 14 0 0 0 4.32 -2 0.14 0.14 0 0 0 0 -0.21 6.25 6.25 0 0 0 -2.32 -1.82 8.58 8.58 0 0 1 3.85 1.57 0.15 0.15 0 0 0 0.23 -0.13 3 3 0 0 1 0.41 -1.41 2.13 2.13 0 0 0 0.4 1.08 0.16 0.16 0 0 0 0.28 0c0.17 -0.48 0.43 -1.24 0.64 -0.46a0.16 0.16 0 0 0 0.3 0 11.69 11.69 0 0 1 4 -6.2 6.09 6.09 0 0 0 -0.72 4.73 0.15 0.15 0 0 0 0.2 0.07 12.06 12.06 0 0 1 1.27 -1.9 4.26 4.26 0 0 0 -0.28 1.84c0 0.13 18.81 -7.3 22.4 -9a170.14 170.14 0 0 0 21.42 -11.61 1.93 1.93 0 0 0 1 -0.44c0.42 -0.37 0.4 -0.81 0.58 -1.3 0.61 -1.6 2.46 -2.24 2.66 -4.13 0.19 -0.88 -0.05 -2.2 -1.19 -1.86zm-150 -64.49c5.82 -5.7 7 -5.55 6.79 -5.88a0.11 0.11 0 0 0 -0.16 0 64.83 64.83 0 0 0 -6.74 5.31s-0.82 -9.45 -1 -12c0 0 4.61 -4.22 6.55 -7.53 0.07 -0.12 -0.1 -0.21 -0.18 -0.1A69.54 69.54 0 0 1 42.53 45q-0.56 -7.51 -1 -15c0 -0.15 -0.23 -0.15 -0.22 0 0.11 2.69 0.25 5.39 0.4 8.08a9.31 9.31 0 0 1 -5.2 -2.92c-0.13 -0.15 -0.35 0.08 -0.22 0.21a10.91 10.91 0 0 0 5.44 3.07l0.79 12s-3.66 0 -5.55 -2.33c-0.09 -0.11 -0.25 0.05 -0.15 0.15a9.19 9.19 0 0 0 5.75 2.59s0.77 9.49 1.09 13c-11.43 0.58 -16.3 -7.5 -15.66 -19.02 0.09 -1.58 0.82 -3.68 0.06 -5.15a27 27 0 0 1 -1.49 -6.12c-0.05 -2.37 0.12 -4.69 2.06 -6.31a14.44 14.44 0 0 1 5.59 -2.47 0.15 0.15 0 0 0 0.07 -0.25c-2.33 -2.31 -1.25 -6 1.16 -7.74a10.58 10.58 0 0 1 8.7 -1.49C50.74 17 52 25.67 52 31.37a0.18 0.18 0 0 0 0.21 0.16c4.55 -1.33 8.62 4.19 5.59 9.58a8.36 8.36 0 0 0 -1.27 3.5c-0.21 3.15 -0.16 6.32 -0.42 9.47 -0.13 1.68 -0.24 3.45 -1.28 4.86s-4.83 4.34 -10.6 4.77c-0.23 -1.85 -0.54 -5.65 -0.54 -5.65zm146.9 65.42c0.26 -0.32 0.37 0.15 0.36 0.21a2.13 2.13 0 0 1 -0.26 0.89 2.7 2.7 0 0 0 -0.25 -0.4s-0.01 -0.59 0.14 -0.7zM190 125c-0.24 0 -0.61 -0.06 -0.74 -0.29s-0.12 -0.69 0.28 -0.71c0.6 0 0.95 0.59 1.15 1.07a4 4 0 0 1 -0.69 -0.07zm-5.57 0.83a23.75 23.75 0 0 0 5.07 0.71 1.45 1.45 0 0 1 -0.16 2.18 5.52 5.52 0 0 0 -0.62 0.46 30 30 0 0 0 -4.55 -0.1c0.06 -0.33 0.25 -2.55 0.28 -3.28zM142.1 105c-0.83 0.7 -1.49 1.26 -1.92 1.58a51 51 0 0 0 -3.6 -10.31 9.5 9.5 0 0 0 4.13 -1.14 31.76 31.76 0 0 1 1.39 9.87zm-23.86 -25a4.76 4.76 0 0 0 2.34 0.07c0.08 0 0.06 -0.15 0 -0.14 -3.68 0.43 -5.71 -2.33 -6.37 -5.64 -0.37 -1.9 -0.24 -4 -1 -5.79a11.66 11.66 0 0 0 3.71 1 4.77 4.77 0 0 0 3.93 -1 5.31 5.31 0 0 0 1.06 2.37 1.7 1.7 0 1 1 2.11 2.6 5.63 5.63 0 0 1 1.6 2.16c0.11 2.65 -0.42 5.34 0.14 8 -2.8 2.57 -6.85 1.39 -8.62 -1.76a17.13 17.13 0 0 0 1.1 -1.87zm-11.45 8.1c2.71 -3.13 6 -5.5 10.18 -6 1.76 3.09 6.27 4.7 9 1.73 0.1 -0.11 -0.11 -0.41 -0.14 -2.09 3.59 -0.21 7.46 2 10.14 4.23a24.86 24.86 0 0 1 6.15 7.94 9.64 9.64 0 0 1 -5.68 2.09c-0.88 -1.89 -1.87 -3.73 -2.93 -5.55a0.1 0.1 0 0 0 -0.17 0.11c1.47 2.56 5.53 10.78 6.58 16.08 -1.59 8 -9.58 15.48 -11.64 16.86 -1.88 1.25 -4 2.71 -6.38 2s-3.45 -3 -4.25 -5.17a179.76 179.76 0 0 1 -5.74 -19.72c0.82 -1.83 1.9 -3.56 2.7 -5.4 0 -0.13 -0.12 -0.23 -0.19 -0.11 -3.06 5.38 -3.48 7.77 -3.86 8 -0.91 0.52 -9.08 -3.54 -9.68 -3.84 1.58 -3.96 3.12 -7.95 5.91 -11.17zm0.27 46.09c2.74 1 1.44 2.06 0.75 2 -0.25 -0.06 -0.27 0.08 -0.21 0.2 0.37 0.75 0.08 2.51 -1.28 2.15a0.15 0.15 0 0 0 -0.18 0.18c0.22 0.79 -1.85 1.7 -1.82 0.63 1.55 -1.13 2.94 -3.2 2.74 -5.17zm2.87 11.61c-3.21 -4.28 -3.48 -4.9 -4.53 -5.71a1.28 1.28 0 0 0 1 -1.18c1.19 0.24 1.94 -1.22 1.56 -2.37a0.73 0.73 0 0 0 0.35 -0.09 10.71 10.71 0 0 1 2.91 5.66c0.42 1.83 0.32 4.43 1 5 0.25 0.21 2 0.29 1.36 0.86a3.43 3.43 0 0 1 -1.71 0.15c-1 -0.16 -1.3 0.48 -1.51 0.35s0.52 -1.41 -0.43 -2.68zm-5.74 -6.7a7.21 7.21 0 0 0 -1.45 -3.84c-0.09 -0.1 -0.23 0.05 -0.15 0.15 3.08 3.87 -0.19 10.82 2.3 15.23 -3.57 -0.54 -5.84 -1.28 -9.48 -5.24 -2.42 -2.59 -3.37 -4 -7.47 -4.58a19.68 19.68 0 0 1 2.61 -8.87c0.07 -0.11 -0.11 -0.22 -0.18 -0.1A17.86 17.86 0 0 0 89 134.5a5.77 5.77 0 0 1 -1.3 -3.61c0.06 -0.56 1.24 -1.3 2.21 -1.84a6.45 6.45 0 0 1 3.11 -0.48c-0.41 0.86 0 2.09 1 1.9a1.32 1.32 0 0 0 0.23 1.84 1.67 1.67 0 0 0 2 0 1.87 1.87 0 0 0 1.87 1.22c0.63 -0.05 1.37 -0.59 1.36 -1.25a1.33 1.33 0 0 0 1.58 -0.26 1.18 1.18 0 0 0 0.32 -1.44 1.66 1.66 0 0 0 0.83 -0.43 26.44 26.44 0 0 1 4.48 3.66c0.31 2.07 -0.97 4 -2.5 5.28zm-21.49 8.25a8.77 8.77 0 0 1 2.3 3.15c-0.71 0.46 -1.58 1 -2.33 1.46a3.67 3.67 0 0 1 -1.6 -2c0.5 -0.88 1.08 -1.73 1.63 -2.61zm-0.52 0.43a6.66 6.66 0 0 0 -2.58 -2.73l0.92 -1.63a9.93 9.93 0 0 0 3.11 1.85 16.88 16.88 0 0 1 -1.45 2.51zm0.64 -0.61c0.4 -0.63 1.78 -3 1.88 -3.24a16 16 0 0 0 3.51 4.31c-1 0.75 -2 1.45 -3 2.13a7.36 7.36 0 0 0 -2.39 -3.2zm1.71 -3.58c0 0.1 -0.1 0.19 -0.15 0.09s-0.23 -0.31 -0.18 -0.5 0.6 -0.69 0.82 -0.87a5.16 5.16 0 0 1 2.34 -1.1 0.1 0.1 0 0 1 0 0.2 5.75 5.75 0 0 0 -1.78 0.72c-0.4 0.29 -1.34 0.87 -1.05 1.46zm3 -9c-2.43 0.65 -1.78 -1.83 -0.63 -2.4a0.14 0.14 0 0 0 0 -0.25 1 1 0 0 1 -0.62 -0.54 1.13 1.13 0 0 1 0 -1.11c0.31 -0.34 1 -0.34 1.13 0.18 0.14 1 0.32 3.25 1.52 4.31a16.08 16.08 0 0 0 -0.61 1.77c-1 -0.1 -0.93 -1.27 -0.57 -1.75 -0.03 -0.09 -0.16 -0.22 -0.27 -0.19zm-9 -7.85c0.24 -0.21 0.28 -0.57 -0.15 -0.87a0.41 0.41 0 0 0 0.22 -0.17c0.2 0.15 0.42 0.28 0.54 0.36s0.2 -0.08 0.12 -0.15l-0.58 -0.47c-0.84 -0.57 -0.07 -0.72 0.2 -0.6a2.47 2.47 0 0 1 1.31 1.34c0.71 1 1.27 1.24 5.7 4.26 -0.23 0.69 0.1 1.07 0.57 1.56l0.1 0.1c-0.6 0.53 -1.22 1.55 -0.75 2.21a1.55 1.55 0 0 0 0.61 0.5c-2.69 1.43 -7.67 -7.67 -7.67 -7.71a0.34 0.34 0 0 0 -0.32 -0.34zm-0.8 -0.05a5.36 5.36 0 0 1 -0.89 -0.16c-0.31 0 -0.53 -0.6 0 -0.66a3.62 3.62 0 0 0 1.27 0c0.23 0.13 0.89 0.97 -0.48 0.84zm0.21 0.69a1 1 0 0 1 -1 -0.58 2.7 2.7 0 0 0 1.36 0.08c0.27 0.12 0.08 0.51 -0.46 0.52zM76 122c0.37 0.19 0 0.93 -0.28 0.88 -0.47 -0.08 -0.29 -1.12 0.28 -0.88zm0 -0.21a0.48 0.48 0 0 0 -0.42 0c-1 -1.1 -0.58 -2 0.54 -2.16 0.72 0 0.63 0.74 0.48 1.08s-0.6 0.94 -0.6 1.08zm-0.62 0.2a0.71 0.71 0 0 0 -0.06 0.81c-0.27 0.38 -0.71 0.81 -1.15 0.35a1.85 1.85 0 0 1 -0.47 -0.91 0.72 0.72 0 0 1 0.74 -0.83c0.56 0 0.94 0.59 0.96 0.59zm-0.35 1.72a1.64 1.64 0 0 1 0.5 -0.66 0.43 0.43 0 0 0 0.53 -0.13 2.57 2.57 0 0 0 0.5 0.54c0.47 0.61 -0.31 1.3 -1.11 1.11a0.64 0.64 0 0 1 -0.4 -0.86zm1.15 -0.93a0.73 0.73 0 0 0 0 -0.89 0.89 0.89 0 0 1 1 -0.45c0.93 0.25 1 2.23 -0.11 2a1.76 1.76 0 0 1 -0.87 -0.66zm0.44 2.83c-0.4 -0.19 0 -0.49 0.27 -0.54a4.14 4.14 0 0 1 1.11 0.06 0.85 0.85 0 0 0 0.29 0.43c0 0.24 -1.51 0.22 -1.65 0.05zm24.27 5c0.53 0.5 0.22 1.13 -0.34 1.4 -0.24 0.12 -0.65 0.25 -0.87 0.07s-0.21 -0.19 -0.34 -0.18a0.18 0.18 0 0 0 -0.19 0.18A1.14 1.14 0 0 1 98 133.2c-0.7 0 -1.5 -0.68 -1.48 -1.12s-0.95 0.7 -2 0a1 1 0 0 1 -0.21 -1.62 0.2 0.2 0 0 0 -0.09 -0.31c-0.48 -0.08 -1 0 -1.12 -0.61a1.49 1.49 0 0 1 0.12 -1 5.07 5.07 0 0 0 1.81 -0.31 2.2 2.2 0 0 0 1.62 3.33 3.57 3.57 0 0 0 3.91 -2.42c0.44 0.25 0.91 0.52 1.39 0.82a1.38 1.38 0 0 1 -0.81 0.37c-0.26 -0.01 -0.37 0.13 -0.23 0.26zm-0.43 -6a9.49 9.49 0 0 0 -0.12 4.27 3.3 3.3 0 0 1 -2.46 2.36c-1.83 0.44 -3.69 -0.94 -2.63 -2.88a3.08 3.08 0 0 0 1.28 0.07 0.09 0.09 0 0 0 0.07 -0.12c-0.05 -0.17 -0.73 0 -1.13 -0.15 -0.91 -0.31 -2.43 -1.46 -2.53 -5.14a22.6 22.6 0 0 1 0 -2.47 5.7 5.7 0 0 1 -1.66 -1c-0.09 -0.09 0 -0.25 0.14 -0.18 2.24 1.93 5.87 1.69 8.27 0.15l0.25 3.07a1.17 1.17 0 0 1 1.64 -0.28c1.09 0.69 0.26 2.42 -1.1 2.25zm2.25 -9.45a8 8 0 0 0 -3.52 -2.49c0.1 -7 2.34 -9.11 2.65 -12.53 2.09 1.1 5.71 3 8.06 3.3 -0.68 2.79 -3.73 12.12 -3.89 12.6 -0.45 -0.78 -2 -1 -3.29 -0.87zm-9.17 -18.74c0.76 0.2 7.21 2.29 7.21 2.29s-0.27 0.68 -0.15 0.75l1 0.55c-0.19 2.14 -2.67 6.25 -2.7 12.54 -5.5 -1.43 -11.5 6.59 -10 9.67a3.25 3.25 0 0 0 2.32 1.49 10.46 10.46 0 0 0 -1.94 5.48l-1.56 1a1.09 1.09 0 0 0 -1.82 0c-4.64 -3.17 -5.13 -3.35 -5.7 -4.29a2.12 2.12 0 0 0 -1.45 -1.27 6.32 6.32 0 0 1 0.43 -1.56c-0.1 0.7 0.72 1.19 1.25 0.31 0 0.8 0.41 1.6 1.25 1.44a1.28 1.28 0 0 0 0.61 -2 1.37 1.37 0 0 0 0.49 0.09c0.58 1.14 0.89 2.53 0.62 3 0 0 -0.37 0.38 -0.19 0.57s0.74 0 1 -0.09c0.7 -0.32 0.5 -0.72 1.62 -0.29 1.46 0.56 3.11 0.71 2.82 -0.13 -0.12 -0.37 -1.17 -0.77 -1.44 -1a5.72 5.72 0 0 1 -1.64 -2.65c-1.26 -3.63 -0.16 -6.86 -1.17 -12.63 -0.6 -3.29 -1.61 -6.52 -2 -9.83 9.29 -3.38 9.41 -3.92 11.14 -3.44zm-13.17 25.17c-0.81 0.28 -1.93 0.15 -2.15 -0.84 0 -0.16 0 -1.35 1.2 -0.6a7.76 7.76 0 0 1 1 0.86 0.66 0.66 0 0 0 -0.05 0.58zm0.16 0.27a0.92 0.92 0 0 0 0.2 0.36c0 0.38 -0.58 1.77 -1.09 1.32 -0.23 -0.2 -0.15 -0.65 0 -0.88a2.07 2.07 0 0 1 0.89 -0.8zm0.44 0.49a0.38 0.38 0 0 0 0.44 -0.16 3.68 3.68 0 0 1 0.76 0.91c0.22 0.5 0.15 1.29 -0.49 1.44 -1.08 0.26 -1 -1.54 -0.68 -2.19zm-0.09 -1.23c0.57 0.29 0.51 1.2 0.06 1s-0.57 -1.19 -0.06 -1zm0.63 0.86a0.91 0.91 0 0 0 -0.15 -0.75c0.65 -0.34 2.23 -0.86 2.5 0.25a1 1 0 0 1 -0.8 1.11 1.7 1.7 0 0 1 -1.57 -0.63zm-0.25 -0.88a0.62 0.62 0 0 0 -0.64 -0.27 5.05 5.05 0 0 1 -0.3 -1.32c0 -0.47 0.44 -1.52 1.36 -1.14 1.15 0.46 0.59 2 -0.42 2.72zm2.24 -14c1.45 4.33 0.86 8.93 1.1 12 0.1 1.84 0.74 4.49 2.09 5.82a15.41 15.41 0 0 1 1.52 1.08c0 0.79 -2.5 -0.49 -3 -0.52s-1 0.6 -1.4 0.67c-0.64 0.12 0.07 -0.37 0.09 -0.91a8.15 8.15 0 0 0 -0.77 -2.44c1.45 -0.27 1.59 -2.86 -1.1 -2.09a1.64 1.64 0 0 0 -0.34 -2.65A1 1 0 0 0 81 118a20 20 0 0 0 -1.44 -3.5c-1.56 -3.77 -1.74 -7.42 -2.36 -11.5 0.18 -1.6 0.52 -5.33 0.59 -6.48a6.84 6.84 0 0 0 4.29 0 37.61 37.61 0 0 0 1.42 10.52zM65.83 68.72A1.81 1.81 0 0 1 68.7 68a28.64 28.64 0 0 0 1.46 -3.62 8.9 8.9 0 0 0 6.43 4.28A13.13 13.13 0 0 1 76 72.8c-0.53 1.74 -1.1 3.61 -2.77 4.37a4.36 4.36 0 0 1 -3 0.1 1.13 1.13 0 0 0 -0.32 0.61c-0.11 0.7 0.57 1.55 1.74 2.1 -0.91 2.07 -3.6 1.78 -5.24 0.48a5.25 5.25 0 0 0 -0.41 -5.64c0.14 -0.44 1.27 -3.9 1.27 -3.9a2 2 0 0 1 -1.44 -2.2zm7.73 10.65A18.46 18.46 0 0 1 74.7 81a1.6 1.6 0 0 1 -0.7 2.22 4.13 4.13 0 0 1 -4.1 -1.49 2.83 2.83 0 0 0 2 -1.65 1.72 1.72 0 0 1 1.66 -0.71zm-7.28 1.27a4.34 4.34 0 0 0 3.33 1.15c-0.76 2.45 -3.65 2.57 -4.83 0.33a5 5 0 0 0 1.5 -1.48zm-29.71 -7.08c0.08 -0.19 1.16 -0.71 0.83 1a7.53 7.53 0 0 1 -0.32 1.15c0 0.13 0.15 0.18 0.19 0.06a1.16 1.16 0 0 1 1.35 -0.55c0.75 0.25 0.3 1 0.06 1.49a2 2 0 0 0 -0.87 0c-0.11 0 -0.08 0.2 0 0.2 1.75 -0.27 1.49 1.74 0.33 1.65a1.22 1.22 0 0 1 -0.64 -0.32 4.81 4.81 0 0 0 -0.35 -1c0.81 -0.59 0 -1.84 -0.83 -1.34 -0.02 -0.61 -0.32 -1.9 0.25 -2.34zm0.31 2.44a0.71 0.71 0 0 1 0.42 0.72 0.69 0.69 0 0 1 -0.66 0.52 0.6 0.6 0 0 1 -0.55 -0.84 0.77 0.77 0 0 1 0.79 -0.4zm-2 0.52c-1.34 -0.61 -1 -1.37 -0.32 -1.29a6.56 6.56 0 0 1 1.64 0.79 0.62 0.62 0 0 0 -0.3 0.74 3.58 3.58 0 0 1 -1 -0.22zm1.36 1.82 0.25 -0.36c0.07 -0.1 -0.1 -0.2 -0.18 -0.1 -0.5 0.69 -1.17 1.8 -1.9 1.28s0.73 -1.82 1.2 -2.17A2.54 2.54 0 0 0 36 77a0.83 0.83 0 0 0 1.07 0.33c1.27 2.6 -0.83 2.6 -0.87 1.02zm0.91 1.29c0.46 -0.16 0.56 -0.66 0.48 -1.14a1.08 1.08 0 0 0 1.48 -1.57c-0.28 -0.29 -0.26 0 0 -0.49a31.9 31.9 0 0 1 6.56 -0.16c0.08 0 0.12 -0.07 0.13 -0.13a3.66 3.66 0 0 0 -0.23 -1.88A7.82 7.82 0 0 1 47 75.73a0.16 0.16 0 0 0 0.29 -0.08 1.72 1.72 0 0 1 0.32 -1l-0.06 0.41c0 0.14 0.14 0.28 0.25 0.15A9.5 9.5 0 0 1 50.61 73a4.39 4.39 0 0 0 -1 3 0.12 0.12 0 0 0 0.13 0.12c1.65 -0.24 2.07 -0.6 8.48 -0.44a3.9 3.9 0 0 0 -0.22 3.2c-3.76 1.38 -6 5.22 -6.86 9 -0.16 0.72 0 0.78 0.66 1.21l0.48 0.31a13.11 13.11 0 0 0 -0.55 4.13A97.08 97.08 0 0 0 39.1 87.9c0 -0.81 0 -1.9 -0.84 -1.93a2 2 0 0 0 -1 -0.6 13.5 13.5 0 0 1 1.24 -2.46c0.39 0.93 1.47 1.08 1.77 0.42a1.45 1.45 0 0 0 1.35 0.9c1.26 -0.06 0.61 -1.86 0.27 -2.58 0.73 0.25 1.59 0.3 1.81 -0.47 0.28 -1 -0.88 -1.92 -1.82 -1.82a4.58 4.58 0 0 0 0.57 -1.25c0.11 -0.37 0.34 -1.13 -0.19 -1.28s-1 0.38 -1.28 0.74a2.52 2.52 0 0 0 -0.64 1.89h-0.24a1.72 1.72 0 0 0 -2.65 0.44 0.93 0.93 0 0 0 1 1.39 1.74 1.74 0 0 0 0 1.38A13.45 13.45 0 0 0 37 85.28a3.58 3.58 0 0 0 -0.86 -0.13 20.26 20.26 0 0 0 0.97 -5.51zm0.9 6.37c-0.71 0.16 -0.83 0.51 -1.27 0.81 0.13 -0.41 0.27 -0.82 0.41 -1.22a5.22 5.22 0 0 1 0.86 0.41zm2.52 -6.5A2.47 2.47 0 0 1 42 77c0.44 0 1.13 0.29 -0.75 2.93 -0.05 0.07 -0.14 -0.31 -0.68 -0.44zm-0.42 3.5c-0.09 0.81 -1.22 0.58 -1.49 -0.38a2.6 2.6 0 0 1 0 -1.41l0.5 -0.13a0.87 0.87 0 0 0 0.74 0.52 6 6 0 0 0 0.25 1.4zm0 -1.38a1.31 1.31 0 0 0 1 -0.45 2.63 2.63 0 0 0 0.63 0.36c0.35 0.82 0.86 2.27 -0.06 2.44 -1.42 0.15 -1.72 -2.46 -1.62 -2.31zm1.07 -0.6a1 1 0 0 0 0.11 -1l0.53 -0.54s1.76 -0.14 1.76 1.47c0 1 -1.86 0.45 -2.4 0zm0 -0.43a1.05 1.05 0 0 1 -1.65 0.65 0.93 0.93 0 0 1 0.18 -1.46 0.9 0.9 0 0 1 1.47 0.79zm-1.91 -0.69a1.12 1.12 0 0 0 -0.16 1c-2.62 1 -1.43 -2.85 0.77 -1.41a1.26 1.26 0 0 0 -0.61 0.4zm-3.18 5.41a3.59 3.59 0 0 1 0.86 0.14 7.73 7.73 0 0 0 -0.36 1.31c-0.11 -0.34 -0.49 -0.46 -0.84 -0.52 0.12 -0.32 0.24 -0.63 0.34 -0.94zm-1.13 0.41a1.31 1.31 0 0 1 0.81 -0.36c-0.09 0.29 -0.2 0.59 -0.31 0.88l-0.54 -0.08c0.04 -0.28 0.04 -0.54 0.04 -0.44zm-1.74 -5.5a0.5 0.5 0 0 1 0.58 0.39c0 0.24 0.23 0.66 -0.87 1.23a0.86 0.86 0 0 0 -0.72 -0.52 1 1 0 0 1 1 -1.11zm-2 -1.31c0.59 -0.12 0.85 0.62 0.9 1.09a6.37 6.37 0 0 1 -0.1 1.31 1.06 1.06 0 0 0 -0.62 0.19 2.66 2.66 0 0 0 -0.63 -0.17c-0.18 -0.4 -0.57 -2.22 0.45 -2.43zm-2.68 3.62c0.25 -1.13 1.82 -1.23 2.74 -0.91a0.74 0.74 0 0 0 0.09 1c-1.16 1.14 -3.12 1.19 -2.85 -0.09zm2.76 -0.53c0.11 -0.61 1 -0.65 1.33 -0.21a0.61 0.61 0 0 1 -0.18 0.86c-0.43 0.35 -1.26 -0.04 -1.15 -0.65zm1.27 3.2c-1.29 0 -1.19 -1.49 -0.95 -2.35a1 1 0 0 0 1.2 -0.27c0.94 0.49 1 2.58 -0.25 2.61zm0.39 -2.79a1.14 1.14 0 0 0 0 -0.41c2.15 -1.86 3.13 0.49 1.94 1.29a1.84 1.84 0 0 1 -1.19 0.24 1.74 1.74 0 0 0 -0.75 -1.12zm1.51 4c0.27 -0.08 2.09 0 1.94 0.64 -0.12 0.08 -0.4 0.1 -0.53 0.44a1.57 1.57 0 0 1 -1 0.06c-0.43 -0.11 -1.38 -0.88 -0.45 -1.15zm0 2c-0.38 -0.17 -0.3 -0.6 -0.23 -0.92a1.7 1.7 0 0 0 1.53 0.2c0 0.24 0.43 0.41 0.86 0.47 -0.05 0.67 -1.67 0.44 -2.16 0.22zm18.16 13.06c-2.3 -0.33 -6.63 -3.2 -8.45 -4.64a32.51 32.51 0 0 1 -6.32 -6.62c-0.87 -0.39 -1.63 -1.09 -1.63 -1.42a0.74 0.74 0 0 0 0.6 -0.61h0.67c0.12 0 0.13 -0.16 0 -0.18s-1.42 -0.1 -1.43 -0.41 0.78 -0.51 1 -0.77 0.89 -0.82 1.49 -0.49c0.4 0.23 0.2 1.67 0.34 1.75 11.38 4.72 13.28 5.59 15.19 7.6a0.08 0.08 0 0 0 0.12 -0.12A12.08 12.08 0 0 0 52 93.63a18.88 18.88 0 0 1 0.52 -4.16 19 19 0 0 0 7.77 2.32 27.7 27.7 0 0 1 -2.79 7c-1.05 1.51 -2.88 2.92 -4.83 2.65zm0.79 0.3c4.52 -0.42 6 -6.4 7 -9.93h1c1 -0.09 0.64 -1.42 0.57 -2.22 0 -0.14 -0.22 -0.14 -0.21 0a5.78 5.78 0 0 1 0 1.44c-0.1 0.52 -0.13 0.51 -0.56 0.56a16.4 16.4 0 0 1 -5.63 -0.95c-1.16 -0.39 -3.91 -1.65 -4.35 -2.25a12.76 12.76 0 0 1 6.8 -9.22 4.49 4.49 0 0 0 0.64 1.45 5.28 5.28 0 0 0 5.89 1.64c1.39 2.71 4.76 2.1 5.19 -0.36 1.14 1.24 3.52 2.49 5.07 1.16 1.1 -1 0.1 -2.54 -0.89 -3.65 5.53 1.69 8.55 8.77 8.72 13.2a33.63 33.63 0 0 1 0 3.42 6 6 0 0 1 -4.88 0.16 27.35 27.35 0 0 0 -0.29 -7.22c0 -0.14 -0.25 -0.08 -0.22 0.06 1 5.35 -1.47 21.88 -1.76 22.19s-9.49 -0.14 -13.29 -1.38A22.08 22.08 0 0 1 57 107c-1.71 -1.2 -3.55 -2.47 -3.54 -5.26zm-6.12 10.58a56.09 56.09 0 0 0 -4.62 7.42L31 119.3c5.48 -2.15 10.89 -4.66 16.34 -6.98zm-26.44 8.34s0 -1.11 1.68 -1.46a27.58 27.58 0 0 0 4.23 0.86c-0.34 0.54 -1.53 2.78 -1.76 3.28 -1.36 -0.91 -4.15 -2.68 -4.15 -2.68zm148.06 21c-3.91 1.84 -21.32 8.64 -21.73 8.87a3.76 3.76 0 0 1 0.71 -2.28c0.1 -0.15 -0.12 -0.29 -0.25 -0.18a7.41 7.41 0 0 0 -1.77 2.21 5.76 5.76 0 0 1 1.32 -4.81c0.1 -0.12 0 -0.33 -0.18 -0.24a12 12 0 0 0 -4.78 6.41c0 -0.1 -0.06 -0.2 -0.08 -0.3a0.16 0.16 0 0 0 -0.19 -0.1c-0.17 0 -0.58 0.81 -0.7 1.08a2.2 2.2 0 0 1 -0.19 -1.16 0.15 0.15 0 0 0 -0.16 -0.14c-0.28 0 -0.74 1.64 -0.91 1.7s-0.81 -0.46 -1 -0.55a8.94 8.94 0 0 0 -3.94 -0.92 0.15 0.15 0 0 0 0 0.29 5.88 5.88 0 0 1 2.71 1.43c0.58 0.56 -1.54 1.65 -2.06 1.84 -1.61 0.6 -31.59 13.06 -39.19 16.21 -2.86 -1.16 -49.31 -20.7 -51.52 -22.68a2.09 2.09 0 0 1 0.53 -2.79 0.15 0.15 0 0 0 -0.08 -0.28 5.26 5.26 0 0 0 -2.32 0.88 7.92 7.92 0 0 1 2.09 -2.9 0.15 0.15 0 0 0 -0.15 -0.25 12.26 12.26 0 0 0 -4.42 2.35c0 -0.19 0.05 -0.38 0.08 -0.58s-0.1 -0.25 -0.21 -0.16 -1.23 1.15 -1.09 1 0.14 -0.8 0.17 -1.11a0.15 0.15 0 0 0 -0.25 -0.1 3 3 0 0 0 -0.83 1.19 9.91 9.91 0 0 0 -4.43 -4.72 0.14 0.14 0 0 0 -0.17 0.22c0.54 0.63 2.09 3.18 1.9 3.34s-4.06 -1.83 -5.59 -2.5a153.26 153.26 0 0 1 -24.87 -13.9c5.76 -2 11.43 -4.14 17.25 -5.93l2.28 1.49c-0.26 0.57 -0.48 1.12 -0.68 1.65 6.5 4.85 18.37 10.26 25.13 5.89 4.7 -3.75 8 -8.91 12.81 -12.56 0.07 -0.06 0.17 0.07 0.1 0.13 -4.56 3.59 -7.57 9.07 -12.28 12.47a16 16 0 0 0 11.11 1.25c8.9 -2.38 11 -10.54 12.38 -14.84a54 54 0 0 0 1.52 -6l0.69 -0.07a0.12 0.12 0 0 0 0.12 -0.12c0.2 -1.85 0.69 -3.7 1 -5.55 0.49 -3.32 -0.17 -1.64 1.27 5 0.89 3.91 2.12 5.14 2.71 7.22a1.3 1.3 0 0 0 -0.52 0.52 2.33 2.33 0 0 0 0.13 2c-0.69 -0.93 -2.26 -1.44 -2.45 -0.31a1.6 1.6 0 0 0 2.13 1.59 3.3 3.3 0 0 0 -1.52 2.7 0.46 0.46 0 0 0 -0.54 0.33h-0.06a3.83 3.83 0 0 0 -0.07 -1.51c0.59 -0.9 -0.12 -2.56 -1.25 -2.2A1.93 1.93 0 0 0 77 120c-0.14 -1 -2.3 -0.81 -2.29 0.67a1.26 1.26 0 0 0 0.17 0.6 1 1 0 0 0 -1.5 0.93c0 0.74 0.74 1.71 1.45 1.42a1 1 0 0 0 -0.07 0.5c0.15 1.27 2.4 0.79 2.17 -0.43a0.88 0.88 0 0 0 0.74 -0.08 7.09 7.09 0 0 1 0.07 1.3c-1.17 -0.32 -1.92 0.51 -1.32 0.88 -0.43 0.21 -0.24 0.82 0.21 1a1.25 1.25 0 0 0 1 0.88 21.8 21.8 0 0 1 -1.09 5c0 0.11 0.15 0.19 0.19 0.08a14.2 14.2 0 0 0 1.12 -5.06h0.19a13.46 13.46 0 0 0 0.31 4.69c0 0.11 0.23 0.09 0.21 0a32.36 32.36 0 0 1 -0.32 -4.72 0.53 0.53 0 0 0 0.27 -0.22s2.33 3.91 3.73 5.78c2.34 3.13 4.39 1.83 4.4 1.79h0.6a3.29 3.29 0 0 0 -0.16 0.44 1.1 1.1 0 0 0 1 1.46 15.39 15.39 0 0 0 -0.5 3.24c-2.62 -1.89 -5.89 -0.4 -7.9 2.25a6.47 6.47 0 0 0 0.64 0.91c0 0.11 -1.54 2.33 -2.6 4.35 -0.13 -0.1 -1.7 -0.65 -2.64 -1.14 -0.21 -0.11 -1.12 0.23 -0.48 1.12 0.41 0.56 1 1.31 1.31 1.62a1.22 1.22 0 0 1 1.12 -0.4c1.21 0.11 2.06 1.15 3.27 1.11a28.74 28.74 0 0 0 -2.3 -2.24c0.55 -0.8 1 -1.63 1.52 -2.47a8.06 8.06 0 0 1 2.54 2.74 17.26 17.26 0 0 0 -1.32 2.07 3.84 3.84 0 0 1 -1.66 -0.18c-0.77 -0.27 -2.14 -1.34 -2.9 -0.47 -0.33 0.74 3.28 4 4.23 4.08s1.82 -0.92 2.17 -1.26c2.19 -0.67 4 -2.43 5.82 -3.83a13.52 13.52 0 0 0 14.2 2.11 14.35 14.35 0 0 0 2.51 0.47 0.19 0.19 0 0 0 0.17 -0.25c-1.67 -3.36 -0.7 -7 -1 -10.85a0.86 0.86 0 0 0 0.92 0.27c1.39 1 2.31 2.73 3.31 4.09 0.55 0.75 1.67 1.77 1.69 2.69 0 0.57 -0.47 1.8 0.23 1.74 0.34 0 0.63 -0.5 1.35 -0.36 1.09 0.18 2.86 -0.19 2.12 -1 -0.42 -0.43 -1.25 -0.14 -1.65 -0.74 -0.62 -0.95 -0.12 -6.8 -3.69 -10.29a1.45 1.45 0 0 0 0.43 -0.52c0.37 -1 -2 -2.11 -2 -2.18a11 11 0 0 0 -0.4 -5.4c1.83 -5.35 1.55 -10 -0.32 -12 0.79 -2.25 3.37 -10.07 3.9 -12.78 1 0.06 0.84 -0.66 1.64 -2.56a158.49 158.49 0 0 0 4.95 17.68 20.68 20.68 0 0 0 2.07 4.86 5 5 0 0 0 5.07 2.46c2.15 2.73 4.78 3.79 8.23 4.48 14.58 2.9 50.1 1 51.73 1.17 0.11 -0.68 0.22 -1.4 0.31 -2.14 1.53 0 3.08 0.12 4.61 0a1.3 1.3 0 0 0 1.45 0.83A174.07 174.07 0 0 1 169 141.71zm23 -13.1c-0.22 1.59 -2.42 1.94 -2.93 0.61a1.8 1.8 0 0 0 1.19 -1.72c0 -0.79 -1.12 -0.82 0.36 -2.09 0.23 0.39 0.5 0.8 1 0.81 0.1 0 0.13 -0.17 0 -0.19 -0.38 -0.08 -0.84 -0.74 -0.84 -0.74s0.36 -0.34 0.48 -0.42a1.3 1.3 0 0 0 0.79 0.7c0.11 0 0.19 -0.14 0.08 -0.19a1.55 1.55 0 0 1 -0.67 -0.67l0.27 -0.25a2 2 0 0 0 1 0.87c0.12 0 0.17 -0.13 0.08 -0.19a3.35 3.35 0 0 1 -0.9 -0.86l0.55 -0.51a1.72 1.72 0 0 0 1.83 1.47c-0.95 2.1 -2.04 1.95 -2.25 3.39zm2.45 -3.62a1.43 1.43 0 0 1 -1.24 -0.32 2.21 2.21 0 0 1 -0.55 -1c0.71 -0.57 1.55 -1.05 1.94 -0.34a2.16 2.16 0 0 1 -0.1 1.69z" stroke-width="1"></path></g></svg>