<svg xmlns="http://www.w3.org/2000/svg" viewBox="0 0 200 200"><g fill="#000000" fill-rule="evenodd"><path d="M169.28 137.24c2 -0.88 6.3 -16.67 6.85 -18.83 4.08 -0.75 9.64 -2.41 12.93 -4.63 3.13 -2.11 4.05 -4.32 3.82 -7.92 -0.36 -5.61 -8.69 -39.75 -11.25 -44a41.05 41.05 0 0 0 -2.77 -4.23c-1.92 -2.44 -2.66 -2.14 -2 -2.2a2.89 2.89 0 0 0 1.64 -1c0.07 -0.09 0 -0.11 0.12 0a1.1 1.1 0 0 0 1.28 0.47c1.82 -0.46 2.32 -2.77 2.89 -3.51a2.32 2.32 0 0 0 1 0.1 4 4 0 0 0 1.71 -1.78 2.35 2.35 0 0 0 -0.31 -2.29 1.85 1.85 0 0 0 0.57 -1.77 2.58 2.58 0 0 0 -1.92 -1.55 5.81 5.81 0 0 0 -0.59 0c0.07 -0.18 0.14 -0.34 0.15 -0.39a2.37 2.37 0 0 0 -0.62 -1.69 1.66 1.66 0 0 0 -1.32 -0.63c-0.31 0 -0.25 0.19 -0.26 -0.17a1.71 1.71 0 0 0 -0.3 -1.22 2.56 2.56 0 0 0 -1.92 -0.86 1.24 1.24 0 0 0 -0.59 0.21 1.86 1.86 0 0 0 -0.23 -0.82 2.21 2.21 0 0 0 -2.22 -0.49l-0.36 0.1a1.91 1.91 0 0 0 -0.25 -0.54 1.08 1.08 0 0 0 -0.84 -0.42c-0.3 -0.89 -0.36 -0.32 0 -1a2 2 0 0 0 0.29 -0.73 4.92 4.92 0 0 0 0 -1.95c-0.08 -0.28 -0.32 -0.39 -0.51 -0.51 0.2 -0.45 1.49 -1.3 1 -2.67s-1.57 -1.41 -2.25 -2.05v-0.23c0.22 -1 -0.14 -1.19 -1.14 -1.5a1.13 1.13 0 0 1 -0.18 -0.07 11.35 11.35 0 0 0 -0.27 -1.77c-0.54 -1.06 -1.69 -1 -2.5 -1.37 -0.28 -0.55 -0.07 -0.93 -1.18 -1.89a5.81 5.81 0 0 0 -5.67 -0.82c-0.25 0.16 -0.94 0.9 -1.17 1 -0.24 -0.11 -0.62 -0.39 -0.83 -0.46a3.87 3.87 0 0 0 -2.79 0.85c-0.35 0.35 -0.67 1 -1 1.38 -0.2 0.2 -0.1 0.67 -0.15 0.8a4.85 4.85 0 0 0 -2.13 0.26 9.7 9.7 0 0 0 -1.14 1 5.65 5.65 0 0 0 -1.35 1.79c-0.5 -0.08 -0.61 0 -0.91 0.23a5.9 5.9 0 0 0 -1.14 1.53 2.73 2.73 0 0 0 -0.34 1.44c0 0.45 0.05 0.5 0.27 0.73a4.39 4.39 0 0 0 -0.85 2 1.61 1.61 0 0 0 0.63 1.24c0 0.26 -0.14 0.7 -0.13 1s0.29 0.64 0.87 0.41a25.34 25.34 0 0 0 -0.16 6.3 4.72 4.72 0 0 0 1.18 2.62 11.62 11.62 0 0 0 2.95 2.32 32.63 32.63 0 0 1 -2.77 4.06c-0.19 0.19 -1.26 0 -1.79 0.08 -2.71 -0.26 -5 -0.46 -5.27 -0.58 -5.91 -2.17 -12.66 -11 -15.55 -16.52A5.85 5.85 0 0 1 128 33a0.16 0.16 0 0 0 -0.17 -0.25l-1.52 0.35c-1.22 -3.48 -2.86 -8.71 -3.91 -12.16 0.82 -1.41 2.22 -4.24 0.87 -5.13a1.22 1.22 0 0 0 -0.77 -1.52c-0.51 -0.18 -1.17 0.35 -1.59 0.71 0.39 -1 0.63 -2.13 -0.26 -2.65s-1.52 -0.12 -2.22 0.74c-0.06 0.07 0 0 -0.35 0.09 0.14 -0.68 0.42 -1.94 -0.22 -2.2 -1.89 -0.78 -3 2.71 -3.64 4.78a5.27 5.27 0 0 0 -0.76 -1.54 1.17 1.17 0 0 0 -2 0c-0.91 1 -0.11 2.74 0.07 3.63 -0.22 0.6 -0.83 2.15 -1.13 2.89 -0.48 -0.24 -1 -0.52 -1.34 -0.29 -1 0.78 -20 23.73 -30.33 28.46 -0.09 -1.57 -0.19 -2.42 -0.18 -3.23a21.4 21.4 0 0 0 2.07 -0.87c1.34 -0.73 2.1 -1.45 2.81 -3.91a1.91 1.91 0 0 0 0.94 -1.69 1.66 1.66 0 0 1 0.28 -1 0.76 0.76 0 0 1 0.21 -0.16 4.54 4.54 0 0 0 0.79 -0.53 5.93 5.93 0 0 0 1.54 -3.42 9 9 0 0 0 -0.26 -1.66c2.11 -0.33 2.75 -1.66 3.82 -3.65a11 11 0 0 0 1.42 -3.23c0.79 -4.4 -3.86 -7.25 -7.73 -6.77a3.58 3.58 0 0 0 -1.06 0.3 2.48 2.48 0 0 1 -0.53 0.2c-0.52 0.09 -2.45 -0.92 -5 -0.45 -3.82 0.68 -6.48 4.56 -7.08 5.12a3.19 3.19 0 0 0 -1.44 0.07 4.44 4.44 0 0 0 -1.81 1.31c-1.4 1.27 -0.62 3.24 -1.75 4.32 -1.49 1.42 -1.66 4.65 -0.39 6.56 0.23 0.34 -0.11 1.72 0.6 2.53s1 1.87 1.42 2.2a1.08 1.08 0 0 0 0.4 0.61c-0.38 2 -1 5 -1.21 6.37 -8.68 -5.84 -24.65 -28.54 -25.4 -28.73a2.88 2.88 0 0 0 -1.31 0.11 28.63 28.63 0 0 1 -2.26 -3.94c0.49 -0.8 4.43 -3.54 2.28 -5 -0.85 -0.57 -2.25 0.78 -3 1.47 -0.68 -1.43 -0.72 -5.09 -2.54 -4.46 -0.81 0.29 -0.8 1.42 -0.7 2.26 -0.51 -0.92 -1.37 -2.22 -2.34 -1.81s-1 1.18 -0.77 2.22 0.42 0.79 -0.29 0.14c-0.86 -0.8 -1.72 -1 -2.31 -0.3 -1 1.28 2.64 5.44 3.32 6.6 0.31 0.53 1.45 5.7 1.64 6.6a7.07 7.07 0 0 0 -1.23 1.22c-0.2 0.18 17.62 37.69 18.76 40.46 0.3 0.73 0 4.5 0 5.29 -0.66 8.81 -1.28 10.24 -1.3 14.69 -0.15 1.82 -1.13 13.24 0.4 14.17a6.38 6.38 0 0 0 1.43 0.43c-3.46 12.26 -4.38 24.2 -5.21 24.69 -1.34 0.79 -28.95 16.71 -28.95 16.71a0.37 0.37 0 0 0 -0.16 0.41l0.29 1.05c-2.66 1 -7.19 3.1 -9.09 5.26a4 4 0 0 0 -0.63 2.07c-0.36 3.45 0.68 13.91 3.87 13.72 2.7 -0.17 4.09 -8.39 4.46 -11.07 0.47 -0.19 1.87 -0.73 3.77 -1.4l0.35 1.26a0.39 0.39 0 0 0 0.42 0.27c17 -2.49 34.08 -6.88 49.7 -14 0 -0.11 0.73 -11.75 0.27 -18.78a0.16 0.16 0 1 1 0.31 0c1.08 6.79 0.65 12.41 0.21 19.64 1.86 12.34 5.6 26.7 8 40.91a0.4 0.4 0 0 0 0.4 0.33l1.84 -0.05c-0.25 2.24 -1 10.18 0.09 12.12s13.05 2.84 16.64 2.44c1.09 -0.12 2.34 -0.36 2.56 -1.43 0.56 -2.75 -8.76 -5.81 -10.15 -7.39a30.65 30.65 0 0 1 -0.64 -6l2.09 -0.06a0.38 0.38 0 0 0 0.38 -0.37c0.83 -24.08 2.28 -61.43 1.88 -76.05 0.38 0 2.07 0.13 2.38 0.09 3 -0.37 0.82 -27.15 0.62 -34.43a19.85 19.85 0 0 1 0.06 -2.78c1 -1.94 15.71 -26.66 19.68 -36.7 0.35 2.07 0.75 4.12 1.24 6.17 -0.72 0.39 -1.77 1.06 -1.69 1.88a44.58 44.58 0 0 0 6.44 19.46 38.47 38.47 0 0 0 14.72 13.85c-2 6.09 -6.83 21.51 -6.62 28 0 0.5 0.54 0.87 1 1.13 -3.63 9.93 -5.59 22.29 -6.73 32.75 -0.1 1 1.53 1.51 2.46 1.8 -0.9 4.94 -1.46 11.55 0.69 16.12 2.57 5.45 11.48 7 17.48 7.49 2.25 2.05 5.27 2.7 8.28 2.85 5.4 0.27 16.3 -1.31 21.61 -2.24 0.24 2.41 0.94 9.22 3.21 9.3 2.5 0.09 4.68 -8.74 5.17 -11.18 1 1.55 1.72 9.22 3.6 10.08 1 0.45 1.72 -0.7 2.19 -1.64 1.29 -2.59 3.06 -16.23 0.66 -18.62 -0.84 -0.83 -24.77 -2.71 -27.72 -3.42a45.31 45.31 0 0 0 2.94 -5.69 14.35 14.35 0 0 0 3.94 -0.66zM15 151.74a22.88 22.88 0 0 1 -2.12 -7.06c1.37 -0.76 2.83 -1.47 4.14 -2.05l2.13 7.67c-0.23 0.07 -4 1.28 -4.15 1.44zm171.75 -49.82a80.57 80.57 0 0 0 -1.06 -9.78s-0.07 0 0 0a0.16 0.16 0 0 1 0.1 -0.28c0.19 0 0.26 0.29 0.31 0.49a67.09 67.09 0 0 1 1.43 9.6c0.05 7.06 -0.77 7.94 -7.67 9.65 -5 1.23 -11 0.9 -16.12 0.79a0.17 0.17 0 0 1 -0.16 -0.17c0 -0.24 -0.12 -0.13 5 -0.26a56.4 56.4 0 0 0 11.1 -1.12c6.48 -1.68 7.02 -2.26 7.06 -8.92zm-38.37 -31.47a9.62 9.62 0 0 1 -1.23 -1.52 13.31 13.31 0 0 1 -1.16 -3.2c0.62 -0.37 0.8 -0.29 1.1 0.25a8.9 8.9 0 0 0 0.62 1.18 0.41 0.41 0 0 0 0.67 -0.24c0 -0.21 -0.29 -1.91 0.18 -2 0.76 -0.09 1.12 0.53 1.17 1.26 0.06 0.9 0.79 0.39 0.8 0 0 -0.16 -0.13 -1.3 0.11 -1.6 0.11 -0.13 0.48 0 0.63 0.13s0.15 0.86 0.54 1.24c0.23 0.23 0.45 0.08 0.65 0 0.42 -0.25 1.61 -0.91 2.06 -0.69s0.49 0.38 0.2 0.78a7 7 0 0 1 -1.72 1.41c-0.81 0.59 1.9 4.76 2.58 6a71 71 0 0 0 -5.35 4.93c-1.41 -5.66 -1.35 -7.25 -1.85 -7.93zm8.43 2.92c0.88 0.59 3.64 3.5 4.15 3.81 0.27 0.16 0.57 0.08 0.72 -0.49 0.35 -1.35 0.32 -6 0.5 -7.67 0.6 -5.26 1.5 -8.28 4.82 -12.07 1.49 -1.7 5.6 -2.39 8.55 -1 2 1 3.79 3.46 4.8 6.87a25.74 25.74 0 0 1 0.15 12.87c-1.29 5.67 -2.62 12.8 -6.63 16.5 -2.43 2.24 -5.91 3.39 -11.12 2.8 -6.51 -0.72 -11.74 -7.76 -13.53 -14 0.21 -1.37 6.48 -6.71 7.59 -7.62zM170 38.32a15.83 15.83 0 0 0 3.64 -1.2 1.24 1.24 0 0 1 0.1 0.2c-0.53 1.14 -3.5 2.25 -4.57 2.5 0.91 -1.82 0.13 -1.41 0.83 -1.5zm-0.89 15.22 0.33 0.52c-0.88 0.27 -0.26 0.29 -1.78 0a11.43 11.43 0 0 1 -2.79 -1.74c0 -0.84 0.46 -4.37 0.59 -5.37a1 1 0 0 0 0.33 0.33 1.67 1.67 0 0 0 -0.25 0.4 3.32 3.32 0 0 0 -0.13 1.85 1.42 1.42 0 0 0 1.26 0.84 1.39 1.39 0 0 0 -0.18 1.65 3.16 3.16 0 0 0 1.76 1.64 2.17 2.17 0 0 0 0.89 -0.12zM153 50c0.79 -1.15 1.58 -2.45 1.74 -2.76a0.4 0.4 0 0 0 0 -0.43c-0.33 -0.5 -3.86 -1.84 -4.15 -4.69a24 24 0 0 1 0.32 -7 4.4 4.4 0 0 0 0.91 -3 1.86 1.86 0 0 0 1.71 -1.12c0 -0.09 0.12 -0.47 0.18 -0.72l0.27 0.07a1.56 1.56 0 0 0 1.15 -0.31 7.07 7.07 0 0 0 0.86 -0.87c0.06 -0.06 0.51 0.17 0.76 0.24a1 1 0 0 0 1 -0.22 3.65 3.65 0 0 0 0.38 -0.48c0.22 0 0.61 0.11 0.92 0.16a1.09 1.09 0 0 0 1.05 -0.2 3.18 3.18 0 0 0 1.07 1.68 6.12 6.12 0 0 0 1.32 0.47 6.28 6.28 0 0 0 0.29 1 1.2 1.2 0 0 0 1.27 0.66 5.17 5.17 0 0 0 0 0.82c0.13 0.67 0.71 0.77 1.16 0.91 0 0.37 -0.46 1.29 0.44 1.6a1.61 1.61 0 0 0 0.21 0.84c0.48 0.48 1.11 0 1.73 0h0.1c0.86 0.43 0.69 0.72 1.25 1.29a3.57 3.57 0 0 1 -0.36 1.55c-0.28 0.56 -0.88 0.62 -1.39 1.08 -0.34 -0.06 -0.83 -0.32 -1.16 0a2.71 2.71 0 0 0 -0.73 1 1.3 1.3 0 0 0 0.22 1.34c-0.17 1.32 -1 7.91 -1 9.24a0.63 0.63 0 0 0 0.09 0.38c1.11 1.09 2.17 1.28 3.48 2.11 -0.22 0.12 -0.43 0.25 -0.67 0.41 -1.22 0.18 -1.81 1.36 -2.81 2.34a0.79 0.79 0 0 1 -0.39 0.09c-1.29 0.18 -2 0 -2.52 1.26a2.1 2.1 0 0 1 -0.13 0.26 1.35 1.35 0 0 0 -1.28 -0.44 6 6 0 0 0 -1.12 0.14c-0.4 0.08 -0.83 0.62 -1.12 0.93 -0.85 -1.13 -1 -1.34 -2.31 -1.36a3.69 3.69 0 0 0 -1 0.1 1.28 1.28 0 0 0 -0.38 0.24 3.66 3.66 0 0 0 -0.26 -0.83c-0.47 -0.89 -1.47 -0.8 -2.45 -0.55 0 -1 -0.17 -1.22 -0.63 -1.57a3 3 0 0 0 -1 -0.49h-0.49a3.78 3.78 0 0 0 0.43 -0.66 1.08 1.08 0 0 0 -0.68 -1.5c0.53 -0.33 0.55 -0.65 0.33 -1.06h0.29c1.55 0.05 1.48 0.38 3.1 -1.95zm-41 -32c0.18 -0.44 -0.92 -2.54 -0.12 -3.38 0.32 -0.34 0.57 -0.42 0.8 -0.28 0.54 0.36 0.91 1.76 1.09 2.34a0.74 0.74 0 0 0 0.25 0.46 0.36 0.36 0 0 0 0.54 -0.22c0.29 -0.94 0.44 -1.34 0.74 -2.15s1.23 -3.39 2.14 -3.15c0.12 1 -1.06 4.65 -1.4 5.63a0.4 0.4 0 0 0 0.73 0.32 26.82 26.82 0 0 1 2.25 -4c0.4 -0.48 0.77 -0.8 1.2 -0.55a0.54 0.54 0 0 1 0.21 0.53c0 1.22 -1.6 3.59 -2.33 4.55a0.39 0.39 0 0 0 0.62 0.48c0.51 -0.67 2.7 -3.45 3.52 -3.62 0.86 0.31 -0.2 2 -0.78 2.73 -0.79 1 -3.15 4.53 -5 7a30.46 30.46 0 0 0 -5.72 -3.81c0.36 -0.69 1.04 -2.27 1.26 -2.88zM68.28 41.9c1.86 1.09 7 2.39 8.15 1.82 0.62 -0.31 1.23 -0.88 1.71 -1.15s0.3 0 1.4 -0.29a2.66 2.66 0 0 0 1.46 -0.87c0.51 -0.45 0.59 0.09 1.46 -0.1a5.54 5.54 0 0 1 -1 1.91c-1.11 1.13 -3.14 1.62 -3.5 1.87s-0.23 0.52 -0.22 0.85c0 1.16 0.27 3.22 0.22 4.33a8.93 8.93 0 0 1 -2.24 0.8 9.07 9.07 0 0 1 -5.78 -0.7A17.26 17.26 0 0 1 67.09 49c0.01 -0.16 0.76 -4.52 1.19 -7.1zM31.69 16.21c-0.28 -0.51 -1.87 -2.58 -2.75 -4.23 -0.15 -0.28 -0.7 -1.4 -0.5 -1.63 0.79 -0.95 3 2.61 3.66 3.62a2.7 2.7 0 0 0 0.49 0.6 0.41 0.41 0 0 0 0.64 -0.34c0 -0.69 -3.17 -5 -1.67 -5.66 0.08 0 0.17 0 0.26 0.07 0.87 0.57 1.9 3.11 2.27 4.08 0.2 0.52 0.21 0.69 0.39 0.8a0.4 0.4 0 0 0 0.6 -0.3c0.06 -0.51 -0.62 -2.53 -0.73 -4 0 -0.27 -0.05 -1 0.2 -1.12 0.79 -0.28 1 3.37 1.88 4.48 0.25 0.31 0.55 0.09 0.83 -0.15s1.83 -1.77 2.23 -1.51c1.45 0.93 -2.38 3.56 -2.46 4.33 -0.07 0.58 2.06 3.64 2.4 4.13a23.83 23.83 0 0 0 -6.26 3.42 62.88 62.88 0 0 0 -1.48 -6.59zM89.3 186a36.43 36.43 0 0 1 -5 1 5.35 5.35 0 0 1 -3.38 -0.51c0 -2 0.14 -4.25 0.29 -6.25l7.65 -0.21a36.82 36.82 0 0 0 0.44 5.97zm6.52 -83.14c-2.52 0 -43.51 -3.21 -45.94 -4.6 -1 -2.1 -0.36 -10.27 -0.18 -12.77 12.32 1.88 34.56 4.56 47 2.86 0.06 2.14 0.42 12.95 -0.88 14.55zM96 66.12c-0.31 0.61 -0.11 4.36 0 5.75 -8.52 0.41 -24.39 -0.89 -33.6 -2 -7.86 -0.94 -11 -1.69 -11.22 -1.73a12.36 12.36 0 0 0 -0.14 -3.6c-3.81 -9 -18.38 -38.55 -19 -40.11 1.45 -1.84 7.47 -5.25 9.11 -4.9 1.34 1.28 17 23.53 25.41 29 -0.12 0.74 -0.14 0.77 0.38 1.1a18.84 18.84 0 0 0 2.84 1.43 9.82 9.82 0 0 0 6.23 0.77 7.93 7.93 0 0 0 2.74 -1.09 2.21 2.21 0 0 0 0.14 -1.14c10.05 -4.43 28.65 -26.6 30.53 -28.45 1.25 0.42 6.88 3.81 7.14 4.89 0.86 3.67 -19.69 38.33 -20.56 40.08zm20.88 -37.65a5.64 5.64 0 0 0 0.45 -2.6 2 2 0 0 0 -0.52 -0.83c1.84 -2.37 4.37 -6 5.19 -6.93a7 7 0 0 0 1 -1.49c0.27 0.6 -0.28 2.33 -1.31 4a0.38 0.38 0 0 0 0 0.31c1.1 3.5 2.84 8.6 4.23 12.21a44.84 44.84 0 0 0 -7.76 2.53c-0.56 -2.33 -0.96 -4.81 -1.3 -7.2zm14.43 70.67v-0.08c-0.23 -6.31 4.68 -22 6.61 -28a0.36 0.36 0 0 0 -0.2 -0.43A37.33 37.33 0 0 1 122.86 57a44.38 44.38 0 0 1 -6.51 -19.2c-0.2 -1.87 9.49 -4.27 11.33 -4.7 0.66 2.6 8.85 15.31 16.2 18.08 0.28 0.11 2.32 0.32 4.85 0.58a0.94 0.94 0 0 0 0.17 0.62 4.6 4.6 0 0 0 -0.54 0.36 0.49 0.49 0 0 0 0 0.71 2 2 0 0 0 0.77 0.36 0.38 0.38 0 0 1 0.11 0.47c-0.16 0.38 -0.67 0.76 -0.67 1.3a0.49 0.49 0 0 0 0.45 0.36h0.81c0.28 0.05 0.92 0.39 1 0.66a3.87 3.87 0 0 1 0.07 1.14 0.34 0.34 0 0 0 0.45 0.34 5.35 5.35 0 0 1 1.22 -0.28 1.15 1.15 0 0 1 0.66 0.08c0.45 0.29 0.38 0.91 0.65 1.44 0.11 0.22 0.33 0.23 0.53 0.08l0.45 -0.38a4.28 4.28 0 0 1 1.71 0c0.39 0.08 1 1.14 1.23 1.29s0.35 0 0.5 -0.12 0.7 -0.85 0.92 -0.9a3.94 3.94 0 0 1 1.67 -0.09c0.12 0.08 0.35 0.29 0.47 0.37a0.29 0.29 0 0 0 0.38 0c0.43 -0.44 0.3 -0.94 0.92 -1.32a13.87 13.87 0 0 1 1.88 -0.34A37.14 37.14 0 0 0 159.16 69c-0.4 1.47 -0.7 3 -1.06 4.52a6.45 6.45 0 0 0 -1.09 -0.86 0.46 0.46 0 0 0 -0.51 0l-0.65 0.53c-1 -2.07 -2.29 -4.11 -2.4 -5.28a9.51 9.51 0 0 0 1.39 -1c1.15 -1 0.92 -1.92 0 -2.38 -0.73 -0.37 -1.89 0.18 -2.6 0.58 -0.11 -0.46 -0.2 -0.88 -0.6 -1.11 -1 -0.57 -1.63 -0.23 -1.85 0.51a1.66 1.66 0 0 0 -1.35 -0.36c-0.53 0.07 -0.81 0.51 -0.91 1.07 -0.55 -0.69 -1.25 -0.59 -2 -0.13 -0.38 0.23 -0.36 0.72 -0.26 1.15a14.59 14.59 0 0 0 1.49 3.51c0.43 0.55 1.13 1.1 1.2 1.44 0.54 2.47 1.14 5.14 1.85 7.57 -0.5 0.56 -1.58 1.75 -1.37 2.46a24.61 24.61 0 0 0 5.9 10.19c-0.69 3.63 -1.76 9.43 -2.23 13.08 -2.47 -0.42 -19.24 -3.34 -20.82 -5.35zm-5.65 34.18c-0.06 0 -0.22 -0.19 -0.21 -0.27 1 -10.42 2.91 -22.75 6.38 -32.64 2.78 1.41 9.91 2.92 12.95 3.53a75.26 75.26 0 0 0 -2.44 8.87 0.16 0.16 0 0 0 0.31 0.07c0.17 -0.66 -0.09 0.32 2.88 -8.79 2.1 0.42 4.31 0.82 6.52 1.19 0 0.3 -0.06 0.57 -0.08 0.82 -0.18 2 -1.69 5.6 -0.2 7.61 3.31 4.43 10 5.54 15.51 5.53a82 82 0 0 1 -3.1 9.52 0.17 0.17 0 0 0 0.3 0.14 49.5 49.5 0 0 0 3.62 -9.66 51.87 51.87 0 0 0 7.2 -0.68c-0.82 3.11 -4.21 15.15 -6.09 17.7 -1.55 2.08 -39.67 0.07 -43.57 -2.94zm2.9 17.25c-2.09 -4.37 -1.55 -10.84 -0.72 -15.62a95.58 95.58 0 0 0 14.39 2.05c-1.18 6.12 -1.71 15.74 2.29 20.49 -5.41 -0.49 -13.63 -1.99 -15.98 -6.92zm33.3 -7.08c-0.15 0.25 0.1 0.38 0.37 0.45 2 0.53 15.34 1.85 22.62 2.77 0.47 3.63 -0.15 6 -1.37 9.4 -0.47 0 -0.6 0.64 -7.18 1.87 -5.42 1 -17.1 2.73 -22.61 2.46 -7.27 -0.35 -11.31 -3.61 -11.57 -14a45 45 0 0 1 0.77 -9.37 199.71 199.71 0 0 0 22 0.75 47.49 47.49 0 0 1 -3.05 5.67z" stroke-width="1"></path><path d="M153 34c-0.64 0 -1 0.46 -0.94 0.64s0.89 0.14 0.94 0.15a7.86 7.86 0 0 0 1.31 0.2c0.22 -0.17 -0.25 -0.99 -1.31 -0.99zm3.41 5.45a0.16 0.16 0 0 0 0.07 -0.31 6 6 0 0 1 -0.71 -0.34c-0.56 -0.34 -0.2 -0.41 0.9 -4a0.16 0.16 0 0 0 -0.29 -0.14l-0.36 0.51a7.53 7.53 0 0 0 -1.27 3.36c0.11 0.75 0.88 0.89 1.66 0.92zm3.92 -3.03a2.2 2.2 0 0 1 0.3 0.19c0.93 0.62 0.85 0.62 1 0.56s-0.17 -1.29 -1.26 -1.61c-0.53 -0.16 -1.35 0 -1.32 0.25s0.69 0.29 1.28 0.61zM155.59 43a2.39 2.39 0 0 0 2.06 -0.71 2.2 2.2 0 0 0 0.46 -1 0.16 0.16 0 0 0 -0.29 -0.13 3.76 3.76 0 0 1 -1.38 1 4.89 4.89 0 0 1 -1.72 0.14 0.16 0.16 0 1 0 -0.11 0.3 2.52 2.52 0 0 0 0.98 0.4zM98.51 14.4a0.17 0.17 0 0 0 0.33 0c0.26 -1.25 3.24 -4.75 5.23 -5.49a0.16 0.16 0 0 0 -0.07 -0.31c-2.77 0.4 -5.53 3.96 -5.49 5.8zm-2.96 -4.25a10 10 0 0 1 4.82 -4.83 0.16 0.16 0 0 0 -0.07 -0.32 6.15 6.15 0 0 0 -5.06 5.07 0.16 0.16 0 1 0 0.31 0.08zM133.54 8c1.28 0.51 4.07 5.07 4.15 6.84a0.16 0.16 0 0 0 0.32 0c0.45 -2.54 -2.41 -6.84 -4.38 -7.17a0.16 0.16 0 0 0 -0.09 0.33zm5.22 -1c0.89 0.53 2.92 4.33 3.06 5.27a0.16 0.16 0 1 0 0.32 0c0.27 -1.91 -1.7 -5.17 -3.26 -5.57a0.16 0.16 0 0 0 -0.12 0.3zm46.96 85.15zm-0.08 -0.04s0.02 -0.01 0 0z" stroke-width="1"></path></g></svg>