<svg width="126" height="31" viewBox="0 0 126 31" fill="none" xmlns="http://www.w3.org/2000/svg">
<path fill-rule="evenodd" clip-rule="evenodd" d="M19.6198 12.7595C18.858 13.2291 17.9606 13.5 17 13.5C14.2386 13.5 12 11.2614 12 8.5C12 7.53937 12.2709 6.64202 12.7405 5.88017C11.8696 5.63255 10.9503 5.5 10 5.5C4.47715 5.5 0 9.97715 0 15.5C0 21.0228 4.47715 25.5 10 25.5C15.5228 25.5 20 21.0228 20 15.5C20 14.5497 19.8674 13.6304 19.6198 12.7595Z" fill="white"/>
<circle cx="17" cy="8.5" r="4" fill="white"/>
<path d="M29.2474 24C29.1834 24 29.1514 23.96 29.1514 23.88L29.1994 7.392C29.1994 7.328 29.2314 7.296 29.2954 7.296H33.9034C34.8154 7.296 35.6314 7.52 36.3514 7.968C37.0714 8.4 37.6394 8.976 38.0554 9.696C38.4714 10.416 38.6794 11.2 38.6794 12.048C38.6794 12.736 38.5194 13.376 38.1994 13.968C37.8954 14.56 37.5274 15.04 37.0954 15.408C37.5594 15.872 37.9194 16.408 38.1754 17.016C38.4314 17.624 38.5594 18.264 38.5594 18.936C38.5594 19.864 38.3354 20.712 37.8874 21.48C37.4394 22.248 36.8314 22.864 36.0634 23.328C35.3114 23.776 34.4714 24 33.5434 24H29.2474ZM32.0794 13.92H33.9034C34.4634 13.92 34.9114 13.728 35.2474 13.344C35.5994 12.944 35.7754 12.512 35.7754 12.048C35.7754 11.536 35.5914 11.096 35.2234 10.728C34.8554 10.344 34.4154 10.152 33.9034 10.152H32.0794V13.92ZM32.0554 21.072H33.5434C34.1194 21.072 34.6154 20.864 35.0314 20.448C35.4474 20.016 35.6554 19.512 35.6554 18.936C35.6554 18.36 35.4474 17.864 35.0314 17.448C34.6154 17.032 34.1194 16.824 33.5434 16.824H32.0794L32.0554 21.072ZM38.9995 23.88L41.9755 7.392C41.9915 7.328 42.0315 7.296 42.0955 7.296H45.5755C45.6395 7.296 45.6795 7.328 45.6955 7.392L48.5515 23.88C48.5675 23.96 48.5355 24 48.4555 24H45.7915C45.7275 24 45.6875 23.96 45.6715 23.88L45.4075 22.128H42.1435L41.8795 23.88C41.8635 23.96 41.8235 24 41.7595 24H39.0955C39.0315 24 38.9995 23.96 38.9995 23.88ZM42.6235 19.56H44.9275L43.9435 12.816L43.7995 11.928L43.7035 12.816L42.6235 19.56ZM50.1537 24C50.0897 24 50.0577 23.96 50.0577 23.88L50.1057 7.392C50.1057 7.328 50.1377 7.296 50.2017 7.296H54.8097C55.7217 7.296 56.5377 7.52 57.2577 7.968C57.9777 8.4 58.5457 8.976 58.9617 9.696C59.3777 10.416 59.5857 11.2 59.5857 12.048C59.5857 12.736 59.4257 13.376 59.1057 13.968C58.8017 14.56 58.4337 15.04 58.0017 15.408C58.4657 15.872 58.8257 16.408 59.0817 17.016C59.3377 17.624 59.4657 18.264 59.4657 18.936C59.4657 19.864 59.2417 20.712 58.7937 21.48C58.3457 22.248 57.7377 22.864 56.9697 23.328C56.2177 23.776 55.3777 24 54.4497 24H50.1537ZM52.9857 13.92H54.8097C55.3697 13.92 55.8177 13.728 56.1537 13.344C56.5057 12.944 56.6817 12.512 56.6817 12.048C56.6817 11.536 56.4977 11.096 56.1297 10.728C55.7617 10.344 55.3217 10.152 54.8097 10.152H52.9857V13.92ZM52.9617 21.072H54.4497C55.0257 21.072 55.5217 20.864 55.9377 20.448C56.3537 20.016 56.5617 19.512 56.5617 18.936C56.5617 18.36 56.3537 17.864 55.9377 17.448C55.5217 17.032 55.0257 16.824 54.4497 16.824H52.9857L52.9617 21.072ZM62.6959 24C62.6479 24 62.6239 23.968 62.6239 23.904L62.6479 17.088L59.4319 7.392C59.4159 7.328 59.4399 7.296 59.5039 7.296H62.1679C62.2479 7.296 62.2959 7.328 62.3119 7.392L64.0879 13.848L65.8879 7.392C65.9039 7.328 65.9439 7.296 66.0079 7.296H68.6959C68.7599 7.296 68.7839 7.328 68.7679 7.392L65.5279 16.992L65.5519 23.904C65.5519 23.968 65.5199 24 65.4559 24H62.6959ZM70.1927 24C70.1287 24 70.0967 23.96 70.0967 23.88L70.1447 7.392C70.1447 7.328 70.1767 7.296 70.2407 7.296H74.8487C75.7607 7.296 76.5767 7.52 77.2967 7.968C78.0167 8.4 78.5847 8.976 79.0007 9.696C79.4167 10.416 79.6247 11.2 79.6247 12.048C79.6247 12.736 79.4647 13.376 79.1447 13.968C78.8407 14.56 78.4727 15.04 78.0407 15.408C78.5047 15.872 78.8647 16.408 79.1207 17.016C79.3767 17.624 79.5047 18.264 79.5047 18.936C79.5047 19.864 79.2807 20.712 78.8327 21.48C78.3847 22.248 77.7767 22.864 77.0087 23.328C76.2567 23.776 75.4167 24 74.4887 24H70.1927ZM73.0247 13.92H74.8487C75.4087 13.92 75.8567 13.728 76.1927 13.344C76.5447 12.944 76.7207 12.512 76.7207 12.048C76.7207 11.536 76.5367 11.096 76.1687 10.728C75.8007 10.344 75.3607 10.152 74.8487 10.152H73.0247V13.92ZM73.0007 21.072H74.4887C75.0647 21.072 75.5607 20.864 75.9767 20.448C76.3927 20.016 76.6007 19.512 76.6007 18.936C76.6007 18.36 76.3927 17.864 75.9767 17.448C75.5607 17.032 75.0647 16.824 74.4887 16.824H73.0247L73.0007 21.072ZM85.6455 24.24C84.7975 24.24 84.0135 24.024 83.2935 23.592C82.5735 23.144 81.9975 22.552 81.5655 21.816C81.1495 21.08 80.9415 20.272 80.9415 19.392L80.9895 7.392C80.9895 7.328 81.0215 7.296 81.0855 7.296H83.7735C83.8375 7.296 83.8695 7.328 83.8695 7.392V19.392C83.8695 19.936 84.0375 20.4 84.3735 20.784C84.7255 21.152 85.1495 21.336 85.6455 21.336C86.1575 21.336 86.5815 21.152 86.9175 20.784C87.2695 20.4 87.4455 19.936 87.4455 19.392V7.392C87.4455 7.328 87.4775 7.296 87.5415 7.296H90.2295C90.2935 7.296 90.3255 7.328 90.3255 7.392L90.3735 19.392C90.3735 20.288 90.1575 21.104 89.7255 21.84C89.3095 22.576 88.7415 23.16 88.0215 23.592C87.3175 24.024 86.5255 24.24 85.6455 24.24ZM92.3646 24C92.3006 24 92.2686 23.96 92.2686 23.88L92.3166 7.392C92.3166 7.328 92.3486 7.296 92.4126 7.296H95.3406C95.4046 7.296 95.4606 7.328 95.5086 7.392L97.6926 10.56L99.8766 7.392C99.9246 7.328 99.9806 7.296 100.045 7.296H102.997C103.061 7.296 103.093 7.328 103.093 7.392L103.141 23.88C103.141 23.96 103.109 24 103.045 24H100.333C100.269 24 100.237 23.96 100.237 23.88L100.213 11.64L97.6926 15.288L95.1966 11.64L95.1726 23.88C95.1726 23.96 95.1406 24 95.0766 24H92.3646ZM105.279 24C105.199 24 105.159 23.96 105.159 23.88L105.207 7.392C105.207 7.328 105.239 7.296 105.303 7.296H109.911C111.383 7.296 112.543 7.744 113.391 8.64C114.255 9.536 114.687 10.752 114.687 12.288C114.687 13.424 114.463 14.408 114.015 15.24C113.567 16.072 112.983 16.712 112.263 17.16C111.543 17.608 110.759 17.832 109.911 17.832H108.087V23.88C108.087 23.96 108.047 24 107.967 24H105.279ZM108.087 14.928H109.911C110.423 14.928 110.863 14.688 111.231 14.208C111.615 13.712 111.807 13.072 111.807 12.288C111.807 11.664 111.639 11.152 111.303 10.752C110.967 10.352 110.503 10.152 109.911 10.152L108.087 10.176V14.928ZM120.395 24.24C119.531 24.24 118.739 24.024 118.019 23.592C117.315 23.144 116.747 22.56 116.315 21.84C115.899 21.104 115.691 20.296 115.691 19.416V18.312C115.691 18.232 115.731 18.192 115.811 18.192H118.499C118.563 18.192 118.595 18.232 118.595 18.312V19.416C118.595 19.944 118.771 20.4 119.123 20.784C119.475 21.152 119.899 21.336 120.395 21.336C120.891 21.336 121.315 21.144 121.667 20.76C122.019 20.376 122.195 19.928 122.195 19.416C122.195 18.824 121.811 18.312 121.043 17.88C120.787 17.736 120.387 17.512 119.843 17.208C119.299 16.904 118.787 16.616 118.307 16.344C117.427 15.832 116.771 15.192 116.339 14.424C115.923 13.64 115.715 12.76 115.715 11.784C115.715 10.888 115.931 10.088 116.363 9.384C116.795 8.664 117.363 8.096 118.067 7.68C118.787 7.264 119.563 7.056 120.395 7.056C121.243 7.056 122.019 7.272 122.723 7.704C123.443 8.12 124.011 8.688 124.427 9.408C124.859 10.112 125.075 10.904 125.075 11.784V13.752C125.075 13.816 125.043 13.848 124.979 13.848H122.291C122.227 13.848 122.195 13.816 122.195 13.752L122.171 11.784C122.171 11.224 121.995 10.768 121.643 10.416C121.291 10.064 120.875 9.888 120.395 9.888C119.899 9.888 119.475 10.08 119.123 10.464C118.771 10.832 118.595 11.272 118.595 11.784C118.595 12.312 118.707 12.752 118.931 13.104C119.155 13.456 119.563 13.792 120.155 14.112C120.235 14.16 120.387 14.248 120.611 14.376C120.851 14.488 121.107 14.624 121.379 14.784C121.651 14.928 121.891 15.056 122.099 15.168C122.323 15.28 122.459 15.352 122.507 15.384C123.307 15.832 123.939 16.384 124.403 17.04C124.867 17.68 125.099 18.472 125.099 19.416C125.099 20.328 124.883 21.152 124.451 21.888C124.035 22.608 123.467 23.184 122.747 23.616C122.043 24.032 121.259 24.24 120.395 24.24Z" fill="white"/>
</svg>
