<svg xmlns="http://www.w3.org/2000/svg" viewBox="0 0 200 200"><g fill="#000000"><path d="M83.63 78.85a0.42 0.42 0 0 0 0.46 -0.22A3.42 3.42 0 0 1 86.23 77c0.7 -0.12 0.42 -1.26 -0.27 -1 -2.49 0.79 -2.96 2.66 -2.33 2.85zm-24.12 -0.8c-0.1 0.48 0.2 1.62 0.74 1.62s0.78 -0.61 0.44 -1.42 -1.05 -0.78 -1.18 -0.2zm-23.03 55.12a0.37 0.37 0 0 0 -0.51 0.19c-2.78 5.78 -4.84 16.64 -5.42 22.64a0.31 0.31 0 0 0 0.61 0 96.68 96.68 0 0 1 5.55 -22.3 0.39 0.39 0 0 0 -0.23 -0.53zM86 88.31c-0.23 -0.38 -1.19 -0.44 -0.75 1.49 0.54 2.4 2.09 3.5 3.85 3.5a3.4 3.4 0 0 0 3.12 -1.57c0.23 -0.49 0.12 -0.94 -0.4 -1 -1.31 -0.29 -4.54 -0.32 -5.82 -2.42zm5 3.28c-1.48 1.5 -3.85 0.48 -4.6 -1.51a8 8 0 0 0 4.53 1.51zm3.94 -12.35c-0.8 0.15 -0.21 2 0.54 1.74 0.58 -0.24 0.26 -1.89 -0.54 -1.74zM59.1 74.26a2.2 2.2 0 0 1 1.58 0.75c0.26 0.32 0.84 0.13 0.69 -0.45a2.37 2.37 0 0 0 -2.23 -1.4 0.55 0.55 0 0 0 -0.04 1.1zm27.36 6.17c-0.82 0.21 -0.52 1.75 0.16 1.78A0.39 0.39 0 0 0 87 82c0.27 -0.49 0.11 -1.72 -0.54 -1.57zm7.03 -4.51s1.94 0.73 2.13 0.73c0.4 0 0.34 -0.43 0.1 -0.75 -0.48 -0.62 -2 -1.35 -2.54 -0.93s-0.18 0.82 0.31 0.95zm-0.22 8.31c0.1 0.38 0 0.4 -0.08 0.48 -0.49 0.27 -1 0.16 -1.08 0.63a0.55 0.55 0 0 0 0.71 0.65 4.18 4.18 0 0 0 1.18 -0.56c0.4 -0.33 0.36 -0.74 0.16 -1.53a38.61 38.61 0 0 0 -1.43 -4.5c-0.25 -0.73 -0.68 -0.63 -0.77 -0.6a0.52 0.52 0 0 0 -0.3 0.65c0.45 1.33 1.05 2.72 1.61 4.78zm-44.73 -7.37a1.4 1.4 0 0 1 1.14 -1.2 0.54 0.54 0 0 0 0.55 -0.49 0.51 0.51 0 0 0 -0.5 -0.55 2.12 2.12 0 0 0 -2 2.22 0.42 0.42 0 0 0 0.81 0.02zm108.52 6.53c-0.79 0 -0.66 1.88 0.14 1.88s0.5 -1.88 -0.14 -1.88zm5.54 8.99c-2 0.34 -4.85 -0.33 -6 -2a0.38 0.38 0 0 0 -0.69 0.3c-0.43 0.53 0.09 2.92 1.1 3.87 1.84 1.73 4.28 0.9 5.74 -1.1l0.32 -0.24a0.5 0.5 0 0 0 -0.47 -0.83zm-1.24 1.1a2.53 2.53 0 0 1 -4.51 -1.54 7.13 7.13 0 0 0 4.51 1.54zM56.63 85.5a2.15 2.15 0 0 0 1.37 -0.45c1.49 -1.4 -0.91 -6.58 -1 -6.68a0.4 0.4 0 0 0 -0.7 0.36c0.48 1.3 1.39 4.73 1 5.43 -0.3 0.51 -1.31 -0.11 -1.63 0.5 -0.22 0.34 -0.02 0.84 0.96 0.84zM167 80.11c-0.13 -0.12 -1.07 -0.74 -1.61 -0.53s-0.61 0.89 0.27 1.07a1.57 1.57 0 0 1 1 0.54c0.17 0.21 0.31 0.64 0.63 0.64a0.38 0.38 0 0 0 0.38 -0.29c0.06 -0.42 -0.42 -1.16 -0.67 -1.43zm-6.3 -0.21c1.09 0 1 -1.81 0.17 -2.14a0.67 0.67 0 0 0 -0.8 0.14c-0.53 0.56 -0.28 2 0.63 2zm5.1 2.72c-0.85 0.18 -0.45 2 0.3 1.83s0.45 -1.98 -0.3 -1.83zm-3.4 -0.24a0.4 0.4 0 0 0 -0.7 0.36 18.89 18.89 0 0 1 1.62 5.26c-0.4 0 -0.94 0 -1.14 0.28a0.43 0.43 0 0 0 0 0.45c0.31 0.6 1.76 0.34 2 -0.17a1.31 1.31 0 0 0 0.07 -0.75 13.94 13.94 0 0 0 -1.85 -5.43zm-5.51 -1.5c0.46 0.06 0.85 -0.46 0.57 -0.83 -0.11 -0.14 -0.35 -0.29 -0.87 -0.17a3.23 3.23 0 0 0 -2.46 2.37 0.39 0.39 0 0 0 0.75 0.24 2.38 2.38 0 0 1 2.01 -1.61zm-29.08 0.45a0.38 0.38 0 0 0 -0.39 -0.38 0.4 0.4 0 0 0 -0.39 0.38C127 83 128 84.5 128.66 86c-0.83 0.4 -1.17 0.62 -1.1 0.93a0.46 0.46 0 0 0 0.3 0.32c0.45 0.14 1.41 -0.4 1.72 -0.68s0 -1 -0.56 -2.08a9 9 0 0 1 -1.21 -3.16zm-79.15 4.51c-0.2 1 0.28 4 1.78 5.17a4.11 4.11 0 0 0 3.89 0.73 3.93 3.93 0 0 0 2.57 -2.17c0.22 -0.77 0.41 -1.39 -0.46 -1.33a7 7 0 0 1 -3.71 -0.24 6.61 6.61 0 0 1 -3 -2.2c-0.38 -0.48 -0.93 -0.61 -1.07 0.04zm7.24 3.53a3.22 3.22 0 0 1 -5.9 -0.79 12 12 0 0 1 -0.37 -1.58 7.37 7.37 0 0 0 6.27 2.37zm-4.59 -8.87c1.08 0 0.52 -2.23 -0.28 -1.92 -0.6 0.24 -0.49 1.92 0.28 1.92zm70.54 -2.02c0 -0.13 -0.14 -0.43 -0.63 -0.44a3.88 3.88 0 0 0 -3.11 2.38 0.44 0.44 0 0 0 0.76 0.38 3.84 3.84 0 0 1 2.39 -1.69c0.28 -0.11 0.74 -0.18 0.59 -0.63zm7.15 -0.36c0.58 0.34 1.38 -0.33 3 1.25a0.42 0.42 0 0 0 0.66 -0.5 3.8 3.8 0 0 0 -2.53 -1.72 1.49 1.49 0 0 0 -1.28 0.18 0.5 0.5 0 0 0 0.15 0.79zm2.9 2.99c-2.94 0 -2.45 2.07 -1.46 1.52a7 7 0 0 1 1.49 -0.72 0.39 0.39 0 0 0 0.37 -0.42 0.4 0.4 0 0 0 -0.4 -0.38zm-11.13 1.69c1.11 -0.26 1.8 0.41 2.25 0.41s0.7 -0.41 0.32 -0.79a2.86 2.86 0 0 0 -2.81 -0.4 0.39 0.39 0 0 0 -0.24 0.49 0.39 0.39 0 0 0 0.48 0.29z" stroke-width="1"></path><path d="M195.15 156.26c-2 -26.59 -14.73 -43.44 -29 -50.58a1.6 1.6 0 0 0 -2.66 -0.9 7.91 7.91 0 0 1 -0.37 -1.67 10.28 10.28 0 0 0 7.1 -7.11 20 20 0 0 0 0.65 -8c1.1 -10.09 -3.19 -20.6 -8 -24.93 -9.09 -8.24 -24.19 -6.12 -30.17 4.67 -6.68 -9.35 -24.86 -12.09 -31.89 -1.94a0.16 0.16 0 0 0 0 0.15c4 8.62 2.09 18.57 1 20.4a0.18 0.18 0 0 0 0 0.1 14.8 14.8 0 0 1 -0.25 4.62 0.13 0.13 0 0 0 0 0.12c1.62 2.68 3.53 3.87 6.29 5a10.35 10.35 0 0 0 2.7 0.86 24 24 0 0 1 0.26 2.93l-0.47 -0.2c-0.4 -0.13 -0.61 0 -0.8 0.47s-0.43 1.73 -0.92 3.7a10.71 10.71 0 0 0 -3.91 1.78 10.78 10.78 0 0 0 -3.93 -5.54 0.15 0.15 0 0 0 -0.24 0.07c-3 9.78 -13.9 13.14 -20.21 8.83 -0.76 -0.52 -0.54 -1.51 0.35 -1a12.19 12.19 0 0 0 15 -2.18c4.47 -4.56 4.75 -11.46 4 -12.4a17 17 0 0 0 1 -7.47 73.91 73.91 0 0 0 1.2 -8.32c0.22 -12.14 -7.57 -20.09 -15.37 -22.59 -7 -2.23 -13.84 -0.54 -19.81 4.9a0.17 0.17 0 0 0 0 0.12 6 6 0 0 1 -0.35 2.76 0.14 0.14 0 0 0 0 0.18c2.16 1.79 2.1 5.9 0 7.75a0.17 0.17 0 0 0 0 0.2c1.35 1.83 0.12 4.39 -1.88 5 -0.57 0.18 -1.31 -0.12 -0.27 -0.69 1.76 -1 2 -3.08 0.67 -4.71a4.62 4.62 0 0 0 1.64 -4.46 4.24 4.24 0 0 0 -1.63 -3.07A4.38 4.38 0 0 0 61 56.66c2.64 -4 -2.42 -9.72 -7.92 -6.58 1.44 -6.44 -7.66 -10 -10.81 -4.13 -1.4 -6.32 -9.68 -5.51 -10.59 -0.53a5.44 5.44 0 0 0 -9.58 3.75c-5.66 -3.35 -11.42 3.46 -8.9 7.11 -6.6 -1.22 -9.91 7.27 -4.74 10.79C4 68.53 3.34 76 8.37 77.6c-3.23 3.24 -0.61 8.92 3.74 8.52 -2.43 3 1.4 7.28 5.15 6.66 -0.68 4.42 5.47 6.62 8.35 4.08 1.86 3.88 7.42 4.38 9.57 0.88a5.34 5.34 0 0 0 5 0.78c0 0.6 0 1.18 0.07 1.81 -8.54 0.83 -17 5.37 -23.13 12.48 -9.12 10.6 -13.41 26.5 -11.64 43.62a0.3 0.3 0 0 0 0.59 -0.06c-0.22 -8.89 -0.24 -19.37 3.93 -29.86 4.6 -11.73 12.85 -20.16 23.23 -23.74a64.08 64.08 0 0 0 24.45 15.16c3.45 1.21 3.71 1.12 3.83 0.92 2.18 -3.79 1.87 -13.95 1.71 -16.19 8.62 4.4 15.71 12.7 20 23.4 4 10 5.14 20.9 5.95 31.21a0.37 0.37 0 0 0 0.74 0c-0.45 -18.78 -4.59 -32.31 -11.9 -42.55 10 2.41 22.25 1.89 27.1 -6.63a75.76 75.76 0 0 1 12 16.94 72.64 72.64 0 0 1 6.86 20.2 88 88 0 0 1 1.19 12 0.35 0.35 0 0 0 0.69 0 58 58 0 0 0 -0.85 -10.81 73.89 73.89 0 0 0 -12 -29.94 53.13 53.13 0 0 0 -7.8 -9.33 2.16 2.16 0 0 1 -0.24 -0.73 24.74 24.74 0 0 1 3.75 -1.68c1.4 3 5 5.14 7.77 5.84 3.66 0.92 3.47 -0.25 3 -0.36 -2 -0.42 -2.43 -0.08 -4.75 -1.12a12.64 12.64 0 0 1 -5.45 -4.78 31.58 31.58 0 0 0 1.2 -3.76 25.05 25.05 0 0 0 13.12 3.3c0.24 0.75 1.58 4.34 2.49 5.32 0.52 0.56 0.69 0.39 0.84 -0.25a35.47 35.47 0 0 0 0.22 -5.75 5.25 5.25 0 0 0 2.36 -1.63 20.56 20.56 0 0 0 1.22 3.13c-0.44 1.35 -0.09 1.63 -1.57 3.33 -0.25 0.27 0.13 0.65 0.42 0.43a5 5 0 0 0 1.87 -3.33c17.6 8.58 27.29 25.45 30.47 53.08 0.07 0.55 1 0.49 0.91 -0.08a111.27 111.27 0 0 0 -4.05 -20.11c3.55 -4.9 1.86 -13.76 1.32 -16.11a17.54 17.54 0 0 0 7.59 3.13 0.21 0.21 0 0 0 0.16 -0.1 28.27 28.27 0 0 0 2.36 -16c14 9.54 22.11 25.47 24.12 47.35a0.41 0.41 0 0 0 0.82 -0.01zM89.26 65.17a9.84 9.84 0 0 1 5.92 4.49 21.17 21.17 0 0 0 -12.25 2 35.2 35.2 0 0 1 6.33 -6.49zm-10.2 14.75a21.78 21.78 0 0 1 3 -7.15c2.84 -1.16 8.82 -2.93 13.58 -2.27a30.62 30.62 0 0 1 3 8.44c1.23 5.09 2.42 12.4 -1.44 17.14 -5.85 7.22 -21.6 -0.94 -18.14 -16.16zM39.21 94.47a4 4 0 0 1 -4 2c-3.11 -0.31 -4.88 -3.65 -3.95 -6.56 1.21 -3.82 4.13 -3 2.34 -1.61 -2.36 1.89 -1.81 6.15 1.22 6.94a3.17 3.17 0 0 0 3.48 -1.4c0.45 -0.51 1.16 0.1 0.91 0.63zM61 118.09l-2.68 -0.86A64.85 64.85 0 0 1 34 102.48a28.15 28.15 0 0 1 6.61 -1.36c0.38 0 0.52 -0.62 0.56 -1a46.46 46.46 0 0 0 -0.81 -8.63c-0.71 -2.46 -2.61 -2.08 -4.44 -4.22a4.46 4.46 0 0 1 1.84 0.24 0.5 0.5 0 0 0 0.37 -0.91 3.75 3.75 0 0 0 -3 -0.34 6.08 6.08 0 0 1 -0.91 -3.15 1.54 1.54 0 0 1 0.81 -1.38 3 3 0 0 1 2.71 0.56c3.18 2.24 4.36 0.78 4.21 -3a16.87 16.87 0 0 0 -1.48 -6.56A71.18 71.18 0 0 0 61 71.06c0.4 1.71 1 3.61 1.46 5.35 2.14 8.17 3 19.47 -5.31 20.88 -0.55 0.1 -0.36 1.73 -0.35 1.74 0.05 0.46 0.21 1.2 0.64 1.21a38 38 0 0 1 4.81 1.88c0.5 6.35 -0.01 12.72 -1.25 15.97zm13.27 -14.27a18.91 18.91 0 0 1 -7.87 -4.38 0.16 0.16 0 0 0 -0.16 0 5.41 5.41 0 0 0 -2.88 2.27 30 30 0 0 0 -5.64 -2.21 9.07 9.07 0 0 0 -0.11 -1.34A8.37 8.37 0 0 0 64 92.38a16.9 16.9 0 0 0 10.4 10.44c0.88 0.33 0.51 1.18 -0.12 1zm-3 -11.42A22.4 22.4 0 0 1 75 67.7c0.41 -0.42 1.14 0.14 0.73 0.6a21.08 21.08 0 0 0 -5.14 16.76 19.5 19.5 0 0 0 13.08 16.81c0.56 0.2 0.22 1 -0.34 0.86A20.45 20.45 0 0 1 71.27 92.4zm93.08 12.85c1.07 -0.48 1.54 1.24 0.36 1.48a0.77 0.77 0 0 1 -0.36 -1.48zm-0.51 2.83a0.92 0.92 0 0 1 1.49 0.21 1.17 1.17 0 0 1 -1.21 1.57c-0.83 -0.09 -0.91 -1.25 -0.28 -1.78zM170.17 92c-0.22 0.38 0.29 7.77 -7.18 10.52 -0.41 0.15 -0.62 0.06 -0.47 1.42a3.1 3.1 0 0 0 0.55 1.71 1.54 1.54 0 0 0 0.62 1.61 1.91 1.91 0 0 0 -1 2.15 1.6 1.6 0 0 0 -1.95 1.29 1.84 1.84 0 0 0 -2.67 0.67A1.51 1.51 0 0 0 156 111c-4.89 -10.11 -9.86 -17.69 -9.2 -29 5.21 1.17 9.88 -3.25 12.29 -8.27 1.58 2.11 6.14 4.9 8.84 4.9 1.07 2.8 2.56 8.2 2.24 13.37zm-7.72 20.19a0.83 0.83 0 0 1 -0.93 -0.54c-0.22 -0.63 0.17 -1.6 0.75 -1.6 0.98 -0.05 1.32 2.02 0.18 2.09zm-1.91 0a0.83 0.83 0 0 1 -0.65 0.7 1.12 1.12 0 0 1 -1.09 -0.47c-0.38 -0.56 0.21 -1.26 0.9 -1.26a0.8 0.8 0 0 1 0.84 0.99zm-2.9 0.44c-0.08 0.32 -0.2 0.45 -0.59 0.63 -0.23 -0.5 -0.47 -1 -0.7 -1.49 0.43 -0.66 1.47 0.12 1.29 0.82zm-29.35 -12.33a0.47 0.47 0 0 0 -0.35 0.45c0 0.31 0.46 0.36 0.72 0.35a11.55 11.55 0 0 1 -2.35 1.64c-0.07 0.08 -0.17 0.17 -0.15 5 -0.77 -1.72 -1.77 -4.69 -2.58 -4.74h-0.9a26.13 26.13 0 0 1 -11.08 -2.62c0.23 -1 -0.25 -5.44 -1.81 -7.48 -1.35 -1.75 -2.62 -1.92 -4 -4.62 -1.84 -3.5 0.48 -5.29 2.9 -3.43 0.74 0.67 2.25 1.64 3 1 0.54 -0.44 0.4 -1.49 0.29 -2.34 -0.53 -4 -1 -8.8 -0.56 -12.77 0.21 -1.77 0.9 -1.44 1 0.13 0.16 6 0.58 6.51 0.79 6.58 0.42 0.32 3.78 -0.09 4.22 -0.09a83.53 83.53 0 0 0 15.38 -2.53 41 41 0 0 1 2.48 11.31c0.49 8.8 -1.83 13.59 -7 14.16zm30.18 36.7a62.9 62.9 0 0 0 -9.23 -18.41c-2.28 -11.81 -11.87 -23.07 -8.54 -35.51 0.12 -0.38 -0.46 -0.59 -0.57 -0.21C136.57 95 145.19 105.8 148 117c-2.93 -3.48 -10.12 -10.41 -16.63 -12.71a30.92 30.92 0 0 0 -1.35 -3.44 7.48 7.48 0 0 0 4.69 -4.18c3.08 -6.4 0.75 -17.44 -1.22 -22.11 0.9 -0.22 2.17 -0.29 2 -1.11a16.25 16.25 0 0 0 -2.24 -5.16 18.92 18.92 0 0 1 28.15 -5.49c6.16 4.84 8.58 13.93 8.86 21 -1.69 -8 -6.32 -19.64 -14.48 -19.16 -4.06 0.21 -6.34 3.88 -7.53 6.92 -3.14 8 -3 17 0.4 25.82 3.26 8.42 8.68 16 10.75 24.83 0.85 3.84 1.42 9.52 -0.93 14.79zm8.95 -12.69a17.93 17.93 0 0 1 -7.57 -3.43 49.09 49.09 0 0 0 -2.46 -6.89 1.7 1.7 0 0 0 1 -1 1.64 1.64 0 0 0 2.89 -0.43 1.7 1.7 0 0 0 2.63 -2 1.77 1.77 0 0 0 2 -0.58 2 2 0 0 0 -0.37 -2.69 1.53 1.53 0 0 0 0.65 -0.83c1.08 0.6 2.13 1.24 3.13 1.89 -0.19 1.87 1.68 6.45 -1.9 15.99z" stroke-width="1"></path><path d="M121.5 50.22c-1.25 0.22 -7.94 2.88 -9.53 3.53 -0.46 -3.29 -2.21 -5.84 -4.71 -6.84C104 45.62 99 46.07 95.38 48a9.68 9.68 0 0 0 -5.31 6.41 0.15 0.15 0 0 0 0.08 0.17 19.84 19.84 0 0 1 9.9 9.6 0.15 0.15 0 0 0 0.25 0c3.15 -4.16 7.65 -5.55 11.64 -6.37a0.15 0.15 0 0 0 0.12 -0.13 20.84 20.84 0 0 0 0 -2.65c1.75 -0.65 9 -3.24 9.8 -3.65a0.62 0.62 0 0 0 -0.36 -1.16zm-10.43 5a34.58 34.58 0 0 1 -4.38 1.63 0.49 0.49 0 0 1 -0.36 -0.88 17.19 17.19 0 0 1 4.43 -1.7 0.53 0.53 0 0 1 0.31 0.96zm16.48 36.01a0.69 0.69 0 0 0 -0.88 -0.42c-1.26 0.25 -4.18 -0.6 -4.85 -1.6 -0.32 -0.47 -1.1 -0.43 -1.21 0.83 -0.2 2.25 3 4.33 5.52 3.24 0.79 -0.34 1.62 -1.4 1.42 -2.05zM121.4 90c0.85 1.34 3.65 1.82 5.12 1.82 -0.72 1.85 -5.15 0.57 -5.12 -1.82z" stroke-width="1"></path></g></svg>